  0
SECTION
  2
HEADER
  9
$ANGBASE
  50
0.0
  9
$ANGDIR
  70
1
  9
$MEASUREMENT
  70
1
  0
ENDSEC
  0
SECTION
  2
TABLES
  0
TABLE
  2
LTYPE
  70
4
  0
LTYPE
  5
40F
  2
CONTINUOUS
  70
0
  3
Solid line
  72
65
  73
0
  40
0.0
  0
LTYPE
  5
410
  2
DASHDOT
 70
0
  3
Dash Dot ____ _ ____ _
 72
65
 73
4
 40
2.0
 49
1.25
 49
-0.25
 49
0.25
 49
-0.25
  0
LTYPE
  5
411
  2
DASHED
 70
0
  3
Dashed __ __ __ __ __
 72
65
 73
2
 40
0.75
 49
0.5
 49
-0.25
  0
LTYPE
  5
43B
  2
DOTTED
 70
0
  3
Dotted .  .  .  .
 72
65
 73
2
 40
0.2
 49
0.0
 49
-0.2
  0
ENDTAB
  0
TABLE
  2
STYLE
  70
4
  0
STYLE
  2
KICAD
  70
0
  40
0
  41
1
  42
1
  50
0
  71
0
  3
isocp.shx
  0
STYLE
  2
KICADB
  70
0
  40
0
  41
1
  42
1
  50
0
  71
0
  3
isocp.shx
  0
STYLE
  2
KICADI
  70
0
  40
0
  41
1
  42
1
  50
15
  71
0
  3
isocp.shx
  0
STYLE
  2
KICADBI
  70
0
  40
0
  41
1
  42
1
  50
15
  71
0
  3
isocp.shx
  0
ENDTAB
  0
TABLE
  2
LAYER
  70
1
  0
LAYER
  2
BLACK
  70
0
  62
7
  6
CONTINUOUS
  0
ENDTAB
  0
ENDSEC
  0
SECTION
  2
ENTITIES
0
LINE
8
BLACK
6
CONTINUOUS
10
74.4203
20
-90.9776
11
74.4378
21
-91.02
0
LINE
8
BLACK
6
CONTINUOUS
10
74.4378
20
-91.02
11
74.4203
21
-91.0624
0
LINE
8
BLACK
6
CONTINUOUS
10
74.4203
20
-91.0624
11
74.3778
21
-91.08
0
LINE
8
BLACK
6
CONTINUOUS
10
74.3778
20
-91.08
11
74.1622
21
-91.08
0
LINE
8
BLACK
6
CONTINUOUS
10
74.1622
20
-91.08
11
74.1197
21
-91.0624
0
LINE
8
BLACK
6
CONTINUOUS
10
74.1197
20
-91.0624
11
74.1022
21
-91.02
0
LINE
8
BLACK
6
CONTINUOUS
10
74.1022
20
-91.02
11
74.1197
21
-90.9776
0
LINE
8
BLACK
6
CONTINUOUS
10
74.1197
20
-90.9776
11
74.1622
21
-90.96
0
LINE
8
BLACK
6
CONTINUOUS
10
74.1622
20
-90.96
11
74.3778
21
-90.96
0
LINE
8
BLACK
6
CONTINUOUS
10
74.3778
20
-90.96
11
74.4203
21
-90.9776
0
LINE
8
BLACK
6
CONTINUOUS
10
77.2903
20
-90.9776
11
77.3078
21
-91.02
0
LINE
8
BLACK
6
CONTINUOUS
10
77.3078
20
-91.02
11
77.2903
21
-91.0624
0
LINE
8
BLACK
6
CONTINUOUS
10
77.2903
20
-91.0624
11
77.2478
21
-91.08
0
LINE
8
BLACK
6
CONTINUOUS
10
77.2478
20
-91.08
11
77.0322
21
-91.08
0
LINE
8
BLACK
6
CONTINUOUS
10
77.0322
20
-91.08
11
76.9897
21
-91.0624
0
LINE
8
BLACK
6
CONTINUOUS
10
76.9897
20
-91.0624
11
76.9722
21
-91.02
0
LINE
8
BLACK
6
CONTINUOUS
10
76.9722
20
-91.02
11
76.9897
21
-90.9776
0
LINE
8
BLACK
6
CONTINUOUS
10
76.9897
20
-90.9776
11
77.0322
21
-90.96
0
LINE
8
BLACK
6
CONTINUOUS
10
77.0322
20
-90.96
11
77.2478
21
-90.96
0
LINE
8
BLACK
6
CONTINUOUS
10
77.2478
20
-90.96
11
77.2903
21
-90.9776
0
LINE
8
BLACK
6
CONTINUOUS
10
74.4203
20
-90.2576
11
74.4378
21
-90.3
0
LINE
8
BLACK
6
CONTINUOUS
10
74.4378
20
-90.3
11
74.4203
21
-90.3424
0
LINE
8
BLACK
6
CONTINUOUS
10
74.4203
20
-90.3424
11
74.3778
21
-90.36
0
LINE
8
BLACK
6
CONTINUOUS
10
74.3778
20
-90.36
11
74.1622
21
-90.36
0
LINE
8
BLACK
6
CONTINUOUS
10
74.1622
20
-90.36
11
74.1197
21
-90.3424
0
LINE
8
BLACK
6
CONTINUOUS
10
74.1197
20
-90.3424
11
74.1022
21
-90.3
0
LINE
8
BLACK
6
CONTINUOUS
10
74.1022
20
-90.3
11
74.1197
21
-90.2576
0
LINE
8
BLACK
6
CONTINUOUS
10
74.1197
20
-90.2576
11
74.1622
21
-90.24
0
LINE
8
BLACK
6
CONTINUOUS
10
74.1622
20
-90.24
11
74.3778
21
-90.24
0
LINE
8
BLACK
6
CONTINUOUS
10
74.3778
20
-90.24
11
74.4203
21
-90.2576
0
LINE
8
BLACK
6
CONTINUOUS
10
77.2903
20
-90.2576
11
77.3078
21
-90.3
0
LINE
8
BLACK
6
CONTINUOUS
10
77.3078
20
-90.3
11
77.2903
21
-90.3424
0
LINE
8
BLACK
6
CONTINUOUS
10
77.2903
20
-90.3424
11
77.2478
21
-90.36
0
LINE
8
BLACK
6
CONTINUOUS
10
77.2478
20
-90.36
11
77.0322
21
-90.36
0
LINE
8
BLACK
6
CONTINUOUS
10
77.0322
20
-90.36
11
76.9897
21
-90.3424
0
LINE
8
BLACK
6
CONTINUOUS
10
76.9897
20
-90.3424
11
76.9722
21
-90.3
0
LINE
8
BLACK
6
CONTINUOUS
10
76.9722
20
-90.3
11
76.9897
21
-90.2576
0
LINE
8
BLACK
6
CONTINUOUS
10
76.9897
20
-90.2576
11
77.0322
21
-90.24
0
LINE
8
BLACK
6
CONTINUOUS
10
77.0322
20
-90.24
11
77.2478
21
-90.24
0
LINE
8
BLACK
6
CONTINUOUS
10
77.2478
20
-90.24
11
77.2903
21
-90.2576
0
LINE
8
BLACK
6
CONTINUOUS
10
74.4203
20
-89.0076
11
74.4378
21
-89.05
0
LINE
8
BLACK
6
CONTINUOUS
10
74.4378
20
-89.05
11
74.4203
21
-89.0924
0
LINE
8
BLACK
6
CONTINUOUS
10
74.4203
20
-89.0924
11
74.3778
21
-89.11
0
LINE
8
BLACK
6
CONTINUOUS
10
74.3778
20
-89.11
11
74.1622
21
-89.11
0
LINE
8
BLACK
6
CONTINUOUS
10
74.1622
20
-89.11
11
74.1197
21
-89.0924
0
LINE
8
BLACK
6
CONTINUOUS
10
74.1197
20
-89.0924
11
74.1022
21
-89.05
0
LINE
8
BLACK
6
CONTINUOUS
10
74.1022
20
-89.05
11
74.1197
21
-89.0076
0
LINE
8
BLACK
6
CONTINUOUS
10
74.1197
20
-89.0076
11
74.1622
21
-88.99
0
LINE
8
BLACK
6
CONTINUOUS
10
74.1622
20
-88.99
11
74.3778
21
-88.99
0
LINE
8
BLACK
6
CONTINUOUS
10
74.3778
20
-88.99
11
74.4203
21
-89.0076
0
LINE
8
BLACK
6
CONTINUOUS
10
77.2903
20
-89.0076
11
77.3078
21
-89.05
0
LINE
8
BLACK
6
CONTINUOUS
10
77.3078
20
-89.05
11
77.2903
21
-89.0924
0
LINE
8
BLACK
6
CONTINUOUS
10
77.2903
20
-89.0924
11
77.2478
21
-89.11
0
LINE
8
BLACK
6
CONTINUOUS
10
77.2478
20
-89.11
11
77.0322
21
-89.11
0
LINE
8
BLACK
6
CONTINUOUS
10
77.0322
20
-89.11
11
76.9897
21
-89.0924
0
LINE
8
BLACK
6
CONTINUOUS
10
76.9897
20
-89.0924
11
76.9722
21
-89.05
0
LINE
8
BLACK
6
CONTINUOUS
10
76.9722
20
-89.05
11
76.9897
21
-89.0076
0
LINE
8
BLACK
6
CONTINUOUS
10
76.9897
20
-89.0076
11
77.0322
21
-88.99
0
LINE
8
BLACK
6
CONTINUOUS
10
77.0322
20
-88.99
11
77.2478
21
-88.99
0
LINE
8
BLACK
6
CONTINUOUS
10
77.2478
20
-88.99
11
77.2903
21
-89.0076
0
LINE
8
BLACK
6
CONTINUOUS
10
74.4203
20
-88.2876
11
74.4378
21
-88.33
0
LINE
8
BLACK
6
CONTINUOUS
10
74.4378
20
-88.33
11
74.4203
21
-88.3724
0
LINE
8
BLACK
6
CONTINUOUS
10
74.4203
20
-88.3724
11
74.3778
21
-88.39
0
LINE
8
BLACK
6
CONTINUOUS
10
74.3778
20
-88.39
11
74.1622
21
-88.39
0
LINE
8
BLACK
6
CONTINUOUS
10
74.1622
20
-88.39
11
74.1197
21
-88.3724
0
LINE
8
BLACK
6
CONTINUOUS
10
74.1197
20
-88.3724
11
74.1022
21
-88.33
0
LINE
8
BLACK
6
CONTINUOUS
10
74.1022
20
-88.33
11
74.1197
21
-88.2876
0
LINE
8
BLACK
6
CONTINUOUS
10
74.1197
20
-88.2876
11
74.1622
21
-88.27
0
LINE
8
BLACK
6
CONTINUOUS
10
74.1622
20
-88.27
11
74.3778
21
-88.27
0
LINE
8
BLACK
6
CONTINUOUS
10
74.3778
20
-88.27
11
74.4203
21
-88.2876
0
LINE
8
BLACK
6
CONTINUOUS
10
77.2903
20
-88.2876
11
77.3078
21
-88.33
0
LINE
8
BLACK
6
CONTINUOUS
10
77.3078
20
-88.33
11
77.2903
21
-88.3724
0
LINE
8
BLACK
6
CONTINUOUS
10
77.2903
20
-88.3724
11
77.2478
21
-88.39
0
LINE
8
BLACK
6
CONTINUOUS
10
77.2478
20
-88.39
11
77.0322
21
-88.39
0
LINE
8
BLACK
6
CONTINUOUS
10
77.0322
20
-88.39
11
76.9897
21
-88.3724
0
LINE
8
BLACK
6
CONTINUOUS
10
76.9897
20
-88.3724
11
76.9722
21
-88.33
0
LINE
8
BLACK
6
CONTINUOUS
10
76.9722
20
-88.33
11
76.9897
21
-88.2876
0
LINE
8
BLACK
6
CONTINUOUS
10
76.9897
20
-88.2876
11
77.0322
21
-88.27
0
LINE
8
BLACK
6
CONTINUOUS
10
77.0322
20
-88.27
11
77.2478
21
-88.27
0
LINE
8
BLACK
6
CONTINUOUS
10
77.2478
20
-88.27
11
77.2903
21
-88.2876
0
LINE
8
BLACK
6
CONTINUOUS
10
74.4203
20
-87.0376
11
74.4378
21
-87.08
0
LINE
8
BLACK
6
CONTINUOUS
10
74.4378
20
-87.08
11
74.4203
21
-87.1224
0
LINE
8
BLACK
6
CONTINUOUS
10
74.4203
20
-87.1224
11
74.3778
21
-87.14
0
LINE
8
BLACK
6
CONTINUOUS
10
74.3778
20
-87.14
11
74.1622
21
-87.14
0
LINE
8
BLACK
6
CONTINUOUS
10
74.1622
20
-87.14
11
74.1197
21
-87.1224
0
LINE
8
BLACK
6
CONTINUOUS
10
74.1197
20
-87.1224
11
74.1022
21
-87.08
0
LINE
8
BLACK
6
CONTINUOUS
10
74.1022
20
-87.08
11
74.1197
21
-87.0376
0
LINE
8
BLACK
6
CONTINUOUS
10
74.1197
20
-87.0376
11
74.1622
21
-87.02
0
LINE
8
BLACK
6
CONTINUOUS
10
74.1622
20
-87.02
11
74.3778
21
-87.02
0
LINE
8
BLACK
6
CONTINUOUS
10
74.3778
20
-87.02
11
74.4203
21
-87.0376
0
LINE
8
BLACK
6
CONTINUOUS
10
77.2903
20
-87.0376
11
77.3078
21
-87.08
0
LINE
8
BLACK
6
CONTINUOUS
10
77.3078
20
-87.08
11
77.2903
21
-87.1224
0
LINE
8
BLACK
6
CONTINUOUS
10
77.2903
20
-87.1224
11
77.2478
21
-87.14
0
LINE
8
BLACK
6
CONTINUOUS
10
77.2478
20
-87.14
11
77.0322
21
-87.14
0
LINE
8
BLACK
6
CONTINUOUS
10
77.0322
20
-87.14
11
76.9897
21
-87.1224
0
LINE
8
BLACK
6
CONTINUOUS
10
76.9897
20
-87.1224
11
76.9722
21
-87.08
0
LINE
8
BLACK
6
CONTINUOUS
10
76.9722
20
-87.08
11
76.9897
21
-87.0376
0
LINE
8
BLACK
6
CONTINUOUS
10
76.9897
20
-87.0376
11
77.0322
21
-87.02
0
LINE
8
BLACK
6
CONTINUOUS
10
77.0322
20
-87.02
11
77.2478
21
-87.02
0
LINE
8
BLACK
6
CONTINUOUS
10
77.2478
20
-87.02
11
77.2903
21
-87.0376
0
LINE
8
BLACK
6
CONTINUOUS
10
74.4203
20
-86.3176
11
74.4378
21
-86.36
0
LINE
8
BLACK
6
CONTINUOUS
10
74.4378
20
-86.36
11
74.4203
21
-86.4024
0
LINE
8
BLACK
6
CONTINUOUS
10
74.4203
20
-86.4024
11
74.3778
21
-86.42
0
LINE
8
BLACK
6
CONTINUOUS
10
74.3778
20
-86.42
11
74.1622
21
-86.42
0
LINE
8
BLACK
6
CONTINUOUS
10
74.1622
20
-86.42
11
74.1197
21
-86.4024
0
LINE
8
BLACK
6
CONTINUOUS
10
74.1197
20
-86.4024
11
74.1022
21
-86.36
0
LINE
8
BLACK
6
CONTINUOUS
10
74.1022
20
-86.36
11
74.1197
21
-86.3176
0
LINE
8
BLACK
6
CONTINUOUS
10
74.1197
20
-86.3176
11
74.1622
21
-86.3
0
LINE
8
BLACK
6
CONTINUOUS
10
74.1622
20
-86.3
11
74.3778
21
-86.3
0
LINE
8
BLACK
6
CONTINUOUS
10
74.3778
20
-86.3
11
74.4203
21
-86.3176
0
LINE
8
BLACK
6
CONTINUOUS
10
77.2903
20
-86.3176
11
77.3078
21
-86.36
0
LINE
8
BLACK
6
CONTINUOUS
10
77.3078
20
-86.36
11
77.2903
21
-86.4024
0
LINE
8
BLACK
6
CONTINUOUS
10
77.2903
20
-86.4024
11
77.2478
21
-86.42
0
LINE
8
BLACK
6
CONTINUOUS
10
77.2478
20
-86.42
11
77.0322
21
-86.42
0
LINE
8
BLACK
6
CONTINUOUS
10
77.0322
20
-86.42
11
76.9897
21
-86.4024
0
LINE
8
BLACK
6
CONTINUOUS
10
76.9897
20
-86.4024
11
76.9722
21
-86.36
0
LINE
8
BLACK
6
CONTINUOUS
10
76.9722
20
-86.36
11
76.9897
21
-86.3176
0
LINE
8
BLACK
6
CONTINUOUS
10
76.9897
20
-86.3176
11
77.0322
21
-86.3
0
LINE
8
BLACK
6
CONTINUOUS
10
77.0322
20
-86.3
11
77.2478
21
-86.3
0
LINE
8
BLACK
6
CONTINUOUS
10
77.2478
20
-86.3
11
77.2903
21
-86.3176
0
LINE
8
BLACK
6
CONTINUOUS
10
85.7924
20
-85.4747
11
85.81
21
-85.5172
0
LINE
8
BLACK
6
CONTINUOUS
10
85.81
20
-85.5172
11
85.81
21
-85.7328
0
LINE
8
BLACK
6
CONTINUOUS
10
85.81
20
-85.7328
11
85.7924
21
-85.7753
0
LINE
8
BLACK
6
CONTINUOUS
10
85.7924
20
-85.7753
11
85.75
21
-85.7928
0
LINE
8
BLACK
6
CONTINUOUS
10
85.75
20
-85.7928
11
85.7076
21
-85.7753
0
LINE
8
BLACK
6
CONTINUOUS
10
85.7076
20
-85.7753
11
85.69
21
-85.7328
0
LINE
8
BLACK
6
CONTINUOUS
10
85.69
20
-85.7328
11
85.69
21
-85.5172
0
LINE
8
BLACK
6
CONTINUOUS
10
85.69
20
-85.5172
11
85.7076
21
-85.4747
0
LINE
8
BLACK
6
CONTINUOUS
10
85.7076
20
-85.4747
11
85.75
21
-85.4572
0
LINE
8
BLACK
6
CONTINUOUS
10
85.75
20
-85.4572
11
85.7924
21
-85.4747
0
LINE
8
BLACK
6
CONTINUOUS
10
86.5124
20
-85.4747
11
86.53
21
-85.5172
0
LINE
8
BLACK
6
CONTINUOUS
10
86.53
20
-85.5172
11
86.53
21
-85.7328
0
LINE
8
BLACK
6
CONTINUOUS
10
86.53
20
-85.7328
11
86.5124
21
-85.7753
0
LINE
8
BLACK
6
CONTINUOUS
10
86.5124
20
-85.7753
11
86.47
21
-85.7928
0
LINE
8
BLACK
6
CONTINUOUS
10
86.47
20
-85.7928
11
86.4276
21
-85.7753
0
LINE
8
BLACK
6
CONTINUOUS
10
86.4276
20
-85.7753
11
86.41
21
-85.7328
0
LINE
8
BLACK
6
CONTINUOUS
10
86.41
20
-85.7328
11
86.41
21
-85.5172
0
LINE
8
BLACK
6
CONTINUOUS
10
86.41
20
-85.5172
11
86.4276
21
-85.4747
0
LINE
8
BLACK
6
CONTINUOUS
10
86.4276
20
-85.4747
11
86.47
21
-85.4572
0
LINE
8
BLACK
6
CONTINUOUS
10
86.47
20
-85.4572
11
86.5124
21
-85.4747
0
LINE
8
BLACK
6
CONTINUOUS
10
89.7324
20
-85.4747
11
89.75
21
-85.5172
0
LINE
8
BLACK
6
CONTINUOUS
10
89.75
20
-85.5172
11
89.75
21
-85.7328
0
LINE
8
BLACK
6
CONTINUOUS
10
89.75
20
-85.7328
11
89.7324
21
-85.7753
0
LINE
8
BLACK
6
CONTINUOUS
10
89.7324
20
-85.7753
11
89.69
21
-85.7928
0
LINE
8
BLACK
6
CONTINUOUS
10
89.69
20
-85.7928
11
89.6476
21
-85.7753
0
LINE
8
BLACK
6
CONTINUOUS
10
89.6476
20
-85.7753
11
89.63
21
-85.7328
0
LINE
8
BLACK
6
CONTINUOUS
10
89.63
20
-85.7328
11
89.63
21
-85.5172
0
LINE
8
BLACK
6
CONTINUOUS
10
89.63
20
-85.5172
11
89.6476
21
-85.4747
0
LINE
8
BLACK
6
CONTINUOUS
10
89.6476
20
-85.4747
11
89.69
21
-85.4572
0
LINE
8
BLACK
6
CONTINUOUS
10
89.69
20
-85.4572
11
89.7324
21
-85.4747
0
LINE
8
BLACK
6
CONTINUOUS
10
90.4524
20
-85.4747
11
90.47
21
-85.5172
0
LINE
8
BLACK
6
CONTINUOUS
10
90.47
20
-85.5172
11
90.47
21
-85.7328
0
LINE
8
BLACK
6
CONTINUOUS
10
90.47
20
-85.7328
11
90.4524
21
-85.7753
0
LINE
8
BLACK
6
CONTINUOUS
10
90.4524
20
-85.7753
11
90.41
21
-85.7928
0
LINE
8
BLACK
6
CONTINUOUS
10
90.41
20
-85.7928
11
90.3676
21
-85.7753
0
LINE
8
BLACK
6
CONTINUOUS
10
90.3676
20
-85.7753
11
90.35
21
-85.7328
0
LINE
8
BLACK
6
CONTINUOUS
10
90.35
20
-85.7328
11
90.35
21
-85.5172
0
LINE
8
BLACK
6
CONTINUOUS
10
90.35
20
-85.5172
11
90.3676
21
-85.4747
0
LINE
8
BLACK
6
CONTINUOUS
10
90.3676
20
-85.4747
11
90.41
21
-85.4572
0
LINE
8
BLACK
6
CONTINUOUS
10
90.41
20
-85.4572
11
90.4524
21
-85.4747
0
LINE
8
BLACK
6
CONTINUOUS
10
91.7024
20
-85.4747
11
91.72
21
-85.5172
0
LINE
8
BLACK
6
CONTINUOUS
10
91.72
20
-85.5172
11
91.72
21
-85.7328
0
LINE
8
BLACK
6
CONTINUOUS
10
91.72
20
-85.7328
11
91.7024
21
-85.7753
0
LINE
8
BLACK
6
CONTINUOUS
10
91.7024
20
-85.7753
11
91.66
21
-85.7928
0
LINE
8
BLACK
6
CONTINUOUS
10
91.66
20
-85.7928
11
91.6176
21
-85.7753
0
LINE
8
BLACK
6
CONTINUOUS
10
91.6176
20
-85.7753
11
91.6
21
-85.7328
0
LINE
8
BLACK
6
CONTINUOUS
10
91.6
20
-85.7328
11
91.6
21
-85.5172
0
LINE
8
BLACK
6
CONTINUOUS
10
91.6
20
-85.5172
11
91.6176
21
-85.4747
0
LINE
8
BLACK
6
CONTINUOUS
10
91.6176
20
-85.4747
11
91.66
21
-85.4572
0
LINE
8
BLACK
6
CONTINUOUS
10
91.66
20
-85.4572
11
91.7024
21
-85.4747
0
LINE
8
BLACK
6
CONTINUOUS
10
92.4224
20
-85.4747
11
92.44
21
-85.5172
0
LINE
8
BLACK
6
CONTINUOUS
10
92.44
20
-85.5172
11
92.44
21
-85.7328
0
LINE
8
BLACK
6
CONTINUOUS
10
92.44
20
-85.7328
11
92.4224
21
-85.7753
0
LINE
8
BLACK
6
CONTINUOUS
10
92.4224
20
-85.7753
11
92.38
21
-85.7928
0
LINE
8
BLACK
6
CONTINUOUS
10
92.38
20
-85.7928
11
92.3376
21
-85.7753
0
LINE
8
BLACK
6
CONTINUOUS
10
92.3376
20
-85.7753
11
92.32
21
-85.7328
0
LINE
8
BLACK
6
CONTINUOUS
10
92.32
20
-85.7328
11
92.32
21
-85.5172
0
LINE
8
BLACK
6
CONTINUOUS
10
92.32
20
-85.5172
11
92.3376
21
-85.4747
0
LINE
8
BLACK
6
CONTINUOUS
10
92.3376
20
-85.4747
11
92.38
21
-85.4572
0
LINE
8
BLACK
6
CONTINUOUS
10
92.38
20
-85.4572
11
92.4224
21
-85.4747
0
LINE
8
BLACK
6
CONTINUOUS
10
87.7624
20
-85.4747
11
87.78
21
-85.5172
0
LINE
8
BLACK
6
CONTINUOUS
10
87.78
20
-85.5172
11
87.78
21
-85.7328
0
LINE
8
BLACK
6
CONTINUOUS
10
87.78
20
-85.7328
11
87.7624
21
-85.7753
0
LINE
8
BLACK
6
CONTINUOUS
10
87.7624
20
-85.7753
11
87.72
21
-85.7928
0
LINE
8
BLACK
6
CONTINUOUS
10
87.72
20
-85.7928
11
87.6776
21
-85.7753
0
LINE
8
BLACK
6
CONTINUOUS
10
87.6776
20
-85.7753
11
87.66
21
-85.7328
0
LINE
8
BLACK
6
CONTINUOUS
10
87.66
20
-85.7328
11
87.66
21
-85.5172
0
LINE
8
BLACK
6
CONTINUOUS
10
87.66
20
-85.5172
11
87.6776
21
-85.4747
0
LINE
8
BLACK
6
CONTINUOUS
10
87.6776
20
-85.4747
11
87.72
21
-85.4572
0
LINE
8
BLACK
6
CONTINUOUS
10
87.72
20
-85.4572
11
87.7624
21
-85.4747
0
LINE
8
BLACK
6
CONTINUOUS
10
88.4824
20
-85.4747
11
88.5
21
-85.5172
0
LINE
8
BLACK
6
CONTINUOUS
10
88.5
20
-85.5172
11
88.5
21
-85.7328
0
LINE
8
BLACK
6
CONTINUOUS
10
88.5
20
-85.7328
11
88.4824
21
-85.7753
0
LINE
8
BLACK
6
CONTINUOUS
10
88.4824
20
-85.7753
11
88.44
21
-85.7928
0
LINE
8
BLACK
6
CONTINUOUS
10
88.44
20
-85.7928
11
88.3976
21
-85.7753
0
LINE
8
BLACK
6
CONTINUOUS
10
88.3976
20
-85.7753
11
88.38
21
-85.7328
0
LINE
8
BLACK
6
CONTINUOUS
10
88.38
20
-85.7328
11
88.38
21
-85.5172
0
LINE
8
BLACK
6
CONTINUOUS
10
88.38
20
-85.5172
11
88.3976
21
-85.4747
0
LINE
8
BLACK
6
CONTINUOUS
10
88.3976
20
-85.4747
11
88.44
21
-85.4572
0
LINE
8
BLACK
6
CONTINUOUS
10
88.44
20
-85.4572
11
88.4824
21
-85.4747
0
LINE
8
BLACK
6
CONTINUOUS
10
93.6724
20
-85.4747
11
93.69
21
-85.5172
0
LINE
8
BLACK
6
CONTINUOUS
10
93.69
20
-85.5172
11
93.69
21
-85.7328
0
LINE
8
BLACK
6
CONTINUOUS
10
93.69
20
-85.7328
11
93.6724
21
-85.7753
0
LINE
8
BLACK
6
CONTINUOUS
10
93.6724
20
-85.7753
11
93.63
21
-85.7928
0
LINE
8
BLACK
6
CONTINUOUS
10
93.63
20
-85.7928
11
93.5876
21
-85.7753
0
LINE
8
BLACK
6
CONTINUOUS
10
93.5876
20
-85.7753
11
93.57
21
-85.7328
0
LINE
8
BLACK
6
CONTINUOUS
10
93.57
20
-85.7328
11
93.57
21
-85.5172
0
LINE
8
BLACK
6
CONTINUOUS
10
93.57
20
-85.5172
11
93.5876
21
-85.4747
0
LINE
8
BLACK
6
CONTINUOUS
10
93.5876
20
-85.4747
11
93.63
21
-85.4572
0
LINE
8
BLACK
6
CONTINUOUS
10
93.63
20
-85.4572
11
93.6724
21
-85.4747
0
LINE
8
BLACK
6
CONTINUOUS
10
94.3924
20
-85.4747
11
94.41
21
-85.5172
0
LINE
8
BLACK
6
CONTINUOUS
10
94.41
20
-85.5172
11
94.41
21
-85.7328
0
LINE
8
BLACK
6
CONTINUOUS
10
94.41
20
-85.7328
11
94.3924
21
-85.7753
0
LINE
8
BLACK
6
CONTINUOUS
10
94.3924
20
-85.7753
11
94.35
21
-85.7928
0
LINE
8
BLACK
6
CONTINUOUS
10
94.35
20
-85.7928
11
94.3076
21
-85.7753
0
LINE
8
BLACK
6
CONTINUOUS
10
94.3076
20
-85.7753
11
94.29
21
-85.7328
0
LINE
8
BLACK
6
CONTINUOUS
10
94.29
20
-85.7328
11
94.29
21
-85.5172
0
LINE
8
BLACK
6
CONTINUOUS
10
94.29
20
-85.5172
11
94.3076
21
-85.4747
0
LINE
8
BLACK
6
CONTINUOUS
10
94.3076
20
-85.4747
11
94.35
21
-85.4572
0
LINE
8
BLACK
6
CONTINUOUS
10
94.35
20
-85.4572
11
94.3924
21
-85.4747
0
LINE
8
BLACK
6
CONTINUOUS
10
74.4203
20
-85.0676
11
74.4378
21
-85.11
0
LINE
8
BLACK
6
CONTINUOUS
10
74.4378
20
-85.11
11
74.4203
21
-85.1524
0
LINE
8
BLACK
6
CONTINUOUS
10
74.4203
20
-85.1524
11
74.3778
21
-85.17
0
LINE
8
BLACK
6
CONTINUOUS
10
74.3778
20
-85.17
11
74.1622
21
-85.17
0
LINE
8
BLACK
6
CONTINUOUS
10
74.1622
20
-85.17
11
74.1197
21
-85.1524
0
LINE
8
BLACK
6
CONTINUOUS
10
74.1197
20
-85.1524
11
74.1022
21
-85.11
0
LINE
8
BLACK
6
CONTINUOUS
10
74.1022
20
-85.11
11
74.1197
21
-85.0676
0
LINE
8
BLACK
6
CONTINUOUS
10
74.1197
20
-85.0676
11
74.1622
21
-85.05
0
LINE
8
BLACK
6
CONTINUOUS
10
74.1622
20
-85.05
11
74.3778
21
-85.05
0
LINE
8
BLACK
6
CONTINUOUS
10
74.3778
20
-85.05
11
74.4203
21
-85.0676
0
LINE
8
BLACK
6
CONTINUOUS
10
77.2903
20
-85.0676
11
77.3078
21
-85.11
0
LINE
8
BLACK
6
CONTINUOUS
10
77.3078
20
-85.11
11
77.2903
21
-85.1524
0
LINE
8
BLACK
6
CONTINUOUS
10
77.2903
20
-85.1524
11
77.2478
21
-85.17
0
LINE
8
BLACK
6
CONTINUOUS
10
77.2478
20
-85.17
11
77.0322
21
-85.17
0
LINE
8
BLACK
6
CONTINUOUS
10
77.0322
20
-85.17
11
76.9897
21
-85.1524
0
LINE
8
BLACK
6
CONTINUOUS
10
76.9897
20
-85.1524
11
76.9722
21
-85.11
0
LINE
8
BLACK
6
CONTINUOUS
10
76.9722
20
-85.11
11
76.9897
21
-85.0676
0
LINE
8
BLACK
6
CONTINUOUS
10
76.9897
20
-85.0676
11
77.0322
21
-85.05
0
LINE
8
BLACK
6
CONTINUOUS
10
77.0322
20
-85.05
11
77.2478
21
-85.05
0
LINE
8
BLACK
6
CONTINUOUS
10
77.2478
20
-85.05
11
77.2903
21
-85.0676
0
LINE
8
BLACK
6
CONTINUOUS
10
74.4203
20
-84.3476
11
74.4378
21
-84.39
0
LINE
8
BLACK
6
CONTINUOUS
10
74.4378
20
-84.39
11
74.4203
21
-84.4324
0
LINE
8
BLACK
6
CONTINUOUS
10
74.4203
20
-84.4324
11
74.3778
21
-84.45
0
LINE
8
BLACK
6
CONTINUOUS
10
74.3778
20
-84.45
11
74.1622
21
-84.45
0
LINE
8
BLACK
6
CONTINUOUS
10
74.1622
20
-84.45
11
74.1197
21
-84.4324
0
LINE
8
BLACK
6
CONTINUOUS
10
74.1197
20
-84.4324
11
74.1022
21
-84.39
0
LINE
8
BLACK
6
CONTINUOUS
10
74.1022
20
-84.39
11
74.1197
21
-84.3476
0
LINE
8
BLACK
6
CONTINUOUS
10
74.1197
20
-84.3476
11
74.1622
21
-84.33
0
LINE
8
BLACK
6
CONTINUOUS
10
74.1622
20
-84.33
11
74.3778
21
-84.33
0
LINE
8
BLACK
6
CONTINUOUS
10
74.3778
20
-84.33
11
74.4203
21
-84.3476
0
LINE
8
BLACK
6
CONTINUOUS
10
77.2903
20
-84.3476
11
77.3078
21
-84.39
0
LINE
8
BLACK
6
CONTINUOUS
10
77.3078
20
-84.39
11
77.2903
21
-84.4324
0
LINE
8
BLACK
6
CONTINUOUS
10
77.2903
20
-84.4324
11
77.2478
21
-84.45
0
LINE
8
BLACK
6
CONTINUOUS
10
77.2478
20
-84.45
11
77.0322
21
-84.45
0
LINE
8
BLACK
6
CONTINUOUS
10
77.0322
20
-84.45
11
76.9897
21
-84.4324
0
LINE
8
BLACK
6
CONTINUOUS
10
76.9897
20
-84.4324
11
76.9722
21
-84.39
0
LINE
8
BLACK
6
CONTINUOUS
10
76.9722
20
-84.39
11
76.9897
21
-84.3476
0
LINE
8
BLACK
6
CONTINUOUS
10
76.9897
20
-84.3476
11
77.0322
21
-84.33
0
LINE
8
BLACK
6
CONTINUOUS
10
77.0322
20
-84.33
11
77.2478
21
-84.33
0
LINE
8
BLACK
6
CONTINUOUS
10
77.2478
20
-84.33
11
77.2903
21
-84.3476
0
LINE
8
BLACK
6
CONTINUOUS
10
64.1824
20
-83.3676
11
64.2
21
-83.41
0
LINE
8
BLACK
6
CONTINUOUS
10
64.2
20
-83.41
11
64.2
21
-84.025
0
LINE
8
BLACK
6
CONTINUOUS
10
64.2
20
-84.025
11
64.315
21
-84.025
0
LINE
8
BLACK
6
CONTINUOUS
10
64.315
20
-84.025
11
64.3574
21
-84.0426
0
LINE
8
BLACK
6
CONTINUOUS
10
64.3574
20
-84.0426
11
64.375
21
-84.085
0
LINE
8
BLACK
6
CONTINUOUS
10
64.375
20
-84.085
11
64.3574
21
-84.1274
0
LINE
8
BLACK
6
CONTINUOUS
10
64.3574
20
-84.1274
11
64.315
21
-84.145
0
LINE
8
BLACK
6
CONTINUOUS
10
64.315
20
-84.145
11
64.14
21
-84.145
0
LINE
8
BLACK
6
CONTINUOUS
10
64.14
20
-84.145
11
64.0976
21
-84.1274
0
LINE
8
BLACK
6
CONTINUOUS
10
64.0976
20
-84.1274
11
64.08
21
-84.085
0
LINE
8
BLACK
6
CONTINUOUS
10
64.08
20
-84.085
11
64.08
21
-84.085
0
LINE
8
BLACK
6
CONTINUOUS
10
64.08
20
-84.085
11
64.08
21
-83.41
0
LINE
8
BLACK
6
CONTINUOUS
10
64.08
20
-83.41
11
64.0976
21
-83.3676
0
LINE
8
BLACK
6
CONTINUOUS
10
64.0976
20
-83.3676
11
64.14
21
-83.35
0
LINE
8
BLACK
6
CONTINUOUS
10
64.14
20
-83.35
11
64.1824
21
-83.3676
0
LINE
8
BLACK
6
CONTINUOUS
10
67.4024
20
-83.3676
11
67.42
21
-83.41
0
LINE
8
BLACK
6
CONTINUOUS
10
67.42
20
-83.41
11
67.42
21
-84.085
0
LINE
8
BLACK
6
CONTINUOUS
10
67.42
20
-84.085
11
67.4024
21
-84.1274
0
LINE
8
BLACK
6
CONTINUOUS
10
67.4024
20
-84.1274
11
67.36
21
-84.145
0
LINE
8
BLACK
6
CONTINUOUS
10
67.36
20
-84.145
11
67.185
21
-84.145
0
LINE
8
BLACK
6
CONTINUOUS
10
67.185
20
-84.145
11
67.1426
21
-84.1274
0
LINE
8
BLACK
6
CONTINUOUS
10
67.1426
20
-84.1274
11
67.125
21
-84.085
0
LINE
8
BLACK
6
CONTINUOUS
10
67.125
20
-84.085
11
67.1426
21
-84.0426
0
LINE
8
BLACK
6
CONTINUOUS
10
67.1426
20
-84.0426
11
67.185
21
-84.025
0
LINE
8
BLACK
6
CONTINUOUS
10
67.185
20
-84.025
11
67.3
21
-84.025
0
LINE
8
BLACK
6
CONTINUOUS
10
67.3
20
-84.025
11
67.3
21
-83.41
0
LINE
8
BLACK
6
CONTINUOUS
10
67.3
20
-83.41
11
67.3176
21
-83.3676
0
LINE
8
BLACK
6
CONTINUOUS
10
67.3176
20
-83.3676
11
67.36
21
-83.35
0
LINE
8
BLACK
6
CONTINUOUS
10
67.36
20
-83.35
11
67.4024
21
-83.3676
0
LINE
8
BLACK
6
CONTINUOUS
10
74.4203
20
-83.0976
11
74.4378
21
-83.14
0
LINE
8
BLACK
6
CONTINUOUS
10
74.4378
20
-83.14
11
74.4203
21
-83.1824
0
LINE
8
BLACK
6
CONTINUOUS
10
74.4203
20
-83.1824
11
74.3778
21
-83.2
0
LINE
8
BLACK
6
CONTINUOUS
10
74.3778
20
-83.2
11
74.1622
21
-83.2
0
LINE
8
BLACK
6
CONTINUOUS
10
74.1622
20
-83.2
11
74.1197
21
-83.1824
0
LINE
8
BLACK
6
CONTINUOUS
10
74.1197
20
-83.1824
11
74.1022
21
-83.14
0
LINE
8
BLACK
6
CONTINUOUS
10
74.1022
20
-83.14
11
74.1197
21
-83.0976
0
LINE
8
BLACK
6
CONTINUOUS
10
74.1197
20
-83.0976
11
74.1622
21
-83.08
0
LINE
8
BLACK
6
CONTINUOUS
10
74.1622
20
-83.08
11
74.3778
21
-83.08
0
LINE
8
BLACK
6
CONTINUOUS
10
74.3778
20
-83.08
11
74.4203
21
-83.0976
0
LINE
8
BLACK
6
CONTINUOUS
10
77.2903
20
-83.0976
11
77.3078
21
-83.14
0
LINE
8
BLACK
6
CONTINUOUS
10
77.3078
20
-83.14
11
77.2903
21
-83.1824
0
LINE
8
BLACK
6
CONTINUOUS
10
77.2903
20
-83.1824
11
77.2478
21
-83.2
0
LINE
8
BLACK
6
CONTINUOUS
10
77.2478
20
-83.2
11
77.0322
21
-83.2
0
LINE
8
BLACK
6
CONTINUOUS
10
77.0322
20
-83.2
11
76.9897
21
-83.1824
0
LINE
8
BLACK
6
CONTINUOUS
10
76.9897
20
-83.1824
11
76.9722
21
-83.14
0
LINE
8
BLACK
6
CONTINUOUS
10
76.9722
20
-83.14
11
76.9897
21
-83.0976
0
LINE
8
BLACK
6
CONTINUOUS
10
76.9897
20
-83.0976
11
77.0322
21
-83.08
0
LINE
8
BLACK
6
CONTINUOUS
10
77.0322
20
-83.08
11
77.2478
21
-83.08
0
LINE
8
BLACK
6
CONTINUOUS
10
77.2478
20
-83.08
11
77.2903
21
-83.0976
0
LINE
8
BLACK
6
CONTINUOUS
10
83.6924
20
-82.5389
11
83.71
21
-82.5814
0
LINE
8
BLACK
6
CONTINUOUS
10
83.71
20
-82.5814
11
83.71
21
-82.8886
0
LINE
8
BLACK
6
CONTINUOUS
10
83.71
20
-82.8886
11
83.6924
21
-82.9311
0
LINE
8
BLACK
6
CONTINUOUS
10
83.6924
20
-82.9311
11
83.65
21
-82.9486
0
LINE
8
BLACK
6
CONTINUOUS
10
83.65
20
-82.9486
11
83.6076
21
-82.9311
0
LINE
8
BLACK
6
CONTINUOUS
10
83.6076
20
-82.9311
11
83.59
21
-82.8886
0
LINE
8
BLACK
6
CONTINUOUS
10
83.59
20
-82.8886
11
83.59
21
-82.5814
0
LINE
8
BLACK
6
CONTINUOUS
10
83.59
20
-82.5814
11
83.6076
21
-82.5389
0
LINE
8
BLACK
6
CONTINUOUS
10
83.6076
20
-82.5389
11
83.65
21
-82.5214
0
LINE
8
BLACK
6
CONTINUOUS
10
83.65
20
-82.5214
11
83.6924
21
-82.5389
0
LINE
8
BLACK
6
CONTINUOUS
10
84.4524
20
-82.5389
11
84.47
21
-82.5814
0
LINE
8
BLACK
6
CONTINUOUS
10
84.47
20
-82.5814
11
84.47
21
-82.8886
0
LINE
8
BLACK
6
CONTINUOUS
10
84.47
20
-82.8886
11
84.4524
21
-82.9311
0
LINE
8
BLACK
6
CONTINUOUS
10
84.4524
20
-82.9311
11
84.41
21
-82.9486
0
LINE
8
BLACK
6
CONTINUOUS
10
84.41
20
-82.9486
11
84.3676
21
-82.9311
0
LINE
8
BLACK
6
CONTINUOUS
10
84.3676
20
-82.9311
11
84.35
21
-82.8886
0
LINE
8
BLACK
6
CONTINUOUS
10
84.35
20
-82.8886
11
84.35
21
-82.5814
0
LINE
8
BLACK
6
CONTINUOUS
10
84.35
20
-82.5814
11
84.3676
21
-82.5389
0
LINE
8
BLACK
6
CONTINUOUS
10
84.3676
20
-82.5389
11
84.41
21
-82.5214
0
LINE
8
BLACK
6
CONTINUOUS
10
84.41
20
-82.5214
11
84.4524
21
-82.5389
0
LINE
8
BLACK
6
CONTINUOUS
10
85.6824
20
-82.5389
11
85.7
21
-82.5814
0
LINE
8
BLACK
6
CONTINUOUS
10
85.7
20
-82.5814
11
85.7
21
-82.8886
0
LINE
8
BLACK
6
CONTINUOUS
10
85.7
20
-82.8886
11
85.6824
21
-82.9311
0
LINE
8
BLACK
6
CONTINUOUS
10
85.6824
20
-82.9311
11
85.64
21
-82.9486
0
LINE
8
BLACK
6
CONTINUOUS
10
85.64
20
-82.9486
11
85.5976
21
-82.9311
0
LINE
8
BLACK
6
CONTINUOUS
10
85.5976
20
-82.9311
11
85.58
21
-82.8886
0
LINE
8
BLACK
6
CONTINUOUS
10
85.58
20
-82.8886
11
85.58
21
-82.5814
0
LINE
8
BLACK
6
CONTINUOUS
10
85.58
20
-82.5814
11
85.5976
21
-82.5389
0
LINE
8
BLACK
6
CONTINUOUS
10
85.5976
20
-82.5389
11
85.64
21
-82.5214
0
LINE
8
BLACK
6
CONTINUOUS
10
85.64
20
-82.5214
11
85.6824
21
-82.5389
0
LINE
8
BLACK
6
CONTINUOUS
10
86.4424
20
-82.5389
11
86.46
21
-82.5814
0
LINE
8
BLACK
6
CONTINUOUS
10
86.46
20
-82.5814
11
86.46
21
-82.8886
0
LINE
8
BLACK
6
CONTINUOUS
10
86.46
20
-82.8886
11
86.4424
21
-82.9311
0
LINE
8
BLACK
6
CONTINUOUS
10
86.4424
20
-82.9311
11
86.4
21
-82.9486
0
LINE
8
BLACK
6
CONTINUOUS
10
86.4
20
-82.9486
11
86.3576
21
-82.9311
0
LINE
8
BLACK
6
CONTINUOUS
10
86.3576
20
-82.9311
11
86.34
21
-82.8886
0
LINE
8
BLACK
6
CONTINUOUS
10
86.34
20
-82.8886
11
86.34
21
-82.5814
0
LINE
8
BLACK
6
CONTINUOUS
10
86.34
20
-82.5814
11
86.3576
21
-82.5389
0
LINE
8
BLACK
6
CONTINUOUS
10
86.3576
20
-82.5389
11
86.4
21
-82.5214
0
LINE
8
BLACK
6
CONTINUOUS
10
86.4
20
-82.5214
11
86.4424
21
-82.5389
0
LINE
8
BLACK
6
CONTINUOUS
10
87.6724
20
-82.5389
11
87.69
21
-82.5814
0
LINE
8
BLACK
6
CONTINUOUS
10
87.69
20
-82.5814
11
87.69
21
-82.8886
0
LINE
8
BLACK
6
CONTINUOUS
10
87.69
20
-82.8886
11
87.6724
21
-82.9311
0
LINE
8
BLACK
6
CONTINUOUS
10
87.6724
20
-82.9311
11
87.63
21
-82.9486
0
LINE
8
BLACK
6
CONTINUOUS
10
87.63
20
-82.9486
11
87.5876
21
-82.9311
0
LINE
8
BLACK
6
CONTINUOUS
10
87.5876
20
-82.9311
11
87.57
21
-82.8886
0
LINE
8
BLACK
6
CONTINUOUS
10
87.57
20
-82.8886
11
87.57
21
-82.5814
0
LINE
8
BLACK
6
CONTINUOUS
10
87.57
20
-82.5814
11
87.5876
21
-82.5389
0
LINE
8
BLACK
6
CONTINUOUS
10
87.5876
20
-82.5389
11
87.63
21
-82.5214
0
LINE
8
BLACK
6
CONTINUOUS
10
87.63
20
-82.5214
11
87.6724
21
-82.5389
0
LINE
8
BLACK
6
CONTINUOUS
10
88.4324
20
-82.5389
11
88.45
21
-82.5814
0
LINE
8
BLACK
6
CONTINUOUS
10
88.45
20
-82.5814
11
88.45
21
-82.8886
0
LINE
8
BLACK
6
CONTINUOUS
10
88.45
20
-82.8886
11
88.4324
21
-82.9311
0
LINE
8
BLACK
6
CONTINUOUS
10
88.4324
20
-82.9311
11
88.39
21
-82.9486
0
LINE
8
BLACK
6
CONTINUOUS
10
88.39
20
-82.9486
11
88.3476
21
-82.9311
0
LINE
8
BLACK
6
CONTINUOUS
10
88.3476
20
-82.9311
11
88.33
21
-82.8886
0
LINE
8
BLACK
6
CONTINUOUS
10
88.33
20
-82.8886
11
88.33
21
-82.5814
0
LINE
8
BLACK
6
CONTINUOUS
10
88.33
20
-82.5814
11
88.3476
21
-82.5389
0
LINE
8
BLACK
6
CONTINUOUS
10
88.3476
20
-82.5389
11
88.39
21
-82.5214
0
LINE
8
BLACK
6
CONTINUOUS
10
88.39
20
-82.5214
11
88.4324
21
-82.5389
0
LINE
8
BLACK
6
CONTINUOUS
10
74.4203
20
-82.3776
11
74.4378
21
-82.42
0
LINE
8
BLACK
6
CONTINUOUS
10
74.4378
20
-82.42
11
74.4203
21
-82.4624
0
LINE
8
BLACK
6
CONTINUOUS
10
74.4203
20
-82.4624
11
74.3778
21
-82.48
0
LINE
8
BLACK
6
CONTINUOUS
10
74.3778
20
-82.48
11
74.1622
21
-82.48
0
LINE
8
BLACK
6
CONTINUOUS
10
74.1622
20
-82.48
11
74.1197
21
-82.4624
0
LINE
8
BLACK
6
CONTINUOUS
10
74.1197
20
-82.4624
11
74.1022
21
-82.42
0
LINE
8
BLACK
6
CONTINUOUS
10
74.1022
20
-82.42
11
74.1197
21
-82.3776
0
LINE
8
BLACK
6
CONTINUOUS
10
74.1197
20
-82.3776
11
74.1622
21
-82.36
0
LINE
8
BLACK
6
CONTINUOUS
10
74.1622
20
-82.36
11
74.3778
21
-82.36
0
LINE
8
BLACK
6
CONTINUOUS
10
74.3778
20
-82.36
11
74.4203
21
-82.3776
0
LINE
8
BLACK
6
CONTINUOUS
10
77.2903
20
-82.3776
11
77.3078
21
-82.42
0
LINE
8
BLACK
6
CONTINUOUS
10
77.3078
20
-82.42
11
77.2903
21
-82.4624
0
LINE
8
BLACK
6
CONTINUOUS
10
77.2903
20
-82.4624
11
77.2478
21
-82.48
0
LINE
8
BLACK
6
CONTINUOUS
10
77.2478
20
-82.48
11
77.0322
21
-82.48
0
LINE
8
BLACK
6
CONTINUOUS
10
77.0322
20
-82.48
11
76.9897
21
-82.4624
0
LINE
8
BLACK
6
CONTINUOUS
10
76.9897
20
-82.4624
11
76.9722
21
-82.42
0
LINE
8
BLACK
6
CONTINUOUS
10
76.9722
20
-82.42
11
76.9897
21
-82.3776
0
LINE
8
BLACK
6
CONTINUOUS
10
76.9897
20
-82.3776
11
77.0322
21
-82.36
0
LINE
8
BLACK
6
CONTINUOUS
10
77.0322
20
-82.36
11
77.2478
21
-82.36
0
LINE
8
BLACK
6
CONTINUOUS
10
77.2478
20
-82.36
11
77.2903
21
-82.3776
0
LINE
8
BLACK
6
CONTINUOUS
10
68.6924
20
-81.4847
11
68.71
21
-81.5272
0
LINE
8
BLACK
6
CONTINUOUS
10
68.71
20
-81.5272
11
68.71
21
-81.7428
0
LINE
8
BLACK
6
CONTINUOUS
10
68.71
20
-81.7428
11
68.6924
21
-81.7853
0
LINE
8
BLACK
6
CONTINUOUS
10
68.6924
20
-81.7853
11
68.65
21
-81.8028
0
LINE
8
BLACK
6
CONTINUOUS
10
68.65
20
-81.8028
11
68.6076
21
-81.7853
0
LINE
8
BLACK
6
CONTINUOUS
10
68.6076
20
-81.7853
11
68.59
21
-81.7428
0
LINE
8
BLACK
6
CONTINUOUS
10
68.59
20
-81.7428
11
68.59
21
-81.5272
0
LINE
8
BLACK
6
CONTINUOUS
10
68.59
20
-81.5272
11
68.6076
21
-81.4847
0
LINE
8
BLACK
6
CONTINUOUS
10
68.6076
20
-81.4847
11
68.65
21
-81.4672
0
LINE
8
BLACK
6
CONTINUOUS
10
68.65
20
-81.4672
11
68.6924
21
-81.4847
0
LINE
8
BLACK
6
CONTINUOUS
10
69.4124
20
-81.4847
11
69.43
21
-81.5272
0
LINE
8
BLACK
6
CONTINUOUS
10
69.43
20
-81.5272
11
69.43
21
-81.7428
0
LINE
8
BLACK
6
CONTINUOUS
10
69.43
20
-81.7428
11
69.4124
21
-81.7853
0
LINE
8
BLACK
6
CONTINUOUS
10
69.4124
20
-81.7853
11
69.37
21
-81.8028
0
LINE
8
BLACK
6
CONTINUOUS
10
69.37
20
-81.8028
11
69.3276
21
-81.7853
0
LINE
8
BLACK
6
CONTINUOUS
10
69.3276
20
-81.7853
11
69.31
21
-81.7428
0
LINE
8
BLACK
6
CONTINUOUS
10
69.31
20
-81.7428
11
69.31
21
-81.5272
0
LINE
8
BLACK
6
CONTINUOUS
10
69.31
20
-81.5272
11
69.3276
21
-81.4847
0
LINE
8
BLACK
6
CONTINUOUS
10
69.3276
20
-81.4847
11
69.37
21
-81.4672
0
LINE
8
BLACK
6
CONTINUOUS
10
69.37
20
-81.4672
11
69.4124
21
-81.4847
0
LINE
8
BLACK
6
CONTINUOUS
10
70.6624
20
-81.4847
11
70.68
21
-81.5272
0
LINE
8
BLACK
6
CONTINUOUS
10
70.68
20
-81.5272
11
70.68
21
-81.7428
0
LINE
8
BLACK
6
CONTINUOUS
10
70.68
20
-81.7428
11
70.6624
21
-81.7853
0
LINE
8
BLACK
6
CONTINUOUS
10
70.6624
20
-81.7853
11
70.62
21
-81.8028
0
LINE
8
BLACK
6
CONTINUOUS
10
70.62
20
-81.8028
11
70.5776
21
-81.7853
0
LINE
8
BLACK
6
CONTINUOUS
10
70.5776
20
-81.7853
11
70.56
21
-81.7428
0
LINE
8
BLACK
6
CONTINUOUS
10
70.56
20
-81.7428
11
70.56
21
-81.5272
0
LINE
8
BLACK
6
CONTINUOUS
10
70.56
20
-81.5272
11
70.5776
21
-81.4847
0
LINE
8
BLACK
6
CONTINUOUS
10
70.5776
20
-81.4847
11
70.62
21
-81.4672
0
LINE
8
BLACK
6
CONTINUOUS
10
70.62
20
-81.4672
11
70.6624
21
-81.4847
0
LINE
8
BLACK
6
CONTINUOUS
10
71.3824
20
-81.4847
11
71.4
21
-81.5272
0
LINE
8
BLACK
6
CONTINUOUS
10
71.4
20
-81.5272
11
71.4
21
-81.7428
0
LINE
8
BLACK
6
CONTINUOUS
10
71.4
20
-81.7428
11
71.3824
21
-81.7853
0
LINE
8
BLACK
6
CONTINUOUS
10
71.3824
20
-81.7853
11
71.34
21
-81.8028
0
LINE
8
BLACK
6
CONTINUOUS
10
71.34
20
-81.8028
11
71.2976
21
-81.7853
0
LINE
8
BLACK
6
CONTINUOUS
10
71.2976
20
-81.7853
11
71.28
21
-81.7428
0
LINE
8
BLACK
6
CONTINUOUS
10
71.28
20
-81.7428
11
71.28
21
-81.5272
0
LINE
8
BLACK
6
CONTINUOUS
10
71.28
20
-81.5272
11
71.2976
21
-81.4847
0
LINE
8
BLACK
6
CONTINUOUS
10
71.2976
20
-81.4847
11
71.34
21
-81.4672
0
LINE
8
BLACK
6
CONTINUOUS
10
71.34
20
-81.4672
11
71.3824
21
-81.4847
0
LINE
8
BLACK
6
CONTINUOUS
10
64.1824
20
-80.8226
11
64.2
21
-80.865
0
LINE
8
BLACK
6
CONTINUOUS
10
64.2
20
-80.865
11
64.2
21
-81.54
0
LINE
8
BLACK
6
CONTINUOUS
10
64.2
20
-81.54
11
64.1824
21
-81.5824
0
LINE
8
BLACK
6
CONTINUOUS
10
64.1824
20
-81.5824
11
64.14
21
-81.6
0
LINE
8
BLACK
6
CONTINUOUS
10
64.14
20
-81.6
11
64.0976
21
-81.5824
0
LINE
8
BLACK
6
CONTINUOUS
10
64.0976
20
-81.5824
11
64.08
21
-81.54
0
LINE
8
BLACK
6
CONTINUOUS
10
64.08
20
-81.54
11
64.08
21
-80.865
0
LINE
8
BLACK
6
CONTINUOUS
10
64.08
20
-80.865
11
64.0976
21
-80.8226
0
LINE
8
BLACK
6
CONTINUOUS
10
64.0976
20
-80.8226
11
64.14
21
-80.805
0
LINE
8
BLACK
6
CONTINUOUS
10
64.14
20
-80.805
11
64.1824
21
-80.8226
0
LINE
8
BLACK
6
CONTINUOUS
10
67.36
20
-80.805
11
67.4024
21
-80.8226
0
LINE
8
BLACK
6
CONTINUOUS
10
67.4024
20
-80.8226
11
67.42
21
-80.865
0
LINE
8
BLACK
6
CONTINUOUS
10
67.42
20
-80.865
11
67.42
21
-81.54
0
LINE
8
BLACK
6
CONTINUOUS
10
67.42
20
-81.54
11
67.4024
21
-81.5824
0
LINE
8
BLACK
6
CONTINUOUS
10
67.4024
20
-81.5824
11
67.36
21
-81.6
0
LINE
8
BLACK
6
CONTINUOUS
10
67.36
20
-81.6
11
67.3176
21
-81.5824
0
LINE
8
BLACK
6
CONTINUOUS
10
67.3176
20
-81.5824
11
67.3
21
-81.54
0
LINE
8
BLACK
6
CONTINUOUS
10
67.3
20
-81.54
11
67.3
21
-80.925
0
LINE
8
BLACK
6
CONTINUOUS
10
67.3
20
-80.925
11
67.185
21
-80.925
0
LINE
8
BLACK
6
CONTINUOUS
10
67.185
20
-80.925
11
67.1426
21
-80.9074
0
LINE
8
BLACK
6
CONTINUOUS
10
67.1426
20
-80.9074
11
67.125
21
-80.865
0
LINE
8
BLACK
6
CONTINUOUS
10
67.125
20
-80.865
11
67.1426
21
-80.8226
0
LINE
8
BLACK
6
CONTINUOUS
10
67.1426
20
-80.8226
11
67.185
21
-80.805
0
LINE
8
BLACK
6
CONTINUOUS
10
67.185
20
-80.805
11
67.36
21
-80.805
0
LINE
8
BLACK
6
CONTINUOUS
10
74.4203
20
-81.1276
11
74.4378
21
-81.17
0
LINE
8
BLACK
6
CONTINUOUS
10
74.4378
20
-81.17
11
74.4203
21
-81.2124
0
LINE
8
BLACK
6
CONTINUOUS
10
74.4203
20
-81.2124
11
74.3778
21
-81.23
0
LINE
8
BLACK
6
CONTINUOUS
10
74.3778
20
-81.23
11
74.1622
21
-81.23
0
LINE
8
BLACK
6
CONTINUOUS
10
74.1622
20
-81.23
11
74.1197
21
-81.2124
0
LINE
8
BLACK
6
CONTINUOUS
10
74.1197
20
-81.2124
11
74.1022
21
-81.17
0
LINE
8
BLACK
6
CONTINUOUS
10
74.1022
20
-81.17
11
74.1197
21
-81.1276
0
LINE
8
BLACK
6
CONTINUOUS
10
74.1197
20
-81.1276
11
74.1622
21
-81.11
0
LINE
8
BLACK
6
CONTINUOUS
10
74.1622
20
-81.11
11
74.3778
21
-81.11
0
LINE
8
BLACK
6
CONTINUOUS
10
74.3778
20
-81.11
11
74.4203
21
-81.1276
0
LINE
8
BLACK
6
CONTINUOUS
10
77.2903
20
-81.1276
11
77.3078
21
-81.17
0
LINE
8
BLACK
6
CONTINUOUS
10
77.3078
20
-81.17
11
77.2903
21
-81.2124
0
LINE
8
BLACK
6
CONTINUOUS
10
77.2903
20
-81.2124
11
77.2478
21
-81.23
0
LINE
8
BLACK
6
CONTINUOUS
10
77.2478
20
-81.23
11
77.0322
21
-81.23
0
LINE
8
BLACK
6
CONTINUOUS
10
77.0322
20
-81.23
11
76.9897
21
-81.2124
0
LINE
8
BLACK
6
CONTINUOUS
10
76.9897
20
-81.2124
11
76.9722
21
-81.17
0
LINE
8
BLACK
6
CONTINUOUS
10
76.9722
20
-81.17
11
76.9897
21
-81.1276
0
LINE
8
BLACK
6
CONTINUOUS
10
76.9897
20
-81.1276
11
77.0322
21
-81.11
0
LINE
8
BLACK
6
CONTINUOUS
10
77.0322
20
-81.11
11
77.2478
21
-81.11
0
LINE
8
BLACK
6
CONTINUOUS
10
77.2478
20
-81.11
11
77.2903
21
-81.1276
0
LINE
8
BLACK
6
CONTINUOUS
10
84.8924
20
-76.6126
11
84.91
21
-76.655
0
LINE
8
BLACK
6
CONTINUOUS
10
84.91
20
-76.655
11
84.91
21
-80.595
0
LINE
8
BLACK
6
CONTINUOUS
10
84.91
20
-80.595
11
88.15
21
-80.595
0
LINE
8
BLACK
6
CONTINUOUS
10
88.15
20
-80.595
11
88.1924
21
-80.6126
0
LINE
8
BLACK
6
CONTINUOUS
10
88.1924
20
-80.6126
11
88.21
21
-80.655
0
LINE
8
BLACK
6
CONTINUOUS
10
88.21
20
-80.655
11
88.1924
21
-80.6974
0
LINE
8
BLACK
6
CONTINUOUS
10
88.1924
20
-80.6974
11
88.15
21
-80.715
0
LINE
8
BLACK
6
CONTINUOUS
10
88.15
20
-80.715
11
84.85
21
-80.715
0
LINE
8
BLACK
6
CONTINUOUS
10
84.85
20
-80.715
11
84.8076
21
-80.6974
0
LINE
8
BLACK
6
CONTINUOUS
10
84.8076
20
-80.6974
11
84.79
21
-80.655
0
LINE
8
BLACK
6
CONTINUOUS
10
84.79
20
-80.655
11
84.79
21
-76.655
0
LINE
8
BLACK
6
CONTINUOUS
10
84.79
20
-76.655
11
84.8076
21
-76.6126
0
LINE
8
BLACK
6
CONTINUOUS
10
84.8076
20
-76.6126
11
84.85
21
-76.595
0
LINE
8
BLACK
6
CONTINUOUS
10
84.85
20
-76.595
11
84.8924
21
-76.6126
0
LINE
8
BLACK
6
CONTINUOUS
10
74.4203
20
-80.4076
11
74.4378
21
-80.45
0
LINE
8
BLACK
6
CONTINUOUS
10
74.4378
20
-80.45
11
74.4203
21
-80.4924
0
LINE
8
BLACK
6
CONTINUOUS
10
74.4203
20
-80.4924
11
74.3778
21
-80.51
0
LINE
8
BLACK
6
CONTINUOUS
10
74.3778
20
-80.51
11
74.1622
21
-80.51
0
LINE
8
BLACK
6
CONTINUOUS
10
74.1622
20
-80.51
11
74.1197
21
-80.4924
0
LINE
8
BLACK
6
CONTINUOUS
10
74.1197
20
-80.4924
11
74.1022
21
-80.45
0
LINE
8
BLACK
6
CONTINUOUS
10
74.1022
20
-80.45
11
74.1197
21
-80.4076
0
LINE
8
BLACK
6
CONTINUOUS
10
74.1197
20
-80.4076
11
74.1622
21
-80.39
0
LINE
8
BLACK
6
CONTINUOUS
10
74.1622
20
-80.39
11
74.3778
21
-80.39
0
LINE
8
BLACK
6
CONTINUOUS
10
74.3778
20
-80.39
11
74.4203
21
-80.4076
0
LINE
8
BLACK
6
CONTINUOUS
10
77.2903
20
-80.4076
11
77.3078
21
-80.45
0
LINE
8
BLACK
6
CONTINUOUS
10
77.3078
20
-80.45
11
77.2903
21
-80.4924
0
LINE
8
BLACK
6
CONTINUOUS
10
77.2903
20
-80.4924
11
77.2478
21
-80.51
0
LINE
8
BLACK
6
CONTINUOUS
10
77.2478
20
-80.51
11
77.0322
21
-80.51
0
LINE
8
BLACK
6
CONTINUOUS
10
77.0322
20
-80.51
11
76.9897
21
-80.4924
0
LINE
8
BLACK
6
CONTINUOUS
10
76.9897
20
-80.4924
11
76.9722
21
-80.45
0
LINE
8
BLACK
6
CONTINUOUS
10
76.9722
20
-80.45
11
76.9897
21
-80.4076
0
LINE
8
BLACK
6
CONTINUOUS
10
76.9897
20
-80.4076
11
77.0322
21
-80.39
0
LINE
8
BLACK
6
CONTINUOUS
10
77.0322
20
-80.39
11
77.2478
21
-80.39
0
LINE
8
BLACK
6
CONTINUOUS
10
77.2478
20
-80.39
11
77.2903
21
-80.4076
0
LINE
8
BLACK
6
CONTINUOUS
10
89.7824
20
-79.4976
11
89.8
21
-79.54
0
LINE
8
BLACK
6
CONTINUOUS
10
89.8
20
-79.54
11
89.8
21
-80.205
0
LINE
8
BLACK
6
CONTINUOUS
10
89.8
20
-80.205
11
90.465
21
-80.205
0
LINE
8
BLACK
6
CONTINUOUS
10
90.465
20
-80.205
11
90.5074
21
-80.2226
0
LINE
8
BLACK
6
CONTINUOUS
10
90.5074
20
-80.2226
11
90.525
21
-80.265
0
LINE
8
BLACK
6
CONTINUOUS
10
90.525
20
-80.265
11
90.5074
21
-80.3074
0
LINE
8
BLACK
6
CONTINUOUS
10
90.5074
20
-80.3074
11
90.465
21
-80.325
0
LINE
8
BLACK
6
CONTINUOUS
10
90.465
20
-80.325
11
89.74
21
-80.325
0
LINE
8
BLACK
6
CONTINUOUS
10
89.74
20
-80.325
11
89.6976
21
-80.3074
0
LINE
8
BLACK
6
CONTINUOUS
10
89.6976
20
-80.3074
11
89.68
21
-80.265
0
LINE
8
BLACK
6
CONTINUOUS
10
89.68
20
-80.265
11
89.68
21
-80.265
0
LINE
8
BLACK
6
CONTINUOUS
10
89.68
20
-80.265
11
89.68
21
-79.54
0
LINE
8
BLACK
6
CONTINUOUS
10
89.68
20
-79.54
11
89.6976
21
-79.4976
0
LINE
8
BLACK
6
CONTINUOUS
10
89.6976
20
-79.4976
11
89.74
21
-79.48
0
LINE
8
BLACK
6
CONTINUOUS
10
89.74
20
-79.48
11
89.7824
21
-79.4976
0
LINE
8
BLACK
6
CONTINUOUS
10
94.0024
20
-79.4976
11
94.02
21
-79.54
0
LINE
8
BLACK
6
CONTINUOUS
10
94.02
20
-79.54
11
94.02
21
-80.265
0
LINE
8
BLACK
6
CONTINUOUS
10
94.02
20
-80.265
11
94.0024
21
-80.3074
0
LINE
8
BLACK
6
CONTINUOUS
10
94.0024
20
-80.3074
11
93.96
21
-80.325
0
LINE
8
BLACK
6
CONTINUOUS
10
93.96
20
-80.325
11
93.9176
21
-80.3074
0
LINE
8
BLACK
6
CONTINUOUS
10
93.9176
20
-80.3074
11
93.9
21
-80.265
0
LINE
8
BLACK
6
CONTINUOUS
10
93.9
20
-80.265
11
93.9
21
-79.54
0
LINE
8
BLACK
6
CONTINUOUS
10
93.9
20
-79.54
11
93.9176
21
-79.4976
0
LINE
8
BLACK
6
CONTINUOUS
10
93.9176
20
-79.4976
11
93.96
21
-79.48
0
LINE
8
BLACK
6
CONTINUOUS
10
93.96
20
-79.48
11
94.0024
21
-79.4976
0
LINE
8
BLACK
6
CONTINUOUS
10
82.0774
20
-78.7513
11
82.095
21
-78.7937
0
LINE
8
BLACK
6
CONTINUOUS
10
82.095
20
-78.7937
11
82.095
21
-79.3163
0
LINE
8
BLACK
6
CONTINUOUS
10
82.095
20
-79.3163
11
82.0774
21
-79.3587
0
LINE
8
BLACK
6
CONTINUOUS
10
82.0774
20
-79.3587
11
82.035
21
-79.3763
0
LINE
8
BLACK
6
CONTINUOUS
10
82.035
20
-79.3763
11
81.9926
21
-79.3587
0
LINE
8
BLACK
6
CONTINUOUS
10
81.9926
20
-79.3587
11
81.975
21
-79.3163
0
LINE
8
BLACK
6
CONTINUOUS
10
81.975
20
-79.3163
11
81.975
21
-78.7937
0
LINE
8
BLACK
6
CONTINUOUS
10
81.975
20
-78.7937
11
81.9926
21
-78.7513
0
LINE
8
BLACK
6
CONTINUOUS
10
81.9926
20
-78.7513
11
82.035
21
-78.7337
0
LINE
8
BLACK
6
CONTINUOUS
10
82.035
20
-78.7337
11
82.0774
21
-78.7513
0
LINE
8
BLACK
6
CONTINUOUS
10
83.5474
20
-78.7513
11
83.565
21
-78.7937
0
LINE
8
BLACK
6
CONTINUOUS
10
83.565
20
-78.7937
11
83.565
21
-79.3163
0
LINE
8
BLACK
6
CONTINUOUS
10
83.565
20
-79.3163
11
83.5474
21
-79.3587
0
LINE
8
BLACK
6
CONTINUOUS
10
83.5474
20
-79.3587
11
83.505
21
-79.3763
0
LINE
8
BLACK
6
CONTINUOUS
10
83.505
20
-79.3763
11
83.4626
21
-79.3587
0
LINE
8
BLACK
6
CONTINUOUS
10
83.4626
20
-79.3587
11
83.445
21
-79.3163
0
LINE
8
BLACK
6
CONTINUOUS
10
83.445
20
-79.3163
11
83.445
21
-78.7937
0
LINE
8
BLACK
6
CONTINUOUS
10
83.445
20
-78.7937
11
83.4626
21
-78.7513
0
LINE
8
BLACK
6
CONTINUOUS
10
83.4626
20
-78.7513
11
83.505
21
-78.7337
0
LINE
8
BLACK
6
CONTINUOUS
10
83.505
20
-78.7337
11
83.5474
21
-78.7513
0
LINE
8
BLACK
6
CONTINUOUS
10
74.4203
20
-79.1576
11
74.4378
21
-79.2
0
LINE
8
BLACK
6
CONTINUOUS
10
74.4378
20
-79.2
11
74.4203
21
-79.2424
0
LINE
8
BLACK
6
CONTINUOUS
10
74.4203
20
-79.2424
11
74.3778
21
-79.26
0
LINE
8
BLACK
6
CONTINUOUS
10
74.3778
20
-79.26
11
74.1622
21
-79.26
0
LINE
8
BLACK
6
CONTINUOUS
10
74.1622
20
-79.26
11
74.1197
21
-79.2424
0
LINE
8
BLACK
6
CONTINUOUS
10
74.1197
20
-79.2424
11
74.1022
21
-79.2
0
LINE
8
BLACK
6
CONTINUOUS
10
74.1022
20
-79.2
11
74.1197
21
-79.1576
0
LINE
8
BLACK
6
CONTINUOUS
10
74.1197
20
-79.1576
11
74.1622
21
-79.14
0
LINE
8
BLACK
6
CONTINUOUS
10
74.1622
20
-79.14
11
74.3778
21
-79.14
0
LINE
8
BLACK
6
CONTINUOUS
10
74.3778
20
-79.14
11
74.4203
21
-79.1576
0
LINE
8
BLACK
6
CONTINUOUS
10
77.2903
20
-79.1576
11
77.3078
21
-79.2
0
LINE
8
BLACK
6
CONTINUOUS
10
77.3078
20
-79.2
11
77.2903
21
-79.2424
0
LINE
8
BLACK
6
CONTINUOUS
10
77.2903
20
-79.2424
11
77.2478
21
-79.26
0
LINE
8
BLACK
6
CONTINUOUS
10
77.2478
20
-79.26
11
77.0322
21
-79.26
0
LINE
8
BLACK
6
CONTINUOUS
10
77.0322
20
-79.26
11
76.9897
21
-79.2424
0
LINE
8
BLACK
6
CONTINUOUS
10
76.9897
20
-79.2424
11
76.9722
21
-79.2
0
LINE
8
BLACK
6
CONTINUOUS
10
76.9722
20
-79.2
11
76.9897
21
-79.1576
0
LINE
8
BLACK
6
CONTINUOUS
10
76.9897
20
-79.1576
11
77.0322
21
-79.14
0
LINE
8
BLACK
6
CONTINUOUS
10
77.0322
20
-79.14
11
77.2478
21
-79.14
0
LINE
8
BLACK
6
CONTINUOUS
10
77.2478
20
-79.14
11
77.2903
21
-79.1576
0
LINE
8
BLACK
6
CONTINUOUS
10
74.4203
20
-78.4376
11
74.4378
21
-78.48
0
LINE
8
BLACK
6
CONTINUOUS
10
74.4378
20
-78.48
11
74.4203
21
-78.5224
0
LINE
8
BLACK
6
CONTINUOUS
10
74.4203
20
-78.5224
11
74.3778
21
-78.54
0
LINE
8
BLACK
6
CONTINUOUS
10
74.3778
20
-78.54
11
74.1622
21
-78.54
0
LINE
8
BLACK
6
CONTINUOUS
10
74.1622
20
-78.54
11
74.1197
21
-78.5224
0
LINE
8
BLACK
6
CONTINUOUS
10
74.1197
20
-78.5224
11
74.1022
21
-78.48
0
LINE
8
BLACK
6
CONTINUOUS
10
74.1022
20
-78.48
11
74.1197
21
-78.4376
0
LINE
8
BLACK
6
CONTINUOUS
10
74.1197
20
-78.4376
11
74.1622
21
-78.42
0
LINE
8
BLACK
6
CONTINUOUS
10
74.1622
20
-78.42
11
74.3778
21
-78.42
0
LINE
8
BLACK
6
CONTINUOUS
10
74.3778
20
-78.42
11
74.4203
21
-78.4376
0
LINE
8
BLACK
6
CONTINUOUS
10
77.2903
20
-78.4376
11
77.3078
21
-78.48
0
LINE
8
BLACK
6
CONTINUOUS
10
77.3078
20
-78.48
11
77.2903
21
-78.5224
0
LINE
8
BLACK
6
CONTINUOUS
10
77.2903
20
-78.5224
11
77.2478
21
-78.54
0
LINE
8
BLACK
6
CONTINUOUS
10
77.2478
20
-78.54
11
77.0322
21
-78.54
0
LINE
8
BLACK
6
CONTINUOUS
10
77.0322
20
-78.54
11
76.9897
21
-78.5224
0
LINE
8
BLACK
6
CONTINUOUS
10
76.9897
20
-78.5224
11
76.9722
21
-78.48
0
LINE
8
BLACK
6
CONTINUOUS
10
76.9722
20
-78.48
11
76.9897
21
-78.4376
0
LINE
8
BLACK
6
CONTINUOUS
10
76.9897
20
-78.4376
11
77.0322
21
-78.42
0
LINE
8
BLACK
6
CONTINUOUS
10
77.0322
20
-78.42
11
77.2478
21
-78.42
0
LINE
8
BLACK
6
CONTINUOUS
10
77.2478
20
-78.42
11
77.2903
21
-78.4376
0
LINE
8
BLACK
6
CONTINUOUS
10
64.2499
20
-77.9153
11
64.2675
21
-77.9577
0
LINE
8
BLACK
6
CONTINUOUS
10
64.2675
20
-77.9577
11
64.2675
21
-78.4323
0
LINE
8
BLACK
6
CONTINUOUS
10
64.2675
20
-78.4323
11
64.2499
21
-78.4747
0
LINE
8
BLACK
6
CONTINUOUS
10
64.2499
20
-78.4747
11
64.2075
21
-78.4923
0
LINE
8
BLACK
6
CONTINUOUS
10
64.2075
20
-78.4923
11
64.1651
21
-78.4747
0
LINE
8
BLACK
6
CONTINUOUS
10
64.1651
20
-78.4747
11
64.1475
21
-78.4323
0
LINE
8
BLACK
6
CONTINUOUS
10
64.1475
20
-78.4323
11
64.1475
21
-77.9577
0
LINE
8
BLACK
6
CONTINUOUS
10
64.1475
20
-77.9577
11
64.1651
21
-77.9153
0
LINE
8
BLACK
6
CONTINUOUS
10
64.1651
20
-77.9153
11
64.2075
21
-77.8977
0
LINE
8
BLACK
6
CONTINUOUS
10
64.2075
20
-77.8977
11
64.2499
21
-77.9153
0
LINE
8
BLACK
6
CONTINUOUS
10
65.2949
20
-77.9153
11
65.3125
21
-77.9577
0
LINE
8
BLACK
6
CONTINUOUS
10
65.3125
20
-77.9577
11
65.3125
21
-78.4323
0
LINE
8
BLACK
6
CONTINUOUS
10
65.3125
20
-78.4323
11
65.2949
21
-78.4747
0
LINE
8
BLACK
6
CONTINUOUS
10
65.2949
20
-78.4747
11
65.2525
21
-78.4923
0
LINE
8
BLACK
6
CONTINUOUS
10
65.2525
20
-78.4923
11
65.2101
21
-78.4747
0
LINE
8
BLACK
6
CONTINUOUS
10
65.2101
20
-78.4747
11
65.1925
21
-78.4323
0
LINE
8
BLACK
6
CONTINUOUS
10
65.1925
20
-78.4323
11
65.1925
21
-77.9577
0
LINE
8
BLACK
6
CONTINUOUS
10
65.1925
20
-77.9577
11
65.2101
21
-77.9153
0
LINE
8
BLACK
6
CONTINUOUS
10
65.2101
20
-77.9153
11
65.2525
21
-77.8977
0
LINE
8
BLACK
6
CONTINUOUS
10
65.2525
20
-77.8977
11
65.2949
21
-77.9153
0
LINE
8
BLACK
6
CONTINUOUS
10
66.7599
20
-77.9153
11
66.7775
21
-77.9577
0
LINE
8
BLACK
6
CONTINUOUS
10
66.7775
20
-77.9577
11
66.7775
21
-78.4323
0
LINE
8
BLACK
6
CONTINUOUS
10
66.7775
20
-78.4323
11
66.7599
21
-78.4747
0
LINE
8
BLACK
6
CONTINUOUS
10
66.7599
20
-78.4747
11
66.7175
21
-78.4923
0
LINE
8
BLACK
6
CONTINUOUS
10
66.7175
20
-78.4923
11
66.6751
21
-78.4747
0
LINE
8
BLACK
6
CONTINUOUS
10
66.6751
20
-78.4747
11
66.6575
21
-78.4323
0
LINE
8
BLACK
6
CONTINUOUS
10
66.6575
20
-78.4323
11
66.6575
21
-77.9577
0
LINE
8
BLACK
6
CONTINUOUS
10
66.6575
20
-77.9577
11
66.6751
21
-77.9153
0
LINE
8
BLACK
6
CONTINUOUS
10
66.6751
20
-77.9153
11
66.7175
21
-77.8977
0
LINE
8
BLACK
6
CONTINUOUS
10
66.7175
20
-77.8977
11
66.7599
21
-77.9153
0
LINE
8
BLACK
6
CONTINUOUS
10
67.8049
20
-77.9153
11
67.8225
21
-77.9577
0
LINE
8
BLACK
6
CONTINUOUS
10
67.8225
20
-77.9577
11
67.8225
21
-78.4323
0
LINE
8
BLACK
6
CONTINUOUS
10
67.8225
20
-78.4323
11
67.8049
21
-78.4747
0
LINE
8
BLACK
6
CONTINUOUS
10
67.8049
20
-78.4747
11
67.7625
21
-78.4923
0
LINE
8
BLACK
6
CONTINUOUS
10
67.7625
20
-78.4923
11
67.7201
21
-78.4747
0
LINE
8
BLACK
6
CONTINUOUS
10
67.7201
20
-78.4747
11
67.7025
21
-78.4323
0
LINE
8
BLACK
6
CONTINUOUS
10
67.7025
20
-78.4323
11
67.7025
21
-77.9577
0
LINE
8
BLACK
6
CONTINUOUS
10
67.7025
20
-77.9577
11
67.7201
21
-77.9153
0
LINE
8
BLACK
6
CONTINUOUS
10
67.7201
20
-77.9153
11
67.7625
21
-77.8977
0
LINE
8
BLACK
6
CONTINUOUS
10
67.7625
20
-77.8977
11
67.8049
21
-77.9153
0
LINE
8
BLACK
6
CONTINUOUS
10
90.5074
20
-76.0026
11
90.525
21
-76.045
0
LINE
8
BLACK
6
CONTINUOUS
10
90.525
20
-76.045
11
90.5074
21
-76.0874
0
LINE
8
BLACK
6
CONTINUOUS
10
90.5074
20
-76.0874
11
90.465
21
-76.105
0
LINE
8
BLACK
6
CONTINUOUS
10
90.465
20
-76.105
11
89.8
21
-76.105
0
LINE
8
BLACK
6
CONTINUOUS
10
89.8
20
-76.105
11
89.8
21
-76.77
0
LINE
8
BLACK
6
CONTINUOUS
10
89.8
20
-76.77
11
89.7824
21
-76.8124
0
LINE
8
BLACK
6
CONTINUOUS
10
89.7824
20
-76.8124
11
89.74
21
-76.83
0
LINE
8
BLACK
6
CONTINUOUS
10
89.74
20
-76.83
11
89.6976
21
-76.8124
0
LINE
8
BLACK
6
CONTINUOUS
10
89.6976
20
-76.8124
11
89.68
21
-76.77
0
LINE
8
BLACK
6
CONTINUOUS
10
89.68
20
-76.77
11
89.68
21
-76.045
0
LINE
8
BLACK
6
CONTINUOUS
10
89.68
20
-76.045
11
89.6976
21
-76.0026
0
LINE
8
BLACK
6
CONTINUOUS
10
89.6976
20
-76.0026
11
89.74
21
-75.985
0
LINE
8
BLACK
6
CONTINUOUS
10
89.74
20
-75.985
11
90.465
21
-75.985
0
LINE
8
BLACK
6
CONTINUOUS
10
90.465
20
-75.985
11
90.5074
21
-76.0026
0
LINE
8
BLACK
6
CONTINUOUS
10
93.96
20
-75.985
11
94.0024
21
-76.0026
0
LINE
8
BLACK
6
CONTINUOUS
10
94.0024
20
-76.0026
11
94.02
21
-76.045
0
LINE
8
BLACK
6
CONTINUOUS
10
94.02
20
-76.045
11
94.02
21
-76.77
0
LINE
8
BLACK
6
CONTINUOUS
10
94.02
20
-76.77
11
94.0024
21
-76.8124
0
LINE
8
BLACK
6
CONTINUOUS
10
94.0024
20
-76.8124
11
93.96
21
-76.83
0
LINE
8
BLACK
6
CONTINUOUS
10
93.96
20
-76.83
11
93.9176
21
-76.8124
0
LINE
8
BLACK
6
CONTINUOUS
10
93.9176
20
-76.8124
11
93.9
21
-76.77
0
LINE
8
BLACK
6
CONTINUOUS
10
93.9
20
-76.77
11
93.9
21
-76.105
0
LINE
8
BLACK
6
CONTINUOUS
10
93.9
20
-76.105
11
93.235
21
-76.105
0
LINE
8
BLACK
6
CONTINUOUS
10
93.235
20
-76.105
11
93.1926
21
-76.0874
0
LINE
8
BLACK
6
CONTINUOUS
10
93.1926
20
-76.0874
11
93.175
21
-76.045
0
LINE
8
BLACK
6
CONTINUOUS
10
93.175
20
-76.045
11
93.1926
21
-76.0026
0
LINE
8
BLACK
6
CONTINUOUS
10
93.1926
20
-76.0026
11
93.235
21
-75.985
0
LINE
8
BLACK
6
CONTINUOUS
10
93.235
20
-75.985
11
93.96
21
-75.985
0
LINE
8
BLACK
6
CONTINUOUS
10
67.7974
20
-70.1801
11
67.815
21
-70.2225
0
LINE
8
BLACK
6
CONTINUOUS
10
67.815
20
-70.2225
11
67.7974
21
-70.2649
0
LINE
8
BLACK
6
CONTINUOUS
10
67.7974
20
-70.2649
11
67.755
21
-70.2825
0
LINE
8
BLACK
6
CONTINUOUS
10
67.755
20
-70.2825
11
66.405
21
-70.2825
0
LINE
8
BLACK
6
CONTINUOUS
10
66.405
20
-70.2825
11
66.3626
21
-70.2649
0
LINE
8
BLACK
6
CONTINUOUS
10
66.3626
20
-70.2649
11
66.345
21
-70.2225
0
LINE
8
BLACK
6
CONTINUOUS
10
66.345
20
-70.2225
11
66.3626
21
-70.1801
0
LINE
8
BLACK
6
CONTINUOUS
10
66.3626
20
-70.1801
11
66.405
21
-70.1625
0
LINE
8
BLACK
6
CONTINUOUS
10
66.405
20
-70.1625
11
67.755
21
-70.1625
0
LINE
8
BLACK
6
CONTINUOUS
10
67.755
20
-70.1625
11
67.7974
21
-70.1801
0
LINE
8
BLACK
6
CONTINUOUS
10
67.7974
20
-68.4301
11
67.815
21
-68.4725
0
LINE
8
BLACK
6
CONTINUOUS
10
67.815
20
-68.4725
11
67.7974
21
-68.5149
0
LINE
8
BLACK
6
CONTINUOUS
10
67.7974
20
-68.5149
11
67.755
21
-68.5325
0
LINE
8
BLACK
6
CONTINUOUS
10
67.755
20
-68.5325
11
66.405
21
-68.5325
0
LINE
8
BLACK
6
CONTINUOUS
10
66.405
20
-68.5325
11
66.3626
21
-68.5149
0
LINE
8
BLACK
6
CONTINUOUS
10
66.3626
20
-68.5149
11
66.345
21
-68.4725
0
LINE
8
BLACK
6
CONTINUOUS
10
66.345
20
-68.4725
11
66.3626
21
-68.4301
0
LINE
8
BLACK
6
CONTINUOUS
10
66.3626
20
-68.4301
11
66.405
21
-68.4125
0
LINE
8
BLACK
6
CONTINUOUS
10
66.405
20
-68.4125
11
67.755
21
-68.4125
0
LINE
8
BLACK
6
CONTINUOUS
10
67.755
20
-68.4125
11
67.7974
21
-68.4301
0
LINE
8
BLACK
6
CONTINUOUS
10
95.8174
20
-67.5626
11
95.835
21
-67.605
0
LINE
8
BLACK
6
CONTINUOUS
10
95.835
20
-67.605
11
95.835
21
-68.02
0
LINE
8
BLACK
6
CONTINUOUS
10
95.835
20
-68.02
11
96.25
21
-68.02
0
LINE
8
BLACK
6
CONTINUOUS
10
96.25
20
-68.02
11
96.2924
21
-68.0376
0
LINE
8
BLACK
6
CONTINUOUS
10
96.2924
20
-68.0376
11
96.31
21
-68.08
0
LINE
8
BLACK
6
CONTINUOUS
10
96.31
20
-68.08
11
96.2924
21
-68.1224
0
LINE
8
BLACK
6
CONTINUOUS
10
96.2924
20
-68.1224
11
96.25
21
-68.14
0
LINE
8
BLACK
6
CONTINUOUS
10
96.25
20
-68.14
11
95.775
21
-68.14
0
LINE
8
BLACK
6
CONTINUOUS
10
95.775
20
-68.14
11
95.7326
21
-68.1224
0
LINE
8
BLACK
6
CONTINUOUS
10
95.7326
20
-68.1224
11
95.715
21
-68.08
0
LINE
8
BLACK
6
CONTINUOUS
10
95.715
20
-68.08
11
95.715
21
-67.605
0
LINE
8
BLACK
6
CONTINUOUS
10
95.715
20
-67.605
11
95.7326
21
-67.5626
0
LINE
8
BLACK
6
CONTINUOUS
10
95.7326
20
-67.5626
11
95.775
21
-67.545
0
LINE
8
BLACK
6
CONTINUOUS
10
95.775
20
-67.545
11
95.8174
21
-67.5626
0
LINE
8
BLACK
6
CONTINUOUS
10
99.0374
20
-67.5626
11
99.055
21
-67.605
0
LINE
8
BLACK
6
CONTINUOUS
10
99.055
20
-67.605
11
99.055
21
-68.08
0
LINE
8
BLACK
6
CONTINUOUS
10
99.055
20
-68.08
11
99.0374
21
-68.1224
0
LINE
8
BLACK
6
CONTINUOUS
10
99.0374
20
-68.1224
11
98.995
21
-68.14
0
LINE
8
BLACK
6
CONTINUOUS
10
98.995
20
-68.14
11
98.52
21
-68.14
0
LINE
8
BLACK
6
CONTINUOUS
10
98.52
20
-68.14
11
98.4776
21
-68.1224
0
LINE
8
BLACK
6
CONTINUOUS
10
98.4776
20
-68.1224
11
98.46
21
-68.08
0
LINE
8
BLACK
6
CONTINUOUS
10
98.46
20
-68.08
11
98.4776
21
-68.0376
0
LINE
8
BLACK
6
CONTINUOUS
10
98.4776
20
-68.0376
11
98.52
21
-68.02
0
LINE
8
BLACK
6
CONTINUOUS
10
98.52
20
-68.02
11
98.935
21
-68.02
0
LINE
8
BLACK
6
CONTINUOUS
10
98.935
20
-68.02
11
98.935
21
-67.605
0
LINE
8
BLACK
6
CONTINUOUS
10
98.935
20
-67.605
11
98.9526
21
-67.5626
0
LINE
8
BLACK
6
CONTINUOUS
10
98.9526
20
-67.5626
11
98.995
21
-67.545
0
LINE
8
BLACK
6
CONTINUOUS
10
98.995
20
-67.545
11
99.0374
21
-67.5626
0
LINE
8
BLACK
6
CONTINUOUS
10
70.6824
20
-67.5301
11
70.7
21
-67.5725
0
LINE
8
BLACK
6
CONTINUOUS
10
70.7
20
-67.5725
11
70.7
21
-67.9875
0
LINE
8
BLACK
6
CONTINUOUS
10
70.7
20
-67.9875
11
71.115
21
-67.9875
0
LINE
8
BLACK
6
CONTINUOUS
10
71.115
20
-67.9875
11
71.1574
21
-68.0051
0
LINE
8
BLACK
6
CONTINUOUS
10
71.1574
20
-68.0051
11
71.175
21
-68.0475
0
LINE
8
BLACK
6
CONTINUOUS
10
71.175
20
-68.0475
11
71.1574
21
-68.0899
0
LINE
8
BLACK
6
CONTINUOUS
10
71.1574
20
-68.0899
11
71.115
21
-68.1075
0
LINE
8
BLACK
6
CONTINUOUS
10
71.115
20
-68.1075
11
70.64
21
-68.1075
0
LINE
8
BLACK
6
CONTINUOUS
10
70.64
20
-68.1075
11
70.5976
21
-68.0899
0
LINE
8
BLACK
6
CONTINUOUS
10
70.5976
20
-68.0899
11
70.58
21
-68.0475
0
LINE
8
BLACK
6
CONTINUOUS
10
70.58
20
-68.0475
11
70.58
21
-67.5725
0
LINE
8
BLACK
6
CONTINUOUS
10
70.58
20
-67.5725
11
70.5976
21
-67.5301
0
LINE
8
BLACK
6
CONTINUOUS
10
70.5976
20
-67.5301
11
70.64
21
-67.5125
0
LINE
8
BLACK
6
CONTINUOUS
10
70.64
20
-67.5125
11
70.6824
21
-67.5301
0
LINE
8
BLACK
6
CONTINUOUS
10
77.9024
20
-67.5301
11
77.92
21
-67.5725
0
LINE
8
BLACK
6
CONTINUOUS
10
77.92
20
-67.5725
11
77.92
21
-68.0475
0
LINE
8
BLACK
6
CONTINUOUS
10
77.92
20
-68.0475
11
77.9024
21
-68.0899
0
LINE
8
BLACK
6
CONTINUOUS
10
77.9024
20
-68.0899
11
77.86
21
-68.1075
0
LINE
8
BLACK
6
CONTINUOUS
10
77.86
20
-68.1075
11
77.385
21
-68.1075
0
LINE
8
BLACK
6
CONTINUOUS
10
77.385
20
-68.1075
11
77.3426
21
-68.0899
0
LINE
8
BLACK
6
CONTINUOUS
10
77.3426
20
-68.0899
11
77.325
21
-68.0475
0
LINE
8
BLACK
6
CONTINUOUS
10
77.325
20
-68.0475
11
77.3426
21
-68.0051
0
LINE
8
BLACK
6
CONTINUOUS
10
77.3426
20
-68.0051
11
77.385
21
-67.9875
0
LINE
8
BLACK
6
CONTINUOUS
10
77.385
20
-67.9875
11
77.8
21
-67.9875
0
LINE
8
BLACK
6
CONTINUOUS
10
77.8
20
-67.9875
11
77.8
21
-67.5725
0
LINE
8
BLACK
6
CONTINUOUS
10
77.8
20
-67.5725
11
77.8176
21
-67.5301
0
LINE
8
BLACK
6
CONTINUOUS
10
77.8176
20
-67.5301
11
77.86
21
-67.5125
0
LINE
8
BLACK
6
CONTINUOUS
10
77.86
20
-67.5125
11
77.9024
21
-67.5301
0
LINE
8
BLACK
6
CONTINUOUS
10
62.5803
20
-67.0051
11
62.5978
21
-67.0475
0
LINE
8
BLACK
6
CONTINUOUS
10
62.5978
20
-67.0475
11
62.5803
21
-67.0899
0
LINE
8
BLACK
6
CONTINUOUS
10
62.5803
20
-67.0899
11
62.5378
21
-67.1075
0
LINE
8
BLACK
6
CONTINUOUS
10
62.5378
20
-67.1075
11
62.3222
21
-67.1075
0
LINE
8
BLACK
6
CONTINUOUS
10
62.3222
20
-67.1075
11
62.2797
21
-67.0899
0
LINE
8
BLACK
6
CONTINUOUS
10
62.2797
20
-67.0899
11
62.2622
21
-67.0475
0
LINE
8
BLACK
6
CONTINUOUS
10
62.2622
20
-67.0475
11
62.2797
21
-67.0051
0
LINE
8
BLACK
6
CONTINUOUS
10
62.2797
20
-67.0051
11
62.3222
21
-66.9875
0
LINE
8
BLACK
6
CONTINUOUS
10
62.3222
20
-66.9875
11
62.5378
21
-66.9875
0
LINE
8
BLACK
6
CONTINUOUS
10
62.5378
20
-66.9875
11
62.5803
21
-67.0051
0
LINE
8
BLACK
6
CONTINUOUS
10
65.4503
20
-67.0051
11
65.4678
21
-67.0475
0
LINE
8
BLACK
6
CONTINUOUS
10
65.4678
20
-67.0475
11
65.4503
21
-67.0899
0
LINE
8
BLACK
6
CONTINUOUS
10
65.4503
20
-67.0899
11
65.4078
21
-67.1075
0
LINE
8
BLACK
6
CONTINUOUS
10
65.4078
20
-67.1075
11
65.1922
21
-67.1075
0
LINE
8
BLACK
6
CONTINUOUS
10
65.1922
20
-67.1075
11
65.1497
21
-67.0899
0
LINE
8
BLACK
6
CONTINUOUS
10
65.1497
20
-67.0899
11
65.1322
21
-67.0475
0
LINE
8
BLACK
6
CONTINUOUS
10
65.1322
20
-67.0475
11
65.1497
21
-67.0051
0
LINE
8
BLACK
6
CONTINUOUS
10
65.1497
20
-67.0051
11
65.1922
21
-66.9875
0
LINE
8
BLACK
6
CONTINUOUS
10
65.1922
20
-66.9875
11
65.4078
21
-66.9875
0
LINE
8
BLACK
6
CONTINUOUS
10
65.4078
20
-66.9875
11
65.4503
21
-67.0051
0
LINE
8
BLACK
6
CONTINUOUS
10
68.3203
20
-67.0051
11
68.3378
21
-67.0475
0
LINE
8
BLACK
6
CONTINUOUS
10
68.3378
20
-67.0475
11
68.3203
21
-67.0899
0
LINE
8
BLACK
6
CONTINUOUS
10
68.3203
20
-67.0899
11
68.2778
21
-67.1075
0
LINE
8
BLACK
6
CONTINUOUS
10
68.2778
20
-67.1075
11
68.0622
21
-67.1075
0
LINE
8
BLACK
6
CONTINUOUS
10
68.0622
20
-67.1075
11
68.0197
21
-67.0899
0
LINE
8
BLACK
6
CONTINUOUS
10
68.0197
20
-67.0899
11
68.0022
21
-67.0475
0
LINE
8
BLACK
6
CONTINUOUS
10
68.0022
20
-67.0475
11
68.0197
21
-67.0051
0
LINE
8
BLACK
6
CONTINUOUS
10
68.0197
20
-67.0051
11
68.0622
21
-66.9875
0
LINE
8
BLACK
6
CONTINUOUS
10
68.0622
20
-66.9875
11
68.2778
21
-66.9875
0
LINE
8
BLACK
6
CONTINUOUS
10
68.2778
20
-66.9875
11
68.3203
21
-67.0051
0
LINE
8
BLACK
6
CONTINUOUS
10
88.7778
20
-66.7276
11
88.7953
21
-66.77
0
LINE
8
BLACK
6
CONTINUOUS
10
88.7953
20
-66.77
11
88.7778
21
-66.8124
0
LINE
8
BLACK
6
CONTINUOUS
10
88.7778
20
-66.8124
11
88.7353
21
-66.83
0
LINE
8
BLACK
6
CONTINUOUS
10
88.7353
20
-66.83
11
88.5197
21
-66.83
0
LINE
8
BLACK
6
CONTINUOUS
10
88.5197
20
-66.83
11
88.4772
21
-66.8124
0
LINE
8
BLACK
6
CONTINUOUS
10
88.4772
20
-66.8124
11
88.4597
21
-66.77
0
LINE
8
BLACK
6
CONTINUOUS
10
88.4597
20
-66.77
11
88.4772
21
-66.7276
0
LINE
8
BLACK
6
CONTINUOUS
10
88.4772
20
-66.7276
11
88.5197
21
-66.71
0
LINE
8
BLACK
6
CONTINUOUS
10
88.5197
20
-66.71
11
88.7353
21
-66.71
0
LINE
8
BLACK
6
CONTINUOUS
10
88.7353
20
-66.71
11
88.7778
21
-66.7276
0
LINE
8
BLACK
6
CONTINUOUS
10
85.257
20
-66.5926
11
85.2746
21
-66.635
0
LINE
8
BLACK
6
CONTINUOUS
10
85.2746
20
-66.635
11
85.257
21
-66.6774
0
LINE
8
BLACK
6
CONTINUOUS
10
85.257
20
-66.6774
11
85.2146
21
-66.695
0
LINE
8
BLACK
6
CONTINUOUS
10
85.2146
20
-66.695
11
84.7604
21
-66.695
0
LINE
8
BLACK
6
CONTINUOUS
10
84.7604
20
-66.695
11
84.718
21
-66.6774
0
LINE
8
BLACK
6
CONTINUOUS
10
84.718
20
-66.6774
11
84.7004
21
-66.635
0
LINE
8
BLACK
6
CONTINUOUS
10
84.7004
20
-66.635
11
84.718
21
-66.5926
0
LINE
8
BLACK
6
CONTINUOUS
10
84.718
20
-66.5926
11
84.7604
21
-66.575
0
LINE
8
BLACK
6
CONTINUOUS
10
84.7604
20
-66.575
11
85.2146
21
-66.575
0
LINE
8
BLACK
6
CONTINUOUS
10
85.2146
20
-66.575
11
85.257
21
-66.5926
0
LINE
8
BLACK
6
CONTINUOUS
10
62.5803
20
-66.2851
11
62.5978
21
-66.3275
0
LINE
8
BLACK
6
CONTINUOUS
10
62.5978
20
-66.3275
11
62.5803
21
-66.3699
0
LINE
8
BLACK
6
CONTINUOUS
10
62.5803
20
-66.3699
11
62.5378
21
-66.3875
0
LINE
8
BLACK
6
CONTINUOUS
10
62.5378
20
-66.3875
11
62.3222
21
-66.3875
0
LINE
8
BLACK
6
CONTINUOUS
10
62.3222
20
-66.3875
11
62.2797
21
-66.3699
0
LINE
8
BLACK
6
CONTINUOUS
10
62.2797
20
-66.3699
11
62.2622
21
-66.3275
0
LINE
8
BLACK
6
CONTINUOUS
10
62.2622
20
-66.3275
11
62.2797
21
-66.2851
0
LINE
8
BLACK
6
CONTINUOUS
10
62.2797
20
-66.2851
11
62.3222
21
-66.2675
0
LINE
8
BLACK
6
CONTINUOUS
10
62.3222
20
-66.2675
11
62.5378
21
-66.2675
0
LINE
8
BLACK
6
CONTINUOUS
10
62.5378
20
-66.2675
11
62.5803
21
-66.2851
0
LINE
8
BLACK
6
CONTINUOUS
10
65.4503
20
-66.2851
11
65.4678
21
-66.3275
0
LINE
8
BLACK
6
CONTINUOUS
10
65.4678
20
-66.3275
11
65.4503
21
-66.3699
0
LINE
8
BLACK
6
CONTINUOUS
10
65.4503
20
-66.3699
11
65.4078
21
-66.3875
0
LINE
8
BLACK
6
CONTINUOUS
10
65.4078
20
-66.3875
11
65.1922
21
-66.3875
0
LINE
8
BLACK
6
CONTINUOUS
10
65.1922
20
-66.3875
11
65.1497
21
-66.3699
0
LINE
8
BLACK
6
CONTINUOUS
10
65.1497
20
-66.3699
11
65.1322
21
-66.3275
0
LINE
8
BLACK
6
CONTINUOUS
10
65.1322
20
-66.3275
11
65.1497
21
-66.2851
0
LINE
8
BLACK
6
CONTINUOUS
10
65.1497
20
-66.2851
11
65.1922
21
-66.2675
0
LINE
8
BLACK
6
CONTINUOUS
10
65.1922
20
-66.2675
11
65.4078
21
-66.2675
0
LINE
8
BLACK
6
CONTINUOUS
10
65.4078
20
-66.2675
11
65.4503
21
-66.2851
0
LINE
8
BLACK
6
CONTINUOUS
10
68.3203
20
-66.2851
11
68.3378
21
-66.3275
0
LINE
8
BLACK
6
CONTINUOUS
10
68.3378
20
-66.3275
11
68.3203
21
-66.3699
0
LINE
8
BLACK
6
CONTINUOUS
10
68.3203
20
-66.3699
11
68.2778
21
-66.3875
0
LINE
8
BLACK
6
CONTINUOUS
10
68.2778
20
-66.3875
11
68.0622
21
-66.3875
0
LINE
8
BLACK
6
CONTINUOUS
10
68.0622
20
-66.3875
11
68.0197
21
-66.3699
0
LINE
8
BLACK
6
CONTINUOUS
10
68.0197
20
-66.3699
11
68.0022
21
-66.3275
0
LINE
8
BLACK
6
CONTINUOUS
10
68.0022
20
-66.3275
11
68.0197
21
-66.2851
0
LINE
8
BLACK
6
CONTINUOUS
10
68.0197
20
-66.2851
11
68.0622
21
-66.2675
0
LINE
8
BLACK
6
CONTINUOUS
10
68.0622
20
-66.2675
11
68.2778
21
-66.2675
0
LINE
8
BLACK
6
CONTINUOUS
10
68.2778
20
-66.2675
11
68.3203
21
-66.2851
0
LINE
8
BLACK
6
CONTINUOUS
10
88.7778
20
-66.0076
11
88.7953
21
-66.05
0
LINE
8
BLACK
6
CONTINUOUS
10
88.7953
20
-66.05
11
88.7778
21
-66.0924
0
LINE
8
BLACK
6
CONTINUOUS
10
88.7778
20
-66.0924
11
88.7353
21
-66.11
0
LINE
8
BLACK
6
CONTINUOUS
10
88.7353
20
-66.11
11
88.5197
21
-66.11
0
LINE
8
BLACK
6
CONTINUOUS
10
88.5197
20
-66.11
11
88.4772
21
-66.0924
0
LINE
8
BLACK
6
CONTINUOUS
10
88.4772
20
-66.0924
11
88.4597
21
-66.05
0
LINE
8
BLACK
6
CONTINUOUS
10
88.4597
20
-66.05
11
88.4772
21
-66.0076
0
LINE
8
BLACK
6
CONTINUOUS
10
88.4772
20
-66.0076
11
88.5197
21
-65.99
0
LINE
8
BLACK
6
CONTINUOUS
10
88.5197
20
-65.99
11
88.7353
21
-65.99
0
LINE
8
BLACK
6
CONTINUOUS
10
88.7353
20
-65.99
11
88.7778
21
-66.0076
0
LINE
8
BLACK
6
CONTINUOUS
10
96.2924
20
-64.8176
11
96.31
21
-64.86
0
LINE
8
BLACK
6
CONTINUOUS
10
96.31
20
-64.86
11
96.2924
21
-64.9024
0
LINE
8
BLACK
6
CONTINUOUS
10
96.2924
20
-64.9024
11
96.25
21
-64.92
0
LINE
8
BLACK
6
CONTINUOUS
10
96.25
20
-64.92
11
95.835
21
-64.92
0
LINE
8
BLACK
6
CONTINUOUS
10
95.835
20
-64.92
11
95.835
21
-65.335
0
LINE
8
BLACK
6
CONTINUOUS
10
95.835
20
-65.335
11
95.8174
21
-65.3774
0
LINE
8
BLACK
6
CONTINUOUS
10
95.8174
20
-65.3774
11
95.775
21
-65.395
0
LINE
8
BLACK
6
CONTINUOUS
10
95.775
20
-65.395
11
95.7326
21
-65.3774
0
LINE
8
BLACK
6
CONTINUOUS
10
95.7326
20
-65.3774
11
95.715
21
-65.335
0
LINE
8
BLACK
6
CONTINUOUS
10
95.715
20
-65.335
11
95.715
21
-64.86
0
LINE
8
BLACK
6
CONTINUOUS
10
95.715
20
-64.86
11
95.7326
21
-64.8176
0
LINE
8
BLACK
6
CONTINUOUS
10
95.7326
20
-64.8176
11
95.775
21
-64.8
0
LINE
8
BLACK
6
CONTINUOUS
10
95.775
20
-64.8
11
96.25
21
-64.8
0
LINE
8
BLACK
6
CONTINUOUS
10
96.25
20
-64.8
11
96.2924
21
-64.8176
0
LINE
8
BLACK
6
CONTINUOUS
10
85.257
20
-65.1226
11
85.2746
21
-65.165
0
LINE
8
BLACK
6
CONTINUOUS
10
85.2746
20
-65.165
11
85.257
21
-65.2074
0
LINE
8
BLACK
6
CONTINUOUS
10
85.257
20
-65.2074
11
85.2146
21
-65.225
0
LINE
8
BLACK
6
CONTINUOUS
10
85.2146
20
-65.225
11
84.7604
21
-65.225
0
LINE
8
BLACK
6
CONTINUOUS
10
84.7604
20
-65.225
11
84.718
21
-65.2074
0
LINE
8
BLACK
6
CONTINUOUS
10
84.718
20
-65.2074
11
84.7004
21
-65.165
0
LINE
8
BLACK
6
CONTINUOUS
10
84.7004
20
-65.165
11
84.718
21
-65.1226
0
LINE
8
BLACK
6
CONTINUOUS
10
84.718
20
-65.1226
11
84.7604
21
-65.105
0
LINE
8
BLACK
6
CONTINUOUS
10
84.7604
20
-65.105
11
85.2146
21
-65.105
0
LINE
8
BLACK
6
CONTINUOUS
10
85.2146
20
-65.105
11
85.257
21
-65.1226
0
LINE
8
BLACK
6
CONTINUOUS
10
62.5803
20
-65.0351
11
62.5978
21
-65.0775
0
LINE
8
BLACK
6
CONTINUOUS
10
62.5978
20
-65.0775
11
62.5803
21
-65.1199
0
LINE
8
BLACK
6
CONTINUOUS
10
62.5803
20
-65.1199
11
62.5378
21
-65.1375
0
LINE
8
BLACK
6
CONTINUOUS
10
62.5378
20
-65.1375
11
62.3222
21
-65.1375
0
LINE
8
BLACK
6
CONTINUOUS
10
62.3222
20
-65.1375
11
62.2797
21
-65.1199
0
LINE
8
BLACK
6
CONTINUOUS
10
62.2797
20
-65.1199
11
62.2622
21
-65.0775
0
LINE
8
BLACK
6
CONTINUOUS
10
62.2622
20
-65.0775
11
62.2797
21
-65.0351
0
LINE
8
BLACK
6
CONTINUOUS
10
62.2797
20
-65.0351
11
62.3222
21
-65.0175
0
LINE
8
BLACK
6
CONTINUOUS
10
62.3222
20
-65.0175
11
62.5378
21
-65.0175
0
LINE
8
BLACK
6
CONTINUOUS
10
62.5378
20
-65.0175
11
62.5803
21
-65.0351
0
LINE
8
BLACK
6
CONTINUOUS
10
65.4503
20
-65.0351
11
65.4678
21
-65.0775
0
LINE
8
BLACK
6
CONTINUOUS
10
65.4678
20
-65.0775
11
65.4503
21
-65.1199
0
LINE
8
BLACK
6
CONTINUOUS
10
65.4503
20
-65.1199
11
65.4078
21
-65.1375
0
LINE
8
BLACK
6
CONTINUOUS
10
65.4078
20
-65.1375
11
65.1922
21
-65.1375
0
LINE
8
BLACK
6
CONTINUOUS
10
65.1922
20
-65.1375
11
65.1497
21
-65.1199
0
LINE
8
BLACK
6
CONTINUOUS
10
65.1497
20
-65.1199
11
65.1322
21
-65.0775
0
LINE
8
BLACK
6
CONTINUOUS
10
65.1322
20
-65.0775
11
65.1497
21
-65.0351
0
LINE
8
BLACK
6
CONTINUOUS
10
65.1497
20
-65.0351
11
65.1922
21
-65.0175
0
LINE
8
BLACK
6
CONTINUOUS
10
65.1922
20
-65.0175
11
65.4078
21
-65.0175
0
LINE
8
BLACK
6
CONTINUOUS
10
65.4078
20
-65.0175
11
65.4503
21
-65.0351
0
LINE
8
BLACK
6
CONTINUOUS
10
68.3203
20
-65.0351
11
68.3378
21
-65.0775
0
LINE
8
BLACK
6
CONTINUOUS
10
68.3378
20
-65.0775
11
68.3203
21
-65.1199
0
LINE
8
BLACK
6
CONTINUOUS
10
68.3203
20
-65.1199
11
68.2778
21
-65.1375
0
LINE
8
BLACK
6
CONTINUOUS
10
68.2778
20
-65.1375
11
68.0622
21
-65.1375
0
LINE
8
BLACK
6
CONTINUOUS
10
68.0622
20
-65.1375
11
68.0197
21
-65.1199
0
LINE
8
BLACK
6
CONTINUOUS
10
68.0197
20
-65.1199
11
68.0022
21
-65.0775
0
LINE
8
BLACK
6
CONTINUOUS
10
68.0022
20
-65.0775
11
68.0197
21
-65.0351
0
LINE
8
BLACK
6
CONTINUOUS
10
68.0197
20
-65.0351
11
68.0622
21
-65.0175
0
LINE
8
BLACK
6
CONTINUOUS
10
68.0622
20
-65.0175
11
68.2778
21
-65.0175
0
LINE
8
BLACK
6
CONTINUOUS
10
68.2778
20
-65.0175
11
68.3203
21
-65.0351
0
LINE
8
BLACK
6
CONTINUOUS
10
99.0374
20
-64.8176
11
99.055
21
-64.86
0
LINE
8
BLACK
6
CONTINUOUS
10
99.055
20
-64.86
11
99.0374
21
-64.9024
0
LINE
8
BLACK
6
CONTINUOUS
10
99.0374
20
-64.9024
11
98.995
21
-64.92
0
LINE
8
BLACK
6
CONTINUOUS
10
98.995
20
-64.92
11
98.52
21
-64.92
0
LINE
8
BLACK
6
CONTINUOUS
10
98.52
20
-64.92
11
98.4776
21
-64.9024
0
LINE
8
BLACK
6
CONTINUOUS
10
98.4776
20
-64.9024
11
98.46
21
-64.86
0
LINE
8
BLACK
6
CONTINUOUS
10
98.46
20
-64.86
11
98.4776
21
-64.8176
0
LINE
8
BLACK
6
CONTINUOUS
10
98.4776
20
-64.8176
11
98.52
21
-64.8
0
LINE
8
BLACK
6
CONTINUOUS
10
98.52
20
-64.8
11
98.995
21
-64.8
0
LINE
8
BLACK
6
CONTINUOUS
10
98.995
20
-64.8
11
99.0374
21
-64.8176
0
LINE
8
BLACK
6
CONTINUOUS
10
88.7778
20
-64.7576
11
88.7953
21
-64.8
0
LINE
8
BLACK
6
CONTINUOUS
10
88.7953
20
-64.8
11
88.7778
21
-64.8424
0
LINE
8
BLACK
6
CONTINUOUS
10
88.7778
20
-64.8424
11
88.7353
21
-64.86
0
LINE
8
BLACK
6
CONTINUOUS
10
88.7353
20
-64.86
11
88.5197
21
-64.86
0
LINE
8
BLACK
6
CONTINUOUS
10
88.5197
20
-64.86
11
88.4772
21
-64.8424
0
LINE
8
BLACK
6
CONTINUOUS
10
88.4772
20
-64.8424
11
88.4597
21
-64.8
0
LINE
8
BLACK
6
CONTINUOUS
10
88.4597
20
-64.8
11
88.4772
21
-64.7576
0
LINE
8
BLACK
6
CONTINUOUS
10
88.4772
20
-64.7576
11
88.5197
21
-64.74
0
LINE
8
BLACK
6
CONTINUOUS
10
88.5197
20
-64.74
11
88.7353
21
-64.74
0
LINE
8
BLACK
6
CONTINUOUS
10
88.7353
20
-64.74
11
88.7778
21
-64.7576
0
LINE
8
BLACK
6
CONTINUOUS
10
62.5803
20
-64.3151
11
62.5978
21
-64.3575
0
LINE
8
BLACK
6
CONTINUOUS
10
62.5978
20
-64.3575
11
62.5803
21
-64.3999
0
LINE
8
BLACK
6
CONTINUOUS
10
62.5803
20
-64.3999
11
62.5378
21
-64.4175
0
LINE
8
BLACK
6
CONTINUOUS
10
62.5378
20
-64.4175
11
62.3222
21
-64.4175
0
LINE
8
BLACK
6
CONTINUOUS
10
62.3222
20
-64.4175
11
62.2797
21
-64.3999
0
LINE
8
BLACK
6
CONTINUOUS
10
62.2797
20
-64.3999
11
62.2622
21
-64.3575
0
LINE
8
BLACK
6
CONTINUOUS
10
62.2622
20
-64.3575
11
62.2797
21
-64.3151
0
LINE
8
BLACK
6
CONTINUOUS
10
62.2797
20
-64.3151
11
62.3222
21
-64.2975
0
LINE
8
BLACK
6
CONTINUOUS
10
62.3222
20
-64.2975
11
62.5378
21
-64.2975
0
LINE
8
BLACK
6
CONTINUOUS
10
62.5378
20
-64.2975
11
62.5803
21
-64.3151
0
LINE
8
BLACK
6
CONTINUOUS
10
65.4503
20
-64.3151
11
65.4678
21
-64.3575
0
LINE
8
BLACK
6
CONTINUOUS
10
65.4678
20
-64.3575
11
65.4503
21
-64.3999
0
LINE
8
BLACK
6
CONTINUOUS
10
65.4503
20
-64.3999
11
65.4078
21
-64.4175
0
LINE
8
BLACK
6
CONTINUOUS
10
65.4078
20
-64.4175
11
65.1922
21
-64.4175
0
LINE
8
BLACK
6
CONTINUOUS
10
65.1922
20
-64.4175
11
65.1497
21
-64.3999
0
LINE
8
BLACK
6
CONTINUOUS
10
65.1497
20
-64.3999
11
65.1322
21
-64.3575
0
LINE
8
BLACK
6
CONTINUOUS
10
65.1322
20
-64.3575
11
65.1497
21
-64.3151
0
LINE
8
BLACK
6
CONTINUOUS
10
65.1497
20
-64.3151
11
65.1922
21
-64.2975
0
LINE
8
BLACK
6
CONTINUOUS
10
65.1922
20
-64.2975
11
65.4078
21
-64.2975
0
LINE
8
BLACK
6
CONTINUOUS
10
65.4078
20
-64.2975
11
65.4503
21
-64.3151
0
LINE
8
BLACK
6
CONTINUOUS
10
68.3203
20
-64.3151
11
68.3378
21
-64.3575
0
LINE
8
BLACK
6
CONTINUOUS
10
68.3378
20
-64.3575
11
68.3203
21
-64.3999
0
LINE
8
BLACK
6
CONTINUOUS
10
68.3203
20
-64.3999
11
68.2778
21
-64.4175
0
LINE
8
BLACK
6
CONTINUOUS
10
68.2778
20
-64.4175
11
68.0622
21
-64.4175
0
LINE
8
BLACK
6
CONTINUOUS
10
68.0622
20
-64.4175
11
68.0197
21
-64.3999
0
LINE
8
BLACK
6
CONTINUOUS
10
68.0197
20
-64.3999
11
68.0022
21
-64.3575
0
LINE
8
BLACK
6
CONTINUOUS
10
68.0022
20
-64.3575
11
68.0197
21
-64.3151
0
LINE
8
BLACK
6
CONTINUOUS
10
68.0197
20
-64.3151
11
68.0622
21
-64.2975
0
LINE
8
BLACK
6
CONTINUOUS
10
68.0622
20
-64.2975
11
68.2778
21
-64.2975
0
LINE
8
BLACK
6
CONTINUOUS
10
68.2778
20
-64.2975
11
68.3203
21
-64.3151
0
LINE
8
BLACK
6
CONTINUOUS
10
88.7778
20
-64.0376
11
88.7953
21
-64.08
0
LINE
8
BLACK
6
CONTINUOUS
10
88.7953
20
-64.08
11
88.7778
21
-64.1224
0
LINE
8
BLACK
6
CONTINUOUS
10
88.7778
20
-64.1224
11
88.7353
21
-64.14
0
LINE
8
BLACK
6
CONTINUOUS
10
88.7353
20
-64.14
11
88.5197
21
-64.14
0
LINE
8
BLACK
6
CONTINUOUS
10
88.5197
20
-64.14
11
88.4772
21
-64.1224
0
LINE
8
BLACK
6
CONTINUOUS
10
88.4772
20
-64.1224
11
88.4597
21
-64.08
0
LINE
8
BLACK
6
CONTINUOUS
10
88.4597
20
-64.08
11
88.4772
21
-64.0376
0
LINE
8
BLACK
6
CONTINUOUS
10
88.4772
20
-64.0376
11
88.5197
21
-64.02
0
LINE
8
BLACK
6
CONTINUOUS
10
88.5197
20
-64.02
11
88.7353
21
-64.02
0
LINE
8
BLACK
6
CONTINUOUS
10
88.7353
20
-64.02
11
88.7778
21
-64.0376
0
LINE
8
BLACK
6
CONTINUOUS
10
92.8187
20
-63.7426
11
92.8363
21
-63.785
0
LINE
8
BLACK
6
CONTINUOUS
10
92.8363
20
-63.785
11
92.8187
21
-63.8274
0
LINE
8
BLACK
6
CONTINUOUS
10
92.8187
20
-63.8274
11
92.7763
21
-63.845
0
LINE
8
BLACK
6
CONTINUOUS
10
92.7763
20
-63.845
11
92.2537
21
-63.845
0
LINE
8
BLACK
6
CONTINUOUS
10
92.2537
20
-63.845
11
92.2113
21
-63.8274
0
LINE
8
BLACK
6
CONTINUOUS
10
92.2113
20
-63.8274
11
92.1937
21
-63.785
0
LINE
8
BLACK
6
CONTINUOUS
10
92.1937
20
-63.785
11
92.2113
21
-63.7426
0
LINE
8
BLACK
6
CONTINUOUS
10
92.2113
20
-63.7426
11
92.2537
21
-63.725
0
LINE
8
BLACK
6
CONTINUOUS
10
92.2537
20
-63.725
11
92.7763
21
-63.725
0
LINE
8
BLACK
6
CONTINUOUS
10
92.7763
20
-63.725
11
92.8187
21
-63.7426
0
LINE
8
BLACK
6
CONTINUOUS
10
85.257
20
-63.6426
11
85.2746
21
-63.685
0
LINE
8
BLACK
6
CONTINUOUS
10
85.2746
20
-63.685
11
85.257
21
-63.7274
0
LINE
8
BLACK
6
CONTINUOUS
10
85.257
20
-63.7274
11
85.2146
21
-63.745
0
LINE
8
BLACK
6
CONTINUOUS
10
85.2146
20
-63.745
11
84.7604
21
-63.745
0
LINE
8
BLACK
6
CONTINUOUS
10
84.7604
20
-63.745
11
84.718
21
-63.7274
0
LINE
8
BLACK
6
CONTINUOUS
10
84.718
20
-63.7274
11
84.7004
21
-63.685
0
LINE
8
BLACK
6
CONTINUOUS
10
84.7004
20
-63.685
11
84.718
21
-63.6426
0
LINE
8
BLACK
6
CONTINUOUS
10
84.718
20
-63.6426
11
84.7604
21
-63.625
0
LINE
8
BLACK
6
CONTINUOUS
10
84.7604
20
-63.625
11
85.2146
21
-63.625
0
LINE
8
BLACK
6
CONTINUOUS
10
85.2146
20
-63.625
11
85.257
21
-63.6426
0
LINE
8
BLACK
6
CONTINUOUS
10
62.5803
20
-63.0651
11
62.5978
21
-63.1075
0
LINE
8
BLACK
6
CONTINUOUS
10
62.5978
20
-63.1075
11
62.5803
21
-63.1499
0
LINE
8
BLACK
6
CONTINUOUS
10
62.5803
20
-63.1499
11
62.5378
21
-63.1675
0
LINE
8
BLACK
6
CONTINUOUS
10
62.5378
20
-63.1675
11
62.3222
21
-63.1675
0
LINE
8
BLACK
6
CONTINUOUS
10
62.3222
20
-63.1675
11
62.2797
21
-63.1499
0
LINE
8
BLACK
6
CONTINUOUS
10
62.2797
20
-63.1499
11
62.2622
21
-63.1075
0
LINE
8
BLACK
6
CONTINUOUS
10
62.2622
20
-63.1075
11
62.2797
21
-63.0651
0
LINE
8
BLACK
6
CONTINUOUS
10
62.2797
20
-63.0651
11
62.3222
21
-63.0475
0
LINE
8
BLACK
6
CONTINUOUS
10
62.3222
20
-63.0475
11
62.5378
21
-63.0475
0
LINE
8
BLACK
6
CONTINUOUS
10
62.5378
20
-63.0475
11
62.5803
21
-63.0651
0
LINE
8
BLACK
6
CONTINUOUS
10
65.4503
20
-63.0651
11
65.4678
21
-63.1075
0
LINE
8
BLACK
6
CONTINUOUS
10
65.4678
20
-63.1075
11
65.4503
21
-63.1499
0
LINE
8
BLACK
6
CONTINUOUS
10
65.4503
20
-63.1499
11
65.4078
21
-63.1675
0
LINE
8
BLACK
6
CONTINUOUS
10
65.4078
20
-63.1675
11
65.1922
21
-63.1675
0
LINE
8
BLACK
6
CONTINUOUS
10
65.1922
20
-63.1675
11
65.1497
21
-63.1499
0
LINE
8
BLACK
6
CONTINUOUS
10
65.1497
20
-63.1499
11
65.1322
21
-63.1075
0
LINE
8
BLACK
6
CONTINUOUS
10
65.1322
20
-63.1075
11
65.1497
21
-63.0651
0
LINE
8
BLACK
6
CONTINUOUS
10
65.1497
20
-63.0651
11
65.1922
21
-63.0475
0
LINE
8
BLACK
6
CONTINUOUS
10
65.1922
20
-63.0475
11
65.4078
21
-63.0475
0
LINE
8
BLACK
6
CONTINUOUS
10
65.4078
20
-63.0475
11
65.4503
21
-63.0651
0
LINE
8
BLACK
6
CONTINUOUS
10
68.3203
20
-63.0651
11
68.3378
21
-63.1075
0
LINE
8
BLACK
6
CONTINUOUS
10
68.3378
20
-63.1075
11
68.3203
21
-63.1499
0
LINE
8
BLACK
6
CONTINUOUS
10
68.3203
20
-63.1499
11
68.2778
21
-63.1675
0
LINE
8
BLACK
6
CONTINUOUS
10
68.2778
20
-63.1675
11
68.0622
21
-63.1675
0
LINE
8
BLACK
6
CONTINUOUS
10
68.0622
20
-63.1675
11
68.0197
21
-63.1499
0
LINE
8
BLACK
6
CONTINUOUS
10
68.0197
20
-63.1499
11
68.0022
21
-63.1075
0
LINE
8
BLACK
6
CONTINUOUS
10
68.0022
20
-63.1075
11
68.0197
21
-63.0651
0
LINE
8
BLACK
6
CONTINUOUS
10
68.0197
20
-63.0651
11
68.0622
21
-63.0475
0
LINE
8
BLACK
6
CONTINUOUS
10
68.0622
20
-63.0475
11
68.2778
21
-63.0475
0
LINE
8
BLACK
6
CONTINUOUS
10
68.2778
20
-63.0475
11
68.3203
21
-63.0651
0
LINE
8
BLACK
6
CONTINUOUS
10
88.7778
20
-62.7876
11
88.7953
21
-62.83
0
LINE
8
BLACK
6
CONTINUOUS
10
88.7953
20
-62.83
11
88.7778
21
-62.8724
0
LINE
8
BLACK
6
CONTINUOUS
10
88.7778
20
-62.8724
11
88.7353
21
-62.89
0
LINE
8
BLACK
6
CONTINUOUS
10
88.7353
20
-62.89
11
88.5197
21
-62.89
0
LINE
8
BLACK
6
CONTINUOUS
10
88.5197
20
-62.89
11
88.4772
21
-62.8724
0
LINE
8
BLACK
6
CONTINUOUS
10
88.4772
20
-62.8724
11
88.4597
21
-62.83
0
LINE
8
BLACK
6
CONTINUOUS
10
88.4597
20
-62.83
11
88.4772
21
-62.7876
0
LINE
8
BLACK
6
CONTINUOUS
10
88.4772
20
-62.7876
11
88.5197
21
-62.77
0
LINE
8
BLACK
6
CONTINUOUS
10
88.5197
20
-62.77
11
88.7353
21
-62.77
0
LINE
8
BLACK
6
CONTINUOUS
10
88.7353
20
-62.77
11
88.7778
21
-62.7876
0
LINE
8
BLACK
6
CONTINUOUS
10
62.5803
20
-62.3451
11
62.5978
21
-62.3875
0
LINE
8
BLACK
6
CONTINUOUS
10
62.5978
20
-62.3875
11
62.5803
21
-62.4299
0
LINE
8
BLACK
6
CONTINUOUS
10
62.5803
20
-62.4299
11
62.5378
21
-62.4475
0
LINE
8
BLACK
6
CONTINUOUS
10
62.5378
20
-62.4475
11
62.3222
21
-62.4475
0
LINE
8
BLACK
6
CONTINUOUS
10
62.3222
20
-62.4475
11
62.2797
21
-62.4299
0
LINE
8
BLACK
6
CONTINUOUS
10
62.2797
20
-62.4299
11
62.2622
21
-62.3875
0
LINE
8
BLACK
6
CONTINUOUS
10
62.2622
20
-62.3875
11
62.2797
21
-62.3451
0
LINE
8
BLACK
6
CONTINUOUS
10
62.2797
20
-62.3451
11
62.3222
21
-62.3275
0
LINE
8
BLACK
6
CONTINUOUS
10
62.3222
20
-62.3275
11
62.5378
21
-62.3275
0
LINE
8
BLACK
6
CONTINUOUS
10
62.5378
20
-62.3275
11
62.5803
21
-62.3451
0
LINE
8
BLACK
6
CONTINUOUS
10
65.4503
20
-62.3451
11
65.4678
21
-62.3875
0
LINE
8
BLACK
6
CONTINUOUS
10
65.4678
20
-62.3875
11
65.4503
21
-62.4299
0
LINE
8
BLACK
6
CONTINUOUS
10
65.4503
20
-62.4299
11
65.4078
21
-62.4475
0
LINE
8
BLACK
6
CONTINUOUS
10
65.4078
20
-62.4475
11
65.1922
21
-62.4475
0
LINE
8
BLACK
6
CONTINUOUS
10
65.1922
20
-62.4475
11
65.1497
21
-62.4299
0
LINE
8
BLACK
6
CONTINUOUS
10
65.1497
20
-62.4299
11
65.1322
21
-62.3875
0
LINE
8
BLACK
6
CONTINUOUS
10
65.1322
20
-62.3875
11
65.1497
21
-62.3451
0
LINE
8
BLACK
6
CONTINUOUS
10
65.1497
20
-62.3451
11
65.1922
21
-62.3275
0
LINE
8
BLACK
6
CONTINUOUS
10
65.1922
20
-62.3275
11
65.4078
21
-62.3275
0
LINE
8
BLACK
6
CONTINUOUS
10
65.4078
20
-62.3275
11
65.4503
21
-62.3451
0
LINE
8
BLACK
6
CONTINUOUS
10
68.3203
20
-62.3451
11
68.3378
21
-62.3875
0
LINE
8
BLACK
6
CONTINUOUS
10
68.3378
20
-62.3875
11
68.3203
21
-62.4299
0
LINE
8
BLACK
6
CONTINUOUS
10
68.3203
20
-62.4299
11
68.2778
21
-62.4475
0
LINE
8
BLACK
6
CONTINUOUS
10
68.2778
20
-62.4475
11
68.0622
21
-62.4475
0
LINE
8
BLACK
6
CONTINUOUS
10
68.0622
20
-62.4475
11
68.0197
21
-62.4299
0
LINE
8
BLACK
6
CONTINUOUS
10
68.0197
20
-62.4299
11
68.0022
21
-62.3875
0
LINE
8
BLACK
6
CONTINUOUS
10
68.0022
20
-62.3875
11
68.0197
21
-62.3451
0
LINE
8
BLACK
6
CONTINUOUS
10
68.0197
20
-62.3451
11
68.0622
21
-62.3275
0
LINE
8
BLACK
6
CONTINUOUS
10
68.0622
20
-62.3275
11
68.2778
21
-62.3275
0
LINE
8
BLACK
6
CONTINUOUS
10
68.2778
20
-62.3275
11
68.3203
21
-62.3451
0
LINE
8
BLACK
6
CONTINUOUS
10
92.8187
20
-62.2726
11
92.8363
21
-62.315
0
LINE
8
BLACK
6
CONTINUOUS
10
92.8363
20
-62.315
11
92.8187
21
-62.3574
0
LINE
8
BLACK
6
CONTINUOUS
10
92.8187
20
-62.3574
11
92.7763
21
-62.375
0
LINE
8
BLACK
6
CONTINUOUS
10
92.7763
20
-62.375
11
92.2537
21
-62.375
0
LINE
8
BLACK
6
CONTINUOUS
10
92.2537
20
-62.375
11
92.2113
21
-62.3574
0
LINE
8
BLACK
6
CONTINUOUS
10
92.2113
20
-62.3574
11
92.1937
21
-62.315
0
LINE
8
BLACK
6
CONTINUOUS
10
92.1937
20
-62.315
11
92.2113
21
-62.2726
0
LINE
8
BLACK
6
CONTINUOUS
10
92.2113
20
-62.2726
11
92.2537
21
-62.255
0
LINE
8
BLACK
6
CONTINUOUS
10
92.2537
20
-62.255
11
92.7763
21
-62.255
0
LINE
8
BLACK
6
CONTINUOUS
10
92.7763
20
-62.255
11
92.8187
21
-62.2726
0
LINE
8
BLACK
6
CONTINUOUS
10
85.257
20
-62.1726
11
85.2746
21
-62.215
0
LINE
8
BLACK
6
CONTINUOUS
10
85.2746
20
-62.215
11
85.257
21
-62.2574
0
LINE
8
BLACK
6
CONTINUOUS
10
85.257
20
-62.2574
11
85.2146
21
-62.275
0
LINE
8
BLACK
6
CONTINUOUS
10
85.2146
20
-62.275
11
84.7604
21
-62.275
0
LINE
8
BLACK
6
CONTINUOUS
10
84.7604
20
-62.275
11
84.718
21
-62.2574
0
LINE
8
BLACK
6
CONTINUOUS
10
84.718
20
-62.2574
11
84.7004
21
-62.215
0
LINE
8
BLACK
6
CONTINUOUS
10
84.7004
20
-62.215
11
84.718
21
-62.1726
0
LINE
8
BLACK
6
CONTINUOUS
10
84.718
20
-62.1726
11
84.7604
21
-62.155
0
LINE
8
BLACK
6
CONTINUOUS
10
84.7604
20
-62.155
11
85.2146
21
-62.155
0
LINE
8
BLACK
6
CONTINUOUS
10
85.2146
20
-62.155
11
85.257
21
-62.1726
0
LINE
8
BLACK
6
CONTINUOUS
10
88.7778
20
-62.0676
11
88.7953
21
-62.11
0
LINE
8
BLACK
6
CONTINUOUS
10
88.7953
20
-62.11
11
88.7778
21
-62.1524
0
LINE
8
BLACK
6
CONTINUOUS
10
88.7778
20
-62.1524
11
88.7353
21
-62.17
0
LINE
8
BLACK
6
CONTINUOUS
10
88.7353
20
-62.17
11
88.5197
21
-62.17
0
LINE
8
BLACK
6
CONTINUOUS
10
88.5197
20
-62.17
11
88.4772
21
-62.1524
0
LINE
8
BLACK
6
CONTINUOUS
10
88.4772
20
-62.1524
11
88.4597
21
-62.11
0
LINE
8
BLACK
6
CONTINUOUS
10
88.4597
20
-62.11
11
88.4772
21
-62.0676
0
LINE
8
BLACK
6
CONTINUOUS
10
88.4772
20
-62.0676
11
88.5197
21
-62.05
0
LINE
8
BLACK
6
CONTINUOUS
10
88.5197
20
-62.05
11
88.7353
21
-62.05
0
LINE
8
BLACK
6
CONTINUOUS
10
88.7353
20
-62.05
11
88.7778
21
-62.0676
0
LINE
8
BLACK
6
CONTINUOUS
10
71.1574
20
-60.7851
11
71.175
21
-60.8275
0
LINE
8
BLACK
6
CONTINUOUS
10
71.175
20
-60.8275
11
71.1574
21
-60.8699
0
LINE
8
BLACK
6
CONTINUOUS
10
71.1574
20
-60.8699
11
71.115
21
-60.8875
0
LINE
8
BLACK
6
CONTINUOUS
10
71.115
20
-60.8875
11
70.7
21
-60.8875
0
LINE
8
BLACK
6
CONTINUOUS
10
70.7
20
-60.8875
11
70.7
21
-61.3025
0
LINE
8
BLACK
6
CONTINUOUS
10
70.7
20
-61.3025
11
70.6824
21
-61.3449
0
LINE
8
BLACK
6
CONTINUOUS
10
70.6824
20
-61.3449
11
70.64
21
-61.3625
0
LINE
8
BLACK
6
CONTINUOUS
10
70.64
20
-61.3625
11
70.5976
21
-61.3449
0
LINE
8
BLACK
6
CONTINUOUS
10
70.5976
20
-61.3449
11
70.58
21
-61.3025
0
LINE
8
BLACK
6
CONTINUOUS
10
70.58
20
-61.3025
11
70.58
21
-60.8275
0
LINE
8
BLACK
6
CONTINUOUS
10
70.58
20
-60.8275
11
70.5976
21
-60.7851
0
LINE
8
BLACK
6
CONTINUOUS
10
70.5976
20
-60.7851
11
70.64
21
-60.7675
0
LINE
8
BLACK
6
CONTINUOUS
10
70.64
20
-60.7675
11
71.115
21
-60.7675
0
LINE
8
BLACK
6
CONTINUOUS
10
71.115
20
-60.7675
11
71.1574
21
-60.7851
0
LINE
8
BLACK
6
CONTINUOUS
10
92.3761
20
-61.2376
11
92.3936
21
-61.28
0
LINE
8
BLACK
6
CONTINUOUS
10
92.3936
20
-61.28
11
92.3761
21
-61.3224
0
LINE
8
BLACK
6
CONTINUOUS
10
92.3761
20
-61.3224
11
92.3336
21
-61.34
0
LINE
8
BLACK
6
CONTINUOUS
10
92.3336
20
-61.34
11
92.0264
21
-61.34
0
LINE
8
BLACK
6
CONTINUOUS
10
92.0264
20
-61.34
11
91.9839
21
-61.3224
0
LINE
8
BLACK
6
CONTINUOUS
10
91.9839
20
-61.3224
11
91.9664
21
-61.28
0
LINE
8
BLACK
6
CONTINUOUS
10
91.9664
20
-61.28
11
91.9839
21
-61.2376
0
LINE
8
BLACK
6
CONTINUOUS
10
91.9839
20
-61.2376
11
92.0264
21
-61.22
0
LINE
8
BLACK
6
CONTINUOUS
10
92.0264
20
-61.22
11
92.3336
21
-61.22
0
LINE
8
BLACK
6
CONTINUOUS
10
92.3336
20
-61.22
11
92.3761
21
-61.2376
0
LINE
8
BLACK
6
CONTINUOUS
10
62.5803
20
-61.0951
11
62.5978
21
-61.1375
0
LINE
8
BLACK
6
CONTINUOUS
10
62.5978
20
-61.1375
11
62.5803
21
-61.1799
0
LINE
8
BLACK
6
CONTINUOUS
10
62.5803
20
-61.1799
11
62.5378
21
-61.1975
0
LINE
8
BLACK
6
CONTINUOUS
10
62.5378
20
-61.1975
11
62.3222
21
-61.1975
0
LINE
8
BLACK
6
CONTINUOUS
10
62.3222
20
-61.1975
11
62.2797
21
-61.1799
0
LINE
8
BLACK
6
CONTINUOUS
10
62.2797
20
-61.1799
11
62.2622
21
-61.1375
0
LINE
8
BLACK
6
CONTINUOUS
10
62.2622
20
-61.1375
11
62.2797
21
-61.0951
0
LINE
8
BLACK
6
CONTINUOUS
10
62.2797
20
-61.0951
11
62.3222
21
-61.0775
0
LINE
8
BLACK
6
CONTINUOUS
10
62.3222
20
-61.0775
11
62.5378
21
-61.0775
0
LINE
8
BLACK
6
CONTINUOUS
10
62.5378
20
-61.0775
11
62.5803
21
-61.0951
0
LINE
8
BLACK
6
CONTINUOUS
10
65.4503
20
-61.0951
11
65.4678
21
-61.1375
0
LINE
8
BLACK
6
CONTINUOUS
10
65.4678
20
-61.1375
11
65.4503
21
-61.1799
0
LINE
8
BLACK
6
CONTINUOUS
10
65.4503
20
-61.1799
11
65.4078
21
-61.1975
0
LINE
8
BLACK
6
CONTINUOUS
10
65.4078
20
-61.1975
11
65.1922
21
-61.1975
0
LINE
8
BLACK
6
CONTINUOUS
10
65.1922
20
-61.1975
11
65.1497
21
-61.1799
0
LINE
8
BLACK
6
CONTINUOUS
10
65.1497
20
-61.1799
11
65.1322
21
-61.1375
0
LINE
8
BLACK
6
CONTINUOUS
10
65.1322
20
-61.1375
11
65.1497
21
-61.0951
0
LINE
8
BLACK
6
CONTINUOUS
10
65.1497
20
-61.0951
11
65.1922
21
-61.0775
0
LINE
8
BLACK
6
CONTINUOUS
10
65.1922
20
-61.0775
11
65.4078
21
-61.0775
0
LINE
8
BLACK
6
CONTINUOUS
10
65.4078
20
-61.0775
11
65.4503
21
-61.0951
0
LINE
8
BLACK
6
CONTINUOUS
10
68.3203
20
-61.0951
11
68.3378
21
-61.1375
0
LINE
8
BLACK
6
CONTINUOUS
10
68.3378
20
-61.1375
11
68.3203
21
-61.1799
0
LINE
8
BLACK
6
CONTINUOUS
10
68.3203
20
-61.1799
11
68.2778
21
-61.1975
0
LINE
8
BLACK
6
CONTINUOUS
10
68.2778
20
-61.1975
11
68.0622
21
-61.1975
0
LINE
8
BLACK
6
CONTINUOUS
10
68.0622
20
-61.1975
11
68.0197
21
-61.1799
0
LINE
8
BLACK
6
CONTINUOUS
10
68.0197
20
-61.1799
11
68.0022
21
-61.1375
0
LINE
8
BLACK
6
CONTINUOUS
10
68.0022
20
-61.1375
11
68.0197
21
-61.0951
0
LINE
8
BLACK
6
CONTINUOUS
10
68.0197
20
-61.0951
11
68.0622
21
-61.0775
0
LINE
8
BLACK
6
CONTINUOUS
10
68.0622
20
-61.0775
11
68.2778
21
-61.0775
0
LINE
8
BLACK
6
CONTINUOUS
10
68.2778
20
-61.0775
11
68.3203
21
-61.0951
0
LINE
8
BLACK
6
CONTINUOUS
10
77.9024
20
-60.7851
11
77.92
21
-60.8275
0
LINE
8
BLACK
6
CONTINUOUS
10
77.92
20
-60.8275
11
77.9024
21
-60.8699
0
LINE
8
BLACK
6
CONTINUOUS
10
77.9024
20
-60.8699
11
77.86
21
-60.8875
0
LINE
8
BLACK
6
CONTINUOUS
10
77.86
20
-60.8875
11
77.385
21
-60.8875
0
LINE
8
BLACK
6
CONTINUOUS
10
77.385
20
-60.8875
11
77.3426
21
-60.8699
0
LINE
8
BLACK
6
CONTINUOUS
10
77.3426
20
-60.8699
11
77.325
21
-60.8275
0
LINE
8
BLACK
6
CONTINUOUS
10
77.325
20
-60.8275
11
77.3426
21
-60.7851
0
LINE
8
BLACK
6
CONTINUOUS
10
77.3426
20
-60.7851
11
77.385
21
-60.7675
0
LINE
8
BLACK
6
CONTINUOUS
10
77.385
20
-60.7675
11
77.86
21
-60.7675
0
LINE
8
BLACK
6
CONTINUOUS
10
77.86
20
-60.7675
11
77.9024
21
-60.7851
0
LINE
8
BLACK
6
CONTINUOUS
10
92.3761
20
-60.4776
11
92.3936
21
-60.52
0
LINE
8
BLACK
6
CONTINUOUS
10
92.3936
20
-60.52
11
92.3761
21
-60.5624
0
LINE
8
BLACK
6
CONTINUOUS
10
92.3761
20
-60.5624
11
92.3336
21
-60.58
0
LINE
8
BLACK
6
CONTINUOUS
10
92.3336
20
-60.58
11
92.0264
21
-60.58
0
LINE
8
BLACK
6
CONTINUOUS
10
92.0264
20
-60.58
11
91.9839
21
-60.5624
0
LINE
8
BLACK
6
CONTINUOUS
10
91.9839
20
-60.5624
11
91.9664
21
-60.52
0
LINE
8
BLACK
6
CONTINUOUS
10
91.9664
20
-60.52
11
91.9839
21
-60.4776
0
LINE
8
BLACK
6
CONTINUOUS
10
91.9839
20
-60.4776
11
92.0264
21
-60.46
0
LINE
8
BLACK
6
CONTINUOUS
10
92.0264
20
-60.46
11
92.3336
21
-60.46
0
LINE
8
BLACK
6
CONTINUOUS
10
92.3336
20
-60.46
11
92.3761
21
-60.4776
0
LINE
8
BLACK
6
CONTINUOUS
10
62.5803
20
-60.3751
11
62.5978
21
-60.4175
0
LINE
8
BLACK
6
CONTINUOUS
10
62.5978
20
-60.4175
11
62.5803
21
-60.4599
0
LINE
8
BLACK
6
CONTINUOUS
10
62.5803
20
-60.4599
11
62.5378
21
-60.4775
0
LINE
8
BLACK
6
CONTINUOUS
10
62.5378
20
-60.4775
11
62.3222
21
-60.4775
0
LINE
8
BLACK
6
CONTINUOUS
10
62.3222
20
-60.4775
11
62.2797
21
-60.4599
0
LINE
8
BLACK
6
CONTINUOUS
10
62.2797
20
-60.4599
11
62.2622
21
-60.4175
0
LINE
8
BLACK
6
CONTINUOUS
10
62.2622
20
-60.4175
11
62.2797
21
-60.3751
0
LINE
8
BLACK
6
CONTINUOUS
10
62.2797
20
-60.3751
11
62.3222
21
-60.3575
0
LINE
8
BLACK
6
CONTINUOUS
10
62.3222
20
-60.3575
11
62.5378
21
-60.3575
0
LINE
8
BLACK
6
CONTINUOUS
10
62.5378
20
-60.3575
11
62.5803
21
-60.3751
0
LINE
8
BLACK
6
CONTINUOUS
10
65.4503
20
-60.3751
11
65.4678
21
-60.4175
0
LINE
8
BLACK
6
CONTINUOUS
10
65.4678
20
-60.4175
11
65.4503
21
-60.4599
0
LINE
8
BLACK
6
CONTINUOUS
10
65.4503
20
-60.4599
11
65.4078
21
-60.4775
0
LINE
8
BLACK
6
CONTINUOUS
10
65.4078
20
-60.4775
11
65.1922
21
-60.4775
0
LINE
8
BLACK
6
CONTINUOUS
10
65.1922
20
-60.4775
11
65.1497
21
-60.4599
0
LINE
8
BLACK
6
CONTINUOUS
10
65.1497
20
-60.4599
11
65.1322
21
-60.4175
0
LINE
8
BLACK
6
CONTINUOUS
10
65.1322
20
-60.4175
11
65.1497
21
-60.3751
0
LINE
8
BLACK
6
CONTINUOUS
10
65.1497
20
-60.3751
11
65.1922
21
-60.3575
0
LINE
8
BLACK
6
CONTINUOUS
10
65.1922
20
-60.3575
11
65.4078
21
-60.3575
0
LINE
8
BLACK
6
CONTINUOUS
10
65.4078
20
-60.3575
11
65.4503
21
-60.3751
0
LINE
8
BLACK
6
CONTINUOUS
10
68.3203
20
-60.3751
11
68.3378
21
-60.4175
0
LINE
8
BLACK
6
CONTINUOUS
10
68.3378
20
-60.4175
11
68.3203
21
-60.4599
0
LINE
8
BLACK
6
CONTINUOUS
10
68.3203
20
-60.4599
11
68.2778
21
-60.4775
0
LINE
8
BLACK
6
CONTINUOUS
10
68.2778
20
-60.4775
11
68.0622
21
-60.4775
0
LINE
8
BLACK
6
CONTINUOUS
10
68.0622
20
-60.4775
11
68.0197
21
-60.4599
0
LINE
8
BLACK
6
CONTINUOUS
10
68.0197
20
-60.4599
11
68.0022
21
-60.4175
0
LINE
8
BLACK
6
CONTINUOUS
10
68.0022
20
-60.4175
11
68.0197
21
-60.3751
0
LINE
8
BLACK
6
CONTINUOUS
10
68.0197
20
-60.3751
11
68.0622
21
-60.3575
0
LINE
8
BLACK
6
CONTINUOUS
10
68.0622
20
-60.3575
11
68.2778
21
-60.3575
0
LINE
8
BLACK
6
CONTINUOUS
10
68.2778
20
-60.3575
11
68.3203
21
-60.3751
0
LINE
8
BLACK
6
CONTINUOUS
10
92.3761
20
-59.2476
11
92.3936
21
-59.29
0
LINE
8
BLACK
6
CONTINUOUS
10
92.3936
20
-59.29
11
92.3761
21
-59.3324
0
LINE
8
BLACK
6
CONTINUOUS
10
92.3761
20
-59.3324
11
92.3336
21
-59.35
0
LINE
8
BLACK
6
CONTINUOUS
10
92.3336
20
-59.35
11
92.0264
21
-59.35
0
LINE
8
BLACK
6
CONTINUOUS
10
92.0264
20
-59.35
11
91.9839
21
-59.3324
0
LINE
8
BLACK
6
CONTINUOUS
10
91.9839
20
-59.3324
11
91.9664
21
-59.29
0
LINE
8
BLACK
6
CONTINUOUS
10
91.9664
20
-59.29
11
91.9839
21
-59.2476
0
LINE
8
BLACK
6
CONTINUOUS
10
91.9839
20
-59.2476
11
92.0264
21
-59.23
0
LINE
8
BLACK
6
CONTINUOUS
10
92.0264
20
-59.23
11
92.3336
21
-59.23
0
LINE
8
BLACK
6
CONTINUOUS
10
92.3336
20
-59.23
11
92.3761
21
-59.2476
0
LINE
8
BLACK
6
CONTINUOUS
10
89.0524
20
-57.2676
11
89.07
21
-57.31
0
LINE
8
BLACK
6
CONTINUOUS
10
89.07
20
-57.31
11
89.07
21
-57.9456
0
LINE
8
BLACK
6
CONTINUOUS
10
89.07
20
-57.9456
11
89.0576
21
-57.9756
0
LINE
8
BLACK
6
CONTINUOUS
10
89.0576
20
-57.9756
11
89.0524
21
-57.988
0
LINE
8
BLACK
6
CONTINUOUS
10
89.0524
20
-57.988
11
87.988
21
-59.0524
0
LINE
8
BLACK
6
CONTINUOUS
10
87.988
20
-59.0524
11
87.988
21
-59.0524
0
LINE
8
BLACK
6
CONTINUOUS
10
87.988
20
-59.0524
11
87.9456
21
-59.07
0
LINE
8
BLACK
6
CONTINUOUS
10
87.9456
20
-59.07
11
83.49
21
-59.07
0
LINE
8
BLACK
6
CONTINUOUS
10
83.49
20
-59.07
11
83.4476
21
-59.0524
0
LINE
8
BLACK
6
CONTINUOUS
10
83.4476
20
-59.0524
11
83.43
21
-59.01
0
LINE
8
BLACK
6
CONTINUOUS
10
83.43
20
-59.01
11
83.43
21
-57.31
0
LINE
8
BLACK
6
CONTINUOUS
10
83.43
20
-57.31
11
83.4476
21
-57.2676
0
LINE
8
BLACK
6
CONTINUOUS
10
83.4476
20
-57.2676
11
83.49
21
-57.25
0
LINE
8
BLACK
6
CONTINUOUS
10
83.49
20
-57.25
11
83.5324
21
-57.2676
0
LINE
8
BLACK
6
CONTINUOUS
10
83.5324
20
-57.2676
11
83.55
21
-57.31
0
LINE
8
BLACK
6
CONTINUOUS
10
83.55
20
-57.31
11
83.55
21
-58.95
0
LINE
8
BLACK
6
CONTINUOUS
10
83.55
20
-58.95
11
87.9207
21
-58.95
0
LINE
8
BLACK
6
CONTINUOUS
10
87.9207
20
-58.95
11
88.95
21
-57.9207
0
LINE
8
BLACK
6
CONTINUOUS
10
88.95
20
-57.9207
11
88.95
21
-57.31
0
LINE
8
BLACK
6
CONTINUOUS
10
88.95
20
-57.31
11
88.9676
21
-57.2676
0
LINE
8
BLACK
6
CONTINUOUS
10
88.9676
20
-57.2676
11
89.01
21
-57.25
0
LINE
8
BLACK
6
CONTINUOUS
10
89.01
20
-57.25
11
89.0524
21
-57.2676
0
LINE
8
BLACK
6
CONTINUOUS
10
64.9324
20
-55.6251
11
64.95
21
-55.6675
0
LINE
8
BLACK
6
CONTINUOUS
10
64.95
20
-55.6675
11
64.95
21
-58.9675
0
LINE
8
BLACK
6
CONTINUOUS
10
64.95
20
-58.9675
11
64.9324
21
-59.0099
0
LINE
8
BLACK
6
CONTINUOUS
10
64.9324
20
-59.0099
11
64.89
21
-59.0275
0
LINE
8
BLACK
6
CONTINUOUS
10
64.89
20
-59.0275
11
60.89
21
-59.0275
0
LINE
8
BLACK
6
CONTINUOUS
10
60.89
20
-59.0275
11
60.8476
21
-59.0099
0
LINE
8
BLACK
6
CONTINUOUS
10
60.8476
20
-59.0099
11
60.83
21
-58.9675
0
LINE
8
BLACK
6
CONTINUOUS
10
60.83
20
-58.9675
11
60.8476
21
-58.9251
0
LINE
8
BLACK
6
CONTINUOUS
10
60.8476
20
-58.9251
11
60.89
21
-58.9075
0
LINE
8
BLACK
6
CONTINUOUS
10
60.89
20
-58.9075
11
64.83
21
-58.9075
0
LINE
8
BLACK
6
CONTINUOUS
10
64.83
20
-58.9075
11
64.83
21
-55.6675
0
LINE
8
BLACK
6
CONTINUOUS
10
64.83
20
-55.6675
11
64.8476
21
-55.6251
0
LINE
8
BLACK
6
CONTINUOUS
10
64.8476
20
-55.6251
11
64.89
21
-55.6075
0
LINE
8
BLACK
6
CONTINUOUS
10
64.89
20
-55.6075
11
64.9324
21
-55.6251
0
LINE
8
BLACK
6
CONTINUOUS
10
92.3761
20
-58.4876
11
92.3936
21
-58.53
0
LINE
8
BLACK
6
CONTINUOUS
10
92.3936
20
-58.53
11
92.3761
21
-58.5724
0
LINE
8
BLACK
6
CONTINUOUS
10
92.3761
20
-58.5724
11
92.3336
21
-58.59
0
LINE
8
BLACK
6
CONTINUOUS
10
92.3336
20
-58.59
11
92.0264
21
-58.59
0
LINE
8
BLACK
6
CONTINUOUS
10
92.0264
20
-58.59
11
91.9839
21
-58.5724
0
LINE
8
BLACK
6
CONTINUOUS
10
91.9839
20
-58.5724
11
91.9664
21
-58.53
0
LINE
8
BLACK
6
CONTINUOUS
10
91.9664
20
-58.53
11
91.9839
21
-58.4876
0
LINE
8
BLACK
6
CONTINUOUS
10
91.9839
20
-58.4876
11
92.0264
21
-58.47
0
LINE
8
BLACK
6
CONTINUOUS
10
92.0264
20
-58.47
11
92.3336
21
-58.47
0
LINE
8
BLACK
6
CONTINUOUS
10
92.3336
20
-58.47
11
92.3761
21
-58.4876
0
LINE
8
BLACK
6
CONTINUOUS
10
92.3761
20
-57.2576
11
92.3936
21
-57.3
0
LINE
8
BLACK
6
CONTINUOUS
10
92.3936
20
-57.3
11
92.3761
21
-57.3424
0
LINE
8
BLACK
6
CONTINUOUS
10
92.3761
20
-57.3424
11
92.3336
21
-57.36
0
LINE
8
BLACK
6
CONTINUOUS
10
92.3336
20
-57.36
11
92.0264
21
-57.36
0
LINE
8
BLACK
6
CONTINUOUS
10
92.0264
20
-57.36
11
91.9839
21
-57.3424
0
LINE
8
BLACK
6
CONTINUOUS
10
91.9839
20
-57.3424
11
91.9664
21
-57.3
0
LINE
8
BLACK
6
CONTINUOUS
10
91.9664
20
-57.3
11
91.9839
21
-57.2576
0
LINE
8
BLACK
6
CONTINUOUS
10
91.9839
20
-57.2576
11
92.0264
21
-57.24
0
LINE
8
BLACK
6
CONTINUOUS
10
92.0264
20
-57.24
11
92.3336
21
-57.24
0
LINE
8
BLACK
6
CONTINUOUS
10
92.3336
20
-57.24
11
92.3761
21
-57.2576
0
LINE
8
BLACK
6
CONTINUOUS
10
92.3761
20
-56.4976
11
92.3936
21
-56.54
0
LINE
8
BLACK
6
CONTINUOUS
10
92.3936
20
-56.54
11
92.3761
21
-56.5824
0
LINE
8
BLACK
6
CONTINUOUS
10
92.3761
20
-56.5824
11
92.3336
21
-56.6
0
LINE
8
BLACK
6
CONTINUOUS
10
92.3336
20
-56.6
11
92.0264
21
-56.6
0
LINE
8
BLACK
6
CONTINUOUS
10
92.0264
20
-56.6
11
91.9839
21
-56.5824
0
LINE
8
BLACK
6
CONTINUOUS
10
91.9839
20
-56.5824
11
91.9664
21
-56.54
0
LINE
8
BLACK
6
CONTINUOUS
10
91.9664
20
-56.54
11
91.9839
21
-56.4976
0
LINE
8
BLACK
6
CONTINUOUS
10
91.9839
20
-56.4976
11
92.0264
21
-56.48
0
LINE
8
BLACK
6
CONTINUOUS
10
92.0264
20
-56.48
11
92.3336
21
-56.48
0
LINE
8
BLACK
6
CONTINUOUS
10
92.3336
20
-56.48
11
92.3761
21
-56.4976
0
LINE
8
BLACK
6
CONTINUOUS
10
75.9414
20
-55.7054
11
75.9454
21
-55.7046
0
LINE
8
BLACK
6
CONTINUOUS
10
75.9454
20
-55.7046
11
75.9551
21
-55.7111
0
LINE
8
BLACK
6
CONTINUOUS
10
75.9551
20
-55.7111
11
75.9658
21
-55.7156
0
LINE
8
BLACK
6
CONTINUOUS
10
75.9658
20
-55.7156
11
75.9674
21
-55.7194
0
LINE
8
BLACK
6
CONTINUOUS
10
75.9674
20
-55.7194
11
75.9708
21
-55.7217
0
LINE
8
BLACK
6
CONTINUOUS
10
75.9708
20
-55.7217
11
76.0163
21
-55.7898
0
LINE
8
BLACK
6
CONTINUOUS
10
76.0163
20
-55.7898
11
76.0565
21
-55.83
0
LINE
8
BLACK
6
CONTINUOUS
10
76.0565
20
-55.83
11
76.0983
21
-55.8509
0
LINE
8
BLACK
6
CONTINUOUS
10
76.0983
20
-55.8509
11
76.1184
21
-55.8741
0
LINE
8
BLACK
6
CONTINUOUS
10
76.1184
20
-55.8741
11
76.1162
21
-55.9046
0
LINE
8
BLACK
6
CONTINUOUS
10
76.1162
20
-55.9046
11
76.0931
21
-55.9247
0
LINE
8
BLACK
6
CONTINUOUS
10
76.0931
20
-55.9247
11
76.0625
21
-55.9225
0
LINE
8
BLACK
6
CONTINUOUS
10
76.0625
20
-55.9225
11
76.0149
21
-55.8987
0
LINE
8
BLACK
6
CONTINUOUS
10
76.0149
20
-55.8987
11
76.0106
21
-55.8937
0
LINE
8
BLACK
6
CONTINUOUS
10
76.0106
20
-55.8937
11
76.0045
21
-55.8912
0
LINE
8
BLACK
6
CONTINUOUS
10
76.0045
20
-55.8912
11
75.9775
21
-55.8642
0
LINE
8
BLACK
6
CONTINUOUS
10
75.9775
20
-55.8642
11
75.9775
21
-56.2038
0
LINE
8
BLACK
6
CONTINUOUS
10
75.9775
20
-56.2038
11
76.0804
21
-56.2038
0
LINE
8
BLACK
6
CONTINUOUS
10
76.0804
20
-56.2038
11
76.1087
21
-56.2156
0
LINE
8
BLACK
6
CONTINUOUS
10
76.1087
20
-56.2156
11
76.1204
21
-56.2438
0
LINE
8
BLACK
6
CONTINUOUS
10
76.1204
20
-56.2438
11
76.1087
21
-56.2721
0
LINE
8
BLACK
6
CONTINUOUS
10
76.1087
20
-56.2721
11
76.0804
21
-56.2838
0
LINE
8
BLACK
6
CONTINUOUS
10
76.0804
20
-56.2838
11
75.9375
21
-56.2838
0
LINE
8
BLACK
6
CONTINUOUS
10
75.9375
20
-56.2838
11
75.7947
21
-56.2838
0
LINE
8
BLACK
6
CONTINUOUS
10
75.7947
20
-56.2838
11
75.7664
21
-56.2721
0
LINE
8
BLACK
6
CONTINUOUS
10
75.7664
20
-56.2721
11
75.7547
21
-56.2438
0
LINE
8
BLACK
6
CONTINUOUS
10
75.7547
20
-56.2438
11
75.7664
21
-56.2156
0
LINE
8
BLACK
6
CONTINUOUS
10
75.7664
20
-56.2156
11
75.7947
21
-56.2038
0
LINE
8
BLACK
6
CONTINUOUS
10
75.7947
20
-56.2038
11
75.8975
21
-56.2038
0
LINE
8
BLACK
6
CONTINUOUS
10
75.8975
20
-56.2038
11
75.8975
21
-55.7438
0
LINE
8
BLACK
6
CONTINUOUS
10
75.8975
20
-55.7438
11
75.8991
21
-55.74
0
LINE
8
BLACK
6
CONTINUOUS
10
75.8991
20
-55.74
11
75.8983
21
-55.736
0
LINE
8
BLACK
6
CONTINUOUS
10
75.8983
20
-55.736
11
75.9048
21
-55.7263
0
LINE
8
BLACK
6
CONTINUOUS
10
75.9048
20
-55.7263
11
75.9093
21
-55.7156
0
LINE
8
BLACK
6
CONTINUOUS
10
75.9093
20
-55.7156
11
75.9131
21
-55.714
0
LINE
8
BLACK
6
CONTINUOUS
10
75.9131
20
-55.714
11
75.9154
21
-55.7106
0
LINE
8
BLACK
6
CONTINUOUS
10
75.9154
20
-55.7106
11
75.9268
21
-55.7083
0
LINE
8
BLACK
6
CONTINUOUS
10
75.9268
20
-55.7083
11
75.9375
21
-55.7038
0
LINE
8
BLACK
6
CONTINUOUS
10
75.9375
20
-55.7038
11
75.9414
21
-55.7054
0
LINE
8
BLACK
6
CONTINUOUS
10
67.8775
20
-55.7156
11
67.8892
21
-55.7438
0
LINE
8
BLACK
6
CONTINUOUS
10
67.8892
20
-55.7438
11
67.8775
21
-55.7721
0
LINE
8
BLACK
6
CONTINUOUS
10
67.8775
20
-55.7721
11
67.8492
21
-55.7838
0
LINE
8
BLACK
6
CONTINUOUS
10
67.8492
20
-55.7838
11
67.5765
21
-55.7838
0
LINE
8
BLACK
6
CONTINUOUS
10
67.5765
20
-55.7838
11
67.7669
21
-56.2281
0
LINE
8
BLACK
6
CONTINUOUS
10
67.7669
20
-56.2281
11
67.7673
21
-56.2587
0
LINE
8
BLACK
6
CONTINUOUS
10
67.7673
20
-56.2587
11
67.7459
21
-56.2806
0
LINE
8
BLACK
6
CONTINUOUS
10
67.7459
20
-56.2806
11
67.7153
21
-56.281
0
LINE
8
BLACK
6
CONTINUOUS
10
67.7153
20
-56.281
11
67.6934
21
-56.2596
0
LINE
8
BLACK
6
CONTINUOUS
10
67.6934
20
-56.2596
11
67.4791
21
-55.7596
0
LINE
8
BLACK
6
CONTINUOUS
10
67.4791
20
-55.7596
11
67.479
21
-55.7514
0
LINE
8
BLACK
6
CONTINUOUS
10
67.479
20
-55.7514
11
67.4759
21
-55.7438
0
LINE
8
BLACK
6
CONTINUOUS
10
67.4759
20
-55.7438
11
67.4788
21
-55.7367
0
LINE
8
BLACK
6
CONTINUOUS
10
67.4788
20
-55.7367
11
67.4787
21
-55.729
0
LINE
8
BLACK
6
CONTINUOUS
10
67.4787
20
-55.729
11
67.4845
21
-55.7231
0
LINE
8
BLACK
6
CONTINUOUS
10
67.4845
20
-55.7231
11
67.4876
21
-55.7156
0
LINE
8
BLACK
6
CONTINUOUS
10
67.4876
20
-55.7156
11
67.4947
21
-55.7126
0
LINE
8
BLACK
6
CONTINUOUS
10
67.4947
20
-55.7126
11
67.5001
21
-55.7071
0
LINE
8
BLACK
6
CONTINUOUS
10
67.5001
20
-55.7071
11
67.5083
21
-55.707
0
LINE
8
BLACK
6
CONTINUOUS
10
67.5083
20
-55.707
11
67.5159
21
-55.7038
0
LINE
8
BLACK
6
CONTINUOUS
10
67.5159
20
-55.7038
11
67.8492
21
-55.7038
0
LINE
8
BLACK
6
CONTINUOUS
10
67.8492
20
-55.7038
11
67.8775
21
-55.7156
0
LINE
8
BLACK
6
CONTINUOUS
10
92.3761
20
-55.2676
11
92.3936
21
-55.31
0
LINE
8
BLACK
6
CONTINUOUS
10
92.3936
20
-55.31
11
92.3761
21
-55.3524
0
LINE
8
BLACK
6
CONTINUOUS
10
92.3761
20
-55.3524
11
92.3336
21
-55.37
0
LINE
8
BLACK
6
CONTINUOUS
10
92.3336
20
-55.37
11
92.0264
21
-55.37
0
LINE
8
BLACK
6
CONTINUOUS
10
92.0264
20
-55.37
11
91.9839
21
-55.3524
0
LINE
8
BLACK
6
CONTINUOUS
10
91.9839
20
-55.3524
11
91.9664
21
-55.31
0
LINE
8
BLACK
6
CONTINUOUS
10
91.9664
20
-55.31
11
91.9839
21
-55.2676
0
LINE
8
BLACK
6
CONTINUOUS
10
91.9839
20
-55.2676
11
92.0264
21
-55.25
0
LINE
8
BLACK
6
CONTINUOUS
10
92.0264
20
-55.25
11
92.3336
21
-55.25
0
LINE
8
BLACK
6
CONTINUOUS
10
92.3336
20
-55.25
11
92.3761
21
-55.2676
0
LINE
8
BLACK
6
CONTINUOUS
10
87.988
20
-53.4476
11
89.0524
21
-54.512
0
LINE
8
BLACK
6
CONTINUOUS
10
89.0524
20
-54.512
11
89.0576
21
-54.5244
0
LINE
8
BLACK
6
CONTINUOUS
10
89.0576
20
-54.5244
11
89.07
21
-54.5544
0
LINE
8
BLACK
6
CONTINUOUS
10
89.07
20
-54.5544
11
89.07
21
-55.19
0
LINE
8
BLACK
6
CONTINUOUS
10
89.07
20
-55.19
11
89.0524
21
-55.2324
0
LINE
8
BLACK
6
CONTINUOUS
10
89.0524
20
-55.2324
11
89.01
21
-55.25
0
LINE
8
BLACK
6
CONTINUOUS
10
89.01
20
-55.25
11
88.9676
21
-55.2324
0
LINE
8
BLACK
6
CONTINUOUS
10
88.9676
20
-55.2324
11
88.95
21
-55.19
0
LINE
8
BLACK
6
CONTINUOUS
10
88.95
20
-55.19
11
88.95
21
-54.5793
0
LINE
8
BLACK
6
CONTINUOUS
10
88.95
20
-54.5793
11
87.9207
21
-53.55
0
LINE
8
BLACK
6
CONTINUOUS
10
87.9207
20
-53.55
11
83.55
21
-53.55
0
LINE
8
BLACK
6
CONTINUOUS
10
83.55
20
-53.55
11
83.55
21
-55.19
0
LINE
8
BLACK
6
CONTINUOUS
10
83.55
20
-55.19
11
83.5324
21
-55.2324
0
LINE
8
BLACK
6
CONTINUOUS
10
83.5324
20
-55.2324
11
83.49
21
-55.25
0
LINE
8
BLACK
6
CONTINUOUS
10
83.49
20
-55.25
11
83.4476
21
-55.2324
0
LINE
8
BLACK
6
CONTINUOUS
10
83.4476
20
-55.2324
11
83.43
21
-55.19
0
LINE
8
BLACK
6
CONTINUOUS
10
83.43
20
-55.19
11
83.43
21
-53.49
0
LINE
8
BLACK
6
CONTINUOUS
10
83.43
20
-53.49
11
83.4476
21
-53.4476
0
LINE
8
BLACK
6
CONTINUOUS
10
83.4476
20
-53.4476
11
83.49
21
-53.43
0
LINE
8
BLACK
6
CONTINUOUS
10
83.49
20
-53.43
11
87.9456
21
-53.43
0
LINE
8
BLACK
6
CONTINUOUS
10
87.9456
20
-53.43
11
87.988
21
-53.4476
0
LINE
8
BLACK
6
CONTINUOUS
10
89.6049
20
-54.2101
11
89.6225
21
-54.2525
0
LINE
8
BLACK
6
CONTINUOUS
10
89.6225
20
-54.2525
11
89.6225
21
-54.505
0
LINE
8
BLACK
6
CONTINUOUS
10
89.6225
20
-54.505
11
89.875
21
-54.505
0
LINE
8
BLACK
6
CONTINUOUS
10
89.875
20
-54.505
11
89.9174
21
-54.5226
0
LINE
8
BLACK
6
CONTINUOUS
10
89.9174
20
-54.5226
11
89.935
21
-54.565
0
LINE
8
BLACK
6
CONTINUOUS
10
89.935
20
-54.565
11
89.9174
21
-54.6074
0
LINE
8
BLACK
6
CONTINUOUS
10
89.9174
20
-54.6074
11
89.875
21
-54.625
0
LINE
8
BLACK
6
CONTINUOUS
10
89.875
20
-54.625
11
89.6225
21
-54.625
0
LINE
8
BLACK
6
CONTINUOUS
10
89.6225
20
-54.625
11
89.6225
21
-54.8775
0
LINE
8
BLACK
6
CONTINUOUS
10
89.6225
20
-54.8775
11
89.6049
21
-54.9199
0
LINE
8
BLACK
6
CONTINUOUS
10
89.6049
20
-54.9199
11
89.5625
21
-54.9375
0
LINE
8
BLACK
6
CONTINUOUS
10
89.5625
20
-54.9375
11
89.5201
21
-54.9199
0
LINE
8
BLACK
6
CONTINUOUS
10
89.5201
20
-54.9199
11
89.5025
21
-54.8775
0
LINE
8
BLACK
6
CONTINUOUS
10
89.5025
20
-54.8775
11
89.5025
21
-54.625
0
LINE
8
BLACK
6
CONTINUOUS
10
89.5025
20
-54.625
11
89.25
21
-54.625
0
LINE
8
BLACK
6
CONTINUOUS
10
89.25
20
-54.625
11
89.2076
21
-54.6074
0
LINE
8
BLACK
6
CONTINUOUS
10
89.2076
20
-54.6074
11
89.19
21
-54.565
0
LINE
8
BLACK
6
CONTINUOUS
10
89.19
20
-54.565
11
89.2076
21
-54.5226
0
LINE
8
BLACK
6
CONTINUOUS
10
89.2076
20
-54.5226
11
89.25
21
-54.505
0
LINE
8
BLACK
6
CONTINUOUS
10
89.25
20
-54.505
11
89.5025
21
-54.505
0
LINE
8
BLACK
6
CONTINUOUS
10
89.5025
20
-54.505
11
89.5025
21
-54.2525
0
LINE
8
BLACK
6
CONTINUOUS
10
89.5025
20
-54.2525
11
89.5201
21
-54.2101
0
LINE
8
BLACK
6
CONTINUOUS
10
89.5201
20
-54.2101
11
89.5625
21
-54.1925
0
LINE
8
BLACK
6
CONTINUOUS
10
89.5625
20
-54.1925
11
89.6049
21
-54.2101
0
LINE
8
BLACK
6
CONTINUOUS
10
92.3761
20
-54.5076
11
92.3936
21
-54.55
0
LINE
8
BLACK
6
CONTINUOUS
10
92.3936
20
-54.55
11
92.3761
21
-54.5924
0
LINE
8
BLACK
6
CONTINUOUS
10
92.3761
20
-54.5924
11
92.3336
21
-54.61
0
LINE
8
BLACK
6
CONTINUOUS
10
92.3336
20
-54.61
11
92.0264
21
-54.61
0
LINE
8
BLACK
6
CONTINUOUS
10
92.0264
20
-54.61
11
91.9839
21
-54.5924
0
LINE
8
BLACK
6
CONTINUOUS
10
91.9839
20
-54.5924
11
91.9664
21
-54.55
0
LINE
8
BLACK
6
CONTINUOUS
10
91.9664
20
-54.55
11
91.9839
21
-54.5076
0
LINE
8
BLACK
6
CONTINUOUS
10
91.9839
20
-54.5076
11
92.0264
21
-54.49
0
LINE
8
BLACK
6
CONTINUOUS
10
92.0264
20
-54.49
11
92.3336
21
-54.49
0
LINE
8
BLACK
6
CONTINUOUS
10
92.3336
20
-54.49
11
92.3761
21
-54.5076
0
LINE
8
BLACK
6
CONTINUOUS
10
64.955
20
-52.7075
11
64.9974
21
-52.7251
0
LINE
8
BLACK
6
CONTINUOUS
10
64.9974
20
-52.7251
11
65.015
21
-52.7675
0
LINE
8
BLACK
6
CONTINUOUS
10
65.015
20
-52.7675
11
65.015
21
-54.4675
0
LINE
8
BLACK
6
CONTINUOUS
10
65.015
20
-54.4675
11
64.9974
21
-54.5099
0
LINE
8
BLACK
6
CONTINUOUS
10
64.9974
20
-54.5099
11
64.955
21
-54.5275
0
LINE
8
BLACK
6
CONTINUOUS
10
64.955
20
-54.5275
11
62.295
21
-54.5275
0
LINE
8
BLACK
6
CONTINUOUS
10
62.295
20
-54.5275
11
62.2526
21
-54.5099
0
LINE
8
BLACK
6
CONTINUOUS
10
62.2526
20
-54.5099
11
62.235
21
-54.4675
0
LINE
8
BLACK
6
CONTINUOUS
10
62.235
20
-54.4675
11
62.2526
21
-54.4251
0
LINE
8
BLACK
6
CONTINUOUS
10
62.2526
20
-54.4251
11
62.295
21
-54.4075
0
LINE
8
BLACK
6
CONTINUOUS
10
62.295
20
-54.4075
11
64.895
21
-54.4075
0
LINE
8
BLACK
6
CONTINUOUS
10
64.895
20
-54.4075
11
64.895
21
-52.8275
0
LINE
8
BLACK
6
CONTINUOUS
10
64.895
20
-52.8275
11
62.295
21
-52.8275
0
LINE
8
BLACK
6
CONTINUOUS
10
62.295
20
-52.8275
11
62.2526
21
-52.8099
0
LINE
8
BLACK
6
CONTINUOUS
10
62.2526
20
-52.8099
11
62.235
21
-52.7675
0
LINE
8
BLACK
6
CONTINUOUS
10
62.235
20
-52.7675
11
62.2526
21
-52.7251
0
LINE
8
BLACK
6
CONTINUOUS
10
62.2526
20
-52.7251
11
62.295
21
-52.7075
0
LINE
8
BLACK
6
CONTINUOUS
10
62.295
20
-52.7075
11
64.955
21
-52.7075
0
LINE
8
BLACK
6
CONTINUOUS
10
67.7388
20
-52.7229
11
67.7481
21
-52.7236
0
LINE
8
BLACK
6
CONTINUOUS
10
67.7481
20
-52.7236
11
67.7957
21
-52.7474
0
LINE
8
BLACK
6
CONTINUOUS
10
67.7957
20
-52.7474
11
67.8
21
-52.7524
0
LINE
8
BLACK
6
CONTINUOUS
10
67.8
20
-52.7524
11
67.8061
21
-52.7549
0
LINE
8
BLACK
6
CONTINUOUS
10
67.8061
20
-52.7549
11
67.8299
21
-52.7787
0
LINE
8
BLACK
6
CONTINUOUS
10
67.8299
20
-52.7787
11
67.8324
21
-52.7848
0
LINE
8
BLACK
6
CONTINUOUS
10
67.8324
20
-52.7848
11
67.8374
21
-52.7891
0
LINE
8
BLACK
6
CONTINUOUS
10
67.8374
20
-52.7891
11
67.8612
21
-52.8367
0
LINE
8
BLACK
6
CONTINUOUS
10
67.8612
20
-52.8367
11
67.8618
21
-52.846
0
LINE
8
BLACK
6
CONTINUOUS
10
67.8618
20
-52.846
11
67.8654
21
-52.8546
0
LINE
8
BLACK
6
CONTINUOUS
10
67.8654
20
-52.8546
11
67.8654
21
-52.8784
0
LINE
8
BLACK
6
CONTINUOUS
10
67.8654
20
-52.8784
11
67.8618
21
-52.887
0
LINE
8
BLACK
6
CONTINUOUS
10
67.8618
20
-52.887
11
67.8612
21
-52.8963
0
LINE
8
BLACK
6
CONTINUOUS
10
67.8612
20
-52.8963
11
67.8374
21
-52.9439
0
LINE
8
BLACK
6
CONTINUOUS
10
67.8374
20
-52.9439
11
67.8324
21
-52.9482
0
LINE
8
BLACK
6
CONTINUOUS
10
67.8324
20
-52.9482
11
67.8299
21
-52.9543
0
LINE
8
BLACK
6
CONTINUOUS
10
67.8299
20
-52.9543
11
67.8105
21
-52.9736
0
LINE
8
BLACK
6
CONTINUOUS
10
67.8105
20
-52.9736
11
67.8299
21
-52.993
0
LINE
8
BLACK
6
CONTINUOUS
10
67.8299
20
-52.993
11
67.8324
21
-52.9991
0
LINE
8
BLACK
6
CONTINUOUS
10
67.8324
20
-52.9991
11
67.8374
21
-53.0034
0
LINE
8
BLACK
6
CONTINUOUS
10
67.8374
20
-53.0034
11
67.8612
21
-53.051
0
LINE
8
BLACK
6
CONTINUOUS
10
67.8612
20
-53.051
11
67.8618
21
-53.0603
0
LINE
8
BLACK
6
CONTINUOUS
10
67.8618
20
-53.0603
11
67.8654
21
-53.0689
0
LINE
8
BLACK
6
CONTINUOUS
10
67.8654
20
-53.0689
11
67.8654
21
-53.1641
0
LINE
8
BLACK
6
CONTINUOUS
10
67.8654
20
-53.1641
11
67.8618
21
-53.1727
0
LINE
8
BLACK
6
CONTINUOUS
10
67.8618
20
-53.1727
11
67.8612
21
-53.182
0
LINE
8
BLACK
6
CONTINUOUS
10
67.8612
20
-53.182
11
67.8374
21
-53.2296
0
LINE
8
BLACK
6
CONTINUOUS
10
67.8374
20
-53.2296
11
67.8324
21
-53.2339
0
LINE
8
BLACK
6
CONTINUOUS
10
67.8324
20
-53.2339
11
67.8299
21
-53.24
0
LINE
8
BLACK
6
CONTINUOUS
10
67.8299
20
-53.24
11
67.8061
21
-53.2638
0
LINE
8
BLACK
6
CONTINUOUS
10
67.8061
20
-53.2638
11
67.8
21
-53.2663
0
LINE
8
BLACK
6
CONTINUOUS
10
67.8
20
-53.2663
11
67.7957
21
-53.2713
0
LINE
8
BLACK
6
CONTINUOUS
10
67.7957
20
-53.2713
11
67.7481
21
-53.2951
0
LINE
8
BLACK
6
CONTINUOUS
10
67.7481
20
-53.2951
11
67.7388
21
-53.2958
0
LINE
8
BLACK
6
CONTINUOUS
10
67.7388
20
-53.2958
11
67.7302
21
-53.2993
0
LINE
8
BLACK
6
CONTINUOUS
10
67.7302
20
-53.2993
11
67.6349
21
-53.2993
0
LINE
8
BLACK
6
CONTINUOUS
10
67.6349
20
-53.2993
11
67.6263
21
-53.2958
0
LINE
8
BLACK
6
CONTINUOUS
10
67.6263
20
-53.2958
11
67.617
21
-53.2951
0
LINE
8
BLACK
6
CONTINUOUS
10
67.617
20
-53.2951
11
67.5694
21
-53.2713
0
LINE
8
BLACK
6
CONTINUOUS
10
67.5694
20
-53.2713
11
67.5651
21
-53.2663
0
LINE
8
BLACK
6
CONTINUOUS
10
67.5651
20
-53.2663
11
67.559
21
-53.2638
0
LINE
8
BLACK
6
CONTINUOUS
10
67.559
20
-53.2638
11
67.5352
21
-53.24
0
LINE
8
BLACK
6
CONTINUOUS
10
67.5352
20
-53.24
11
67.5327
21
-53.2339
0
LINE
8
BLACK
6
CONTINUOUS
10
67.5327
20
-53.2339
11
67.5277
21
-53.2296
0
LINE
8
BLACK
6
CONTINUOUS
10
67.5277
20
-53.2296
11
67.5039
21
-53.182
0
LINE
8
BLACK
6
CONTINUOUS
10
67.5039
20
-53.182
11
67.5033
21
-53.1727
0
LINE
8
BLACK
6
CONTINUOUS
10
67.5033
20
-53.1727
11
67.4997
21
-53.1641
0
LINE
8
BLACK
6
CONTINUOUS
10
67.4997
20
-53.1641
11
67.4997
21
-53.0689
0
LINE
8
BLACK
6
CONTINUOUS
10
67.4997
20
-53.0689
11
67.5033
21
-53.0603
0
LINE
8
BLACK
6
CONTINUOUS
10
67.5033
20
-53.0603
11
67.5039
21
-53.051
0
LINE
8
BLACK
6
CONTINUOUS
10
67.5039
20
-53.051
11
67.5277
21
-53.0034
0
LINE
8
BLACK
6
CONTINUOUS
10
67.5277
20
-53.0034
11
67.5327
21
-52.9991
0
LINE
8
BLACK
6
CONTINUOUS
10
67.5327
20
-52.9991
11
67.5352
21
-52.993
0
LINE
8
BLACK
6
CONTINUOUS
10
67.5352
20
-52.993
11
67.5546
21
-52.9736
0
LINE
8
BLACK
6
CONTINUOUS
10
67.5546
20
-52.9736
11
67.5352
21
-52.9543
0
LINE
8
BLACK
6
CONTINUOUS
10
67.5352
20
-52.9543
11
67.5327
21
-52.9482
0
LINE
8
BLACK
6
CONTINUOUS
10
67.5327
20
-52.9482
11
67.5277
21
-52.9439
0
LINE
8
BLACK
6
CONTINUOUS
10
67.5277
20
-52.9439
11
67.5039
21
-52.8963
0
LINE
8
BLACK
6
CONTINUOUS
10
67.5039
20
-52.8963
11
67.5033
21
-52.887
0
LINE
8
BLACK
6
CONTINUOUS
10
67.5033
20
-52.887
11
67.4997
21
-52.8784
0
LINE
8
BLACK
6
CONTINUOUS
10
67.4997
20
-52.8784
11
67.4997
21
-52.8546
0
LINE
8
BLACK
6
CONTINUOUS
10
67.4997
20
-52.8546
11
67.5033
21
-52.846
0
LINE
8
BLACK
6
CONTINUOUS
10
67.5033
20
-52.846
11
67.5039
21
-52.8367
0
LINE
8
BLACK
6
CONTINUOUS
10
67.5039
20
-52.8367
11
67.5277
21
-52.7891
0
LINE
8
BLACK
6
CONTINUOUS
10
67.5277
20
-52.7891
11
67.5327
21
-52.7848
0
LINE
8
BLACK
6
CONTINUOUS
10
67.5327
20
-52.7848
11
67.5352
21
-52.7787
0
LINE
8
BLACK
6
CONTINUOUS
10
67.5352
20
-52.7787
11
67.559
21
-52.7549
0
LINE
8
BLACK
6
CONTINUOUS
10
67.559
20
-52.7549
11
67.5651
21
-52.7524
0
LINE
8
BLACK
6
CONTINUOUS
10
67.5651
20
-52.7524
11
67.5694
21
-52.7474
0
LINE
8
BLACK
6
CONTINUOUS
10
67.5694
20
-52.7474
11
67.617
21
-52.7236
0
LINE
8
BLACK
6
CONTINUOUS
10
67.617
20
-52.7236
11
67.6263
21
-52.7229
0
LINE
8
BLACK
6
CONTINUOUS
10
67.6263
20
-52.7229
11
67.6349
21
-52.7193
0
LINE
8
BLACK
6
CONTINUOUS
10
67.6349
20
-52.7193
11
67.7302
21
-52.7193
0
LINE
8
BLACK
6
CONTINUOUS
10
67.7302
20
-52.7193
11
67.7388
21
-52.7229
0
LINE
8
BLACK
6
CONTINUOUS
10
67.611
20
-53.0303
11
67.5964
21
-53.0449
0
LINE
8
BLACK
6
CONTINUOUS
10
67.5964
20
-53.0449
11
67.5797
21
-53.0783
0
LINE
8
BLACK
6
CONTINUOUS
10
67.5797
20
-53.0783
11
67.5797
21
-53.1547
0
LINE
8
BLACK
6
CONTINUOUS
10
67.5797
20
-53.1547
11
67.5964
21
-53.188
0
LINE
8
BLACK
6
CONTINUOUS
10
67.5964
20
-53.188
11
67.611
21
-53.2027
0
LINE
8
BLACK
6
CONTINUOUS
10
67.611
20
-53.2027
11
67.6444
21
-53.2193
0
LINE
8
BLACK
6
CONTINUOUS
10
67.6444
20
-53.2193
11
67.7207
21
-53.2193
0
LINE
8
BLACK
6
CONTINUOUS
10
67.7207
20
-53.2193
11
67.7541
21
-53.2027
0
LINE
8
BLACK
6
CONTINUOUS
10
67.7541
20
-53.2027
11
67.7687
21
-53.188
0
LINE
8
BLACK
6
CONTINUOUS
10
67.7687
20
-53.188
11
67.7854
21
-53.1547
0
LINE
8
BLACK
6
CONTINUOUS
10
67.7854
20
-53.1547
11
67.7854
21
-53.0783
0
LINE
8
BLACK
6
CONTINUOUS
10
67.7854
20
-53.0783
11
67.7687
21
-53.0449
0
LINE
8
BLACK
6
CONTINUOUS
10
67.7687
20
-53.0449
11
67.7541
21
-53.0303
0
LINE
8
BLACK
6
CONTINUOUS
10
67.7541
20
-53.0303
11
67.7207
21
-53.0136
0
LINE
8
BLACK
6
CONTINUOUS
10
67.7207
20
-53.0136
11
67.6444
21
-53.0136
0
LINE
8
BLACK
6
CONTINUOUS
10
67.6444
20
-53.0136
11
67.611
21
-53.0303
0
LINE
8
BLACK
6
CONTINUOUS
10
67.611
20
-52.816
11
67.5964
21
-52.8307
0
LINE
8
BLACK
6
CONTINUOUS
10
67.5964
20
-52.8307
11
67.5797
21
-52.864
0
LINE
8
BLACK
6
CONTINUOUS
10
67.5797
20
-52.864
11
67.5797
21
-52.869
0
LINE
8
BLACK
6
CONTINUOUS
10
67.5797
20
-52.869
11
67.5964
21
-52.9023
0
LINE
8
BLACK
6
CONTINUOUS
10
67.5964
20
-52.9023
11
67.611
21
-52.9169
0
LINE
8
BLACK
6
CONTINUOUS
10
67.611
20
-52.9169
11
67.6444
21
-52.9336
0
LINE
8
BLACK
6
CONTINUOUS
10
67.6444
20
-52.9336
11
67.7207
21
-52.9336
0
LINE
8
BLACK
6
CONTINUOUS
10
67.7207
20
-52.9336
11
67.7541
21
-52.9169
0
LINE
8
BLACK
6
CONTINUOUS
10
67.7541
20
-52.9169
11
67.7687
21
-52.9023
0
LINE
8
BLACK
6
CONTINUOUS
10
67.7687
20
-52.9023
11
67.7854
21
-52.869
0
LINE
8
BLACK
6
CONTINUOUS
10
67.7854
20
-52.869
11
67.7854
21
-52.864
0
LINE
8
BLACK
6
CONTINUOUS
10
67.7854
20
-52.864
11
67.7687
21
-52.8307
0
LINE
8
BLACK
6
CONTINUOUS
10
67.7687
20
-52.8307
11
67.7541
21
-52.816
0
LINE
8
BLACK
6
CONTINUOUS
10
67.7541
20
-52.816
11
67.7207
21
-52.7993
0
LINE
8
BLACK
6
CONTINUOUS
10
67.7207
20
-52.7993
11
67.6444
21
-52.7993
0
LINE
8
BLACK
6
CONTINUOUS
10
67.6444
20
-52.7993
11
67.611
21
-52.816
0
LINE
8
BLACK
6
CONTINUOUS
10
75.7412
20
-52.6998
11
75.7612
21
-52.7229
0
LINE
8
BLACK
6
CONTINUOUS
10
75.7612
20
-52.7229
11
75.8803
21
-53.08
0
LINE
8
BLACK
6
CONTINUOUS
10
75.8803
20
-53.08
11
75.8798
21
-53.0866
0
LINE
8
BLACK
6
CONTINUOUS
10
75.8798
20
-53.0866
11
75.8823
21
-53.0927
0
LINE
8
BLACK
6
CONTINUOUS
10
75.8823
20
-53.0927
11
75.8787
21
-53.1013
0
LINE
8
BLACK
6
CONTINUOUS
10
75.8787
20
-53.1013
11
75.8781
21
-53.1106
0
LINE
8
BLACK
6
CONTINUOUS
10
75.8781
20
-53.1106
11
75.8731
21
-53.1149
0
LINE
8
BLACK
6
CONTINUOUS
10
75.8731
20
-53.1149
11
75.8706
21
-53.121
0
LINE
8
BLACK
6
CONTINUOUS
10
75.8706
20
-53.121
11
75.862
21
-53.1245
0
LINE
8
BLACK
6
CONTINUOUS
10
75.862
20
-53.1245
11
75.855
21
-53.1306
0
LINE
8
BLACK
6
CONTINUOUS
10
75.855
20
-53.1306
11
75.8484
21
-53.1302
0
LINE
8
BLACK
6
CONTINUOUS
10
75.8484
20
-53.1302
11
75.8423
21
-53.1327
0
LINE
8
BLACK
6
CONTINUOUS
10
75.8423
20
-53.1327
11
75.6442
21
-53.1327
0
LINE
8
BLACK
6
CONTINUOUS
10
75.6442
20
-53.1327
11
75.6442
21
-53.2593
0
LINE
8
BLACK
6
CONTINUOUS
10
75.6442
20
-53.2593
11
75.6325
21
-53.2876
0
LINE
8
BLACK
6
CONTINUOUS
10
75.6325
20
-53.2876
11
75.6042
21
-53.2993
0
LINE
8
BLACK
6
CONTINUOUS
10
75.6042
20
-53.2993
11
75.5759
21
-53.2876
0
LINE
8
BLACK
6
CONTINUOUS
10
75.5759
20
-53.2876
11
75.5642
21
-53.2593
0
LINE
8
BLACK
6
CONTINUOUS
10
75.5642
20
-53.2593
11
75.5642
21
-53.1327
0
LINE
8
BLACK
6
CONTINUOUS
10
75.5642
20
-53.1327
11
75.5328
21
-53.1327
0
LINE
8
BLACK
6
CONTINUOUS
10
75.5328
20
-53.1327
11
75.5045
21
-53.121
0
LINE
8
BLACK
6
CONTINUOUS
10
75.5045
20
-53.121
11
75.4928
21
-53.0927
0
LINE
8
BLACK
6
CONTINUOUS
10
75.4928
20
-53.0927
11
75.5045
21
-53.0644
0
LINE
8
BLACK
6
CONTINUOUS
10
75.5045
20
-53.0644
11
75.5328
21
-53.0527
0
LINE
8
BLACK
6
CONTINUOUS
10
75.5328
20
-53.0527
11
75.5642
21
-53.0527
0
LINE
8
BLACK
6
CONTINUOUS
10
75.5642
20
-53.0527
11
75.5642
21
-52.926
0
LINE
8
BLACK
6
CONTINUOUS
10
75.5642
20
-52.926
11
75.5759
21
-52.8977
0
LINE
8
BLACK
6
CONTINUOUS
10
75.5759
20
-52.8977
11
75.6042
21
-52.886
0
LINE
8
BLACK
6
CONTINUOUS
10
75.6042
20
-52.886
11
75.6325
21
-52.8977
0
LINE
8
BLACK
6
CONTINUOUS
10
75.6325
20
-52.8977
11
75.6442
21
-52.926
0
LINE
8
BLACK
6
CONTINUOUS
10
75.6442
20
-52.926
11
75.6442
21
-53.0527
0
LINE
8
BLACK
6
CONTINUOUS
10
75.6442
20
-53.0527
11
75.7868
21
-53.0527
0
LINE
8
BLACK
6
CONTINUOUS
10
75.7868
20
-53.0527
11
75.6853
21
-52.7482
0
LINE
8
BLACK
6
CONTINUOUS
10
75.6853
20
-52.7482
11
75.6875
21
-52.7177
0
LINE
8
BLACK
6
CONTINUOUS
10
75.6875
20
-52.7177
11
75.7106
21
-52.6976
0
LINE
8
BLACK
6
CONTINUOUS
10
75.7106
20
-52.6976
11
75.7412
21
-52.6998
0
LINE
8
BLACK
6
CONTINUOUS
10
76.1794
20
-52.7209
11
76.1835
21
-52.7201
0
LINE
8
BLACK
6
CONTINUOUS
10
76.1835
20
-52.7201
11
76.1932
21
-52.7266
0
LINE
8
BLACK
6
CONTINUOUS
10
76.1932
20
-52.7266
11
76.2039
21
-52.7311
0
LINE
8
BLACK
6
CONTINUOUS
10
76.2039
20
-52.7311
11
76.2055
21
-52.7349
0
LINE
8
BLACK
6
CONTINUOUS
10
76.2055
20
-52.7349
11
76.2089
21
-52.7372
0
LINE
8
BLACK
6
CONTINUOUS
10
76.2089
20
-52.7372
11
76.2543
21
-52.8053
0
LINE
8
BLACK
6
CONTINUOUS
10
76.2543
20
-52.8053
11
76.2946
21
-52.8455
0
LINE
8
BLACK
6
CONTINUOUS
10
76.2946
20
-52.8455
11
76.3364
21
-52.8664
0
LINE
8
BLACK
6
CONTINUOUS
10
76.3364
20
-52.8664
11
76.3564
21
-52.8896
0
LINE
8
BLACK
6
CONTINUOUS
10
76.3564
20
-52.8896
11
76.3543
21
-52.9201
0
LINE
8
BLACK
6
CONTINUOUS
10
76.3543
20
-52.9201
11
76.3311
21
-52.9402
0
LINE
8
BLACK
6
CONTINUOUS
10
76.3311
20
-52.9402
11
76.3006
21
-52.938
0
LINE
8
BLACK
6
CONTINUOUS
10
76.3006
20
-52.938
11
76.253
21
-52.9142
0
LINE
8
BLACK
6
CONTINUOUS
10
76.253
20
-52.9142
11
76.2487
21
-52.9092
0
LINE
8
BLACK
6
CONTINUOUS
10
76.2487
20
-52.9092
11
76.2426
21
-52.9067
0
LINE
8
BLACK
6
CONTINUOUS
10
76.2426
20
-52.9067
11
76.2156
21
-52.8797
0
LINE
8
BLACK
6
CONTINUOUS
10
76.2156
20
-52.8797
11
76.2156
21
-53.2193
0
LINE
8
BLACK
6
CONTINUOUS
10
76.2156
20
-53.2193
11
76.3185
21
-53.2193
0
LINE
8
BLACK
6
CONTINUOUS
10
76.3185
20
-53.2193
11
76.3468
21
-53.2311
0
LINE
8
BLACK
6
CONTINUOUS
10
76.3468
20
-53.2311
11
76.3585
21
-53.2593
0
LINE
8
BLACK
6
CONTINUOUS
10
76.3585
20
-53.2593
11
76.3468
21
-53.2876
0
LINE
8
BLACK
6
CONTINUOUS
10
76.3468
20
-53.2876
11
76.3185
21
-53.2993
0
LINE
8
BLACK
6
CONTINUOUS
10
76.3185
20
-53.2993
11
76.1756
21
-53.2993
0
LINE
8
BLACK
6
CONTINUOUS
10
76.1756
20
-53.2993
11
76.0328
21
-53.2993
0
LINE
8
BLACK
6
CONTINUOUS
10
76.0328
20
-53.2993
11
76.0045
21
-53.2876
0
LINE
8
BLACK
6
CONTINUOUS
10
76.0045
20
-53.2876
11
75.9928
21
-53.2593
0
LINE
8
BLACK
6
CONTINUOUS
10
75.9928
20
-53.2593
11
76.0045
21
-53.2311
0
LINE
8
BLACK
6
CONTINUOUS
10
76.0045
20
-53.2311
11
76.0328
21
-53.2193
0
LINE
8
BLACK
6
CONTINUOUS
10
76.0328
20
-53.2193
11
76.1356
21
-53.2193
0
LINE
8
BLACK
6
CONTINUOUS
10
76.1356
20
-53.2193
11
76.1356
21
-52.7593
0
LINE
8
BLACK
6
CONTINUOUS
10
76.1356
20
-52.7593
11
76.1372
21
-52.7555
0
LINE
8
BLACK
6
CONTINUOUS
10
76.1372
20
-52.7555
11
76.1364
21
-52.7515
0
LINE
8
BLACK
6
CONTINUOUS
10
76.1364
20
-52.7515
11
76.1429
21
-52.7418
0
LINE
8
BLACK
6
CONTINUOUS
10
76.1429
20
-52.7418
11
76.1474
21
-52.7311
0
LINE
8
BLACK
6
CONTINUOUS
10
76.1474
20
-52.7311
11
76.1512
21
-52.7295
0
LINE
8
BLACK
6
CONTINUOUS
10
76.1512
20
-52.7295
11
76.1535
21
-52.7261
0
LINE
8
BLACK
6
CONTINUOUS
10
76.1535
20
-52.7261
11
76.1649
21
-52.7238
0
LINE
8
BLACK
6
CONTINUOUS
10
76.1649
20
-52.7238
11
76.1756
21
-52.7193
0
LINE
8
BLACK
6
CONTINUOUS
10
76.1756
20
-52.7193
11
76.1794
21
-52.7209
0
LINE
8
BLACK
6
CONTINUOUS
10
64.955
20
-49.7575
11
64.9974
21
-49.7751
0
LINE
8
BLACK
6
CONTINUOUS
10
64.9974
20
-49.7751
11
65.015
21
-49.8175
0
LINE
8
BLACK
6
CONTINUOUS
10
65.015
20
-49.8175
11
65.015
21
-51.5175
0
LINE
8
BLACK
6
CONTINUOUS
10
65.015
20
-51.5175
11
64.9974
21
-51.5599
0
LINE
8
BLACK
6
CONTINUOUS
10
64.9974
20
-51.5599
11
64.955
21
-51.5775
0
LINE
8
BLACK
6
CONTINUOUS
10
64.955
20
-51.5775
11
62.295
21
-51.5775
0
LINE
8
BLACK
6
CONTINUOUS
10
62.295
20
-51.5775
11
62.2526
21
-51.5599
0
LINE
8
BLACK
6
CONTINUOUS
10
62.2526
20
-51.5599
11
62.235
21
-51.5175
0
LINE
8
BLACK
6
CONTINUOUS
10
62.235
20
-51.5175
11
62.2526
21
-51.4751
0
LINE
8
BLACK
6
CONTINUOUS
10
62.2526
20
-51.4751
11
62.295
21
-51.4575
0
LINE
8
BLACK
6
CONTINUOUS
10
62.295
20
-51.4575
11
64.895
21
-51.4575
0
LINE
8
BLACK
6
CONTINUOUS
10
64.895
20
-51.4575
11
64.895
21
-49.8775
0
LINE
8
BLACK
6
CONTINUOUS
10
64.895
20
-49.8775
11
62.295
21
-49.8775
0
LINE
8
BLACK
6
CONTINUOUS
10
62.295
20
-49.8775
11
62.2526
21
-49.8599
0
LINE
8
BLACK
6
CONTINUOUS
10
62.2526
20
-49.8599
11
62.235
21
-49.8175
0
LINE
8
BLACK
6
CONTINUOUS
10
62.235
20
-49.8175
11
62.2526
21
-49.7751
0
LINE
8
BLACK
6
CONTINUOUS
10
62.2526
20
-49.7751
11
62.295
21
-49.7575
0
LINE
8
BLACK
6
CONTINUOUS
10
62.295
20
-49.7575
11
64.955
21
-49.7575
0
LINE
8
BLACK
6
CONTINUOUS
10
59.6115
20
-37.9835
11
59.9826
21
-38.0422
0
LINE
8
BLACK
6
CONTINUOUS
10
59.9826
20
-38.0422
11
60.3456
21
-38.1395
0
LINE
8
BLACK
6
CONTINUOUS
10
60.3456
20
-38.1395
11
60.6964
21
-38.2742
0
LINE
8
BLACK
6
CONTINUOUS
10
60.6964
20
-38.2742
11
61.0312
21
-38.4448
0
LINE
8
BLACK
6
CONTINUOUS
10
61.0312
20
-38.4448
11
61.3464
21
-38.6494
0
LINE
8
BLACK
6
CONTINUOUS
10
61.3464
20
-38.6494
11
61.6384
21
-38.8859
0
LINE
8
BLACK
6
CONTINUOUS
10
61.6384
20
-38.8859
11
61.9041
21
-39.1516
0
LINE
8
BLACK
6
CONTINUOUS
10
61.9041
20
-39.1516
11
62.1406
21
-39.4436
0
LINE
8
BLACK
6
CONTINUOUS
10
62.1406
20
-39.4436
11
62.3452
21
-39.7588
0
LINE
8
BLACK
6
CONTINUOUS
10
62.3452
20
-39.7588
11
62.5158
21
-40.0936
0
LINE
8
BLACK
6
CONTINUOUS
10
62.5158
20
-40.0936
11
62.6505
21
-40.4444
0
LINE
8
BLACK
6
CONTINUOUS
10
62.6505
20
-40.4444
11
62.7478
21
-40.8074
0
LINE
8
BLACK
6
CONTINUOUS
10
62.7478
20
-40.8074
11
62.8065
21
-41.1785
0
LINE
8
BLACK
6
CONTINUOUS
10
62.8065
20
-41.1785
11
62.8262
21
-41.5538
0
LINE
8
BLACK
6
CONTINUOUS
10
62.8262
20
-41.5538
11
62.8065
21
-41.9291
0
LINE
8
BLACK
6
CONTINUOUS
10
62.8065
20
-41.9291
11
62.7478
21
-42.3002
0
LINE
8
BLACK
6
CONTINUOUS
10
62.7478
20
-42.3002
11
62.6505
21
-42.6632
0
LINE
8
BLACK
6
CONTINUOUS
10
62.6505
20
-42.6632
11
62.5158
21
-43.014
0
LINE
8
BLACK
6
CONTINUOUS
10
62.5158
20
-43.014
11
62.3452
21
-43.3488
0
LINE
8
BLACK
6
CONTINUOUS
10
62.3452
20
-43.3488
11
62.1406
21
-43.6639
0
LINE
8
BLACK
6
CONTINUOUS
10
62.1406
20
-43.6639
11
61.9041
21
-43.956
0
LINE
8
BLACK
6
CONTINUOUS
10
61.9041
20
-43.956
11
61.6384
21
-44.2217
0
LINE
8
BLACK
6
CONTINUOUS
10
61.6384
20
-44.2217
11
61.3464
21
-44.4582
0
LINE
8
BLACK
6
CONTINUOUS
10
61.3464
20
-44.4582
11
61.0312
21
-44.6628
0
LINE
8
BLACK
6
CONTINUOUS
10
61.0312
20
-44.6628
11
60.6964
21
-44.8334
0
LINE
8
BLACK
6
CONTINUOUS
10
60.6964
20
-44.8334
11
60.3456
21
-44.9681
0
LINE
8
BLACK
6
CONTINUOUS
10
60.3456
20
-44.9681
11
59.9826
21
-45.0653
0
LINE
8
BLACK
6
CONTINUOUS
10
59.9826
20
-45.0653
11
59.6115
21
-45.1241
0
LINE
8
BLACK
6
CONTINUOUS
10
59.6115
20
-45.1241
11
59.2362
21
-45.1438
0
LINE
8
BLACK
6
CONTINUOUS
10
59.2362
20
-45.1438
11
58.8609
21
-45.1241
0
LINE
8
BLACK
6
CONTINUOUS
10
58.8609
20
-45.1241
11
58.4898
21
-45.0653
0
LINE
8
BLACK
6
CONTINUOUS
10
58.4898
20
-45.0653
11
58.1268
21
-44.9681
0
LINE
8
BLACK
6
CONTINUOUS
10
58.1268
20
-44.9681
11
57.776
21
-44.8334
0
LINE
8
BLACK
6
CONTINUOUS
10
57.776
20
-44.8334
11
57.4412
21
-44.6628
0
LINE
8
BLACK
6
CONTINUOUS
10
57.4412
20
-44.6628
11
57.1261
21
-44.4582
0
LINE
8
BLACK
6
CONTINUOUS
10
57.1261
20
-44.4582
11
56.834
21
-44.2217
0
LINE
8
BLACK
6
CONTINUOUS
10
56.834
20
-44.2217
11
56.5683
21
-43.956
0
LINE
8
BLACK
6
CONTINUOUS
10
56.5683
20
-43.956
11
56.3318
21
-43.6639
0
LINE
8
BLACK
6
CONTINUOUS
10
56.3318
20
-43.6639
11
56.1272
21
-43.3488
0
LINE
8
BLACK
6
CONTINUOUS
10
56.1272
20
-43.3488
11
55.9566
21
-43.014
0
LINE
8
BLACK
6
CONTINUOUS
10
55.9566
20
-43.014
11
55.8219
21
-42.6632
0
LINE
8
BLACK
6
CONTINUOUS
10
55.8219
20
-42.6632
11
55.7247
21
-42.3002
0
LINE
8
BLACK
6
CONTINUOUS
10
55.7247
20
-42.3002
11
55.6659
21
-41.9291
0
LINE
8
BLACK
6
CONTINUOUS
10
55.6659
20
-41.9291
11
55.6462
21
-41.5538
0
LINE
8
BLACK
6
CONTINUOUS
10
55.6462
20
-41.5538
11
55.6659
21
-41.1785
0
LINE
8
BLACK
6
CONTINUOUS
10
55.6659
20
-41.1785
11
55.7247
21
-40.8074
0
LINE
8
BLACK
6
CONTINUOUS
10
55.7247
20
-40.8074
11
55.8219
21
-40.4444
0
LINE
8
BLACK
6
CONTINUOUS
10
55.8219
20
-40.4444
11
55.9566
21
-40.0936
0
LINE
8
BLACK
6
CONTINUOUS
10
55.9566
20
-40.0936
11
56.1272
21
-39.7588
0
LINE
8
BLACK
6
CONTINUOUS
10
56.1272
20
-39.7588
11
56.3318
21
-39.4436
0
LINE
8
BLACK
6
CONTINUOUS
10
56.3318
20
-39.4436
11
56.5683
21
-39.1516
0
LINE
8
BLACK
6
CONTINUOUS
10
56.5683
20
-39.1516
11
56.834
21
-38.8859
0
LINE
8
BLACK
6
CONTINUOUS
10
56.834
20
-38.8859
11
57.1261
21
-38.6494
0
LINE
8
BLACK
6
CONTINUOUS
10
57.1261
20
-38.6494
11
57.4412
21
-38.4448
0
LINE
8
BLACK
6
CONTINUOUS
10
57.4412
20
-38.4448
11
57.776
21
-38.2742
0
LINE
8
BLACK
6
CONTINUOUS
10
57.776
20
-38.2742
11
58.1268
21
-38.1395
0
LINE
8
BLACK
6
CONTINUOUS
10
58.1268
20
-38.1395
11
58.4898
21
-38.0422
0
LINE
8
BLACK
6
CONTINUOUS
10
58.4898
20
-38.0422
11
58.8609
21
-37.9835
0
LINE
8
BLACK
6
CONTINUOUS
10
58.8609
20
-37.9835
11
59.2362
21
-37.9638
0
LINE
8
BLACK
6
CONTINUOUS
10
59.2362
20
-37.9638
11
59.6115
21
-37.9835
0
LINE
8
BLACK
6
CONTINUOUS
10
55.7805
20
-41.917
11
55.8374
21
-42.2762
0
LINE
8
BLACK
6
CONTINUOUS
10
55.8374
20
-42.2762
11
55.9315
21
-42.6276
0
LINE
8
BLACK
6
CONTINUOUS
10
55.9315
20
-42.6276
11
56.0619
21
-42.9671
0
LINE
8
BLACK
6
CONTINUOUS
10
56.0619
20
-42.9671
11
56.227
21
-43.2912
0
LINE
8
BLACK
6
CONTINUOUS
10
56.227
20
-43.2912
11
56.4251
21
-43.5962
0
LINE
8
BLACK
6
CONTINUOUS
10
56.4251
20
-43.5962
11
56.654
21
-43.8789
0
LINE
8
BLACK
6
CONTINUOUS
10
56.654
20
-43.8789
11
56.9111
21
-44.136
0
LINE
8
BLACK
6
CONTINUOUS
10
56.9111
20
-44.136
11
57.1938
21
-44.3649
0
LINE
8
BLACK
6
CONTINUOUS
10
57.1938
20
-44.3649
11
57.4988
21
-44.563
0
LINE
8
BLACK
6
CONTINUOUS
10
57.4988
20
-44.563
11
57.8229
21
-44.7281
0
LINE
8
BLACK
6
CONTINUOUS
10
57.8229
20
-44.7281
11
58.1624
21
-44.8585
0
LINE
8
BLACK
6
CONTINUOUS
10
58.1624
20
-44.8585
11
58.5138
21
-44.9526
0
LINE
8
BLACK
6
CONTINUOUS
10
58.5138
20
-44.9526
11
58.873
21
-45.0095
0
LINE
8
BLACK
6
CONTINUOUS
10
58.873
20
-45.0095
11
59.2362
21
-45.0286
0
LINE
8
BLACK
6
CONTINUOUS
10
59.2362
20
-45.0286
11
59.5994
21
-45.0095
0
LINE
8
BLACK
6
CONTINUOUS
10
59.5994
20
-45.0095
11
59.9586
21
-44.9526
0
LINE
8
BLACK
6
CONTINUOUS
10
59.9586
20
-44.9526
11
60.31
21
-44.8585
0
LINE
8
BLACK
6
CONTINUOUS
10
60.31
20
-44.8585
11
60.6495
21
-44.7281
0
LINE
8
BLACK
6
CONTINUOUS
10
60.6495
20
-44.7281
11
60.9736
21
-44.563
0
LINE
8
BLACK
6
CONTINUOUS
10
60.9736
20
-44.563
11
61.2786
21
-44.3649
0
LINE
8
BLACK
6
CONTINUOUS
10
61.2786
20
-44.3649
11
61.5613
21
-44.136
0
LINE
8
BLACK
6
CONTINUOUS
10
61.5613
20
-44.136
11
61.8185
21
-43.8789
0
LINE
8
BLACK
6
CONTINUOUS
10
61.8185
20
-43.8789
11
62.0473
21
-43.5962
0
LINE
8
BLACK
6
CONTINUOUS
10
62.0473
20
-43.5962
11
62.2454
21
-43.2912
0
LINE
8
BLACK
6
CONTINUOUS
10
62.2454
20
-43.2912
11
62.4106
21
-42.9671
0
LINE
8
BLACK
6
CONTINUOUS
10
62.4106
20
-42.9671
11
62.5409
21
-42.6276
0
LINE
8
BLACK
6
CONTINUOUS
10
62.5409
20
-42.6276
11
62.635
21
-42.2762
0
LINE
8
BLACK
6
CONTINUOUS
10
62.635
20
-42.2762
11
62.6919
21
-41.917
0
LINE
8
BLACK
6
CONTINUOUS
10
62.6919
20
-41.917
11
62.711
21
-41.5538
0
LINE
8
BLACK
6
CONTINUOUS
10
62.711
20
-41.5538
11
62.6919
21
-41.1906
0
LINE
8
BLACK
6
CONTINUOUS
10
62.6919
20
-41.1906
11
62.635
21
-40.8314
0
LINE
8
BLACK
6
CONTINUOUS
10
62.635
20
-40.8314
11
62.5409
21
-40.48
0
LINE
8
BLACK
6
CONTINUOUS
10
62.5409
20
-40.48
11
62.4106
21
-40.1405
0
LINE
8
BLACK
6
CONTINUOUS
10
62.4106
20
-40.1405
11
62.2454
21
-39.8164
0
LINE
8
BLACK
6
CONTINUOUS
10
62.2454
20
-39.8164
11
62.0473
21
-39.5114
0
LINE
8
BLACK
6
CONTINUOUS
10
62.0473
20
-39.5114
11
61.8185
21
-39.2287
0
LINE
8
BLACK
6
CONTINUOUS
10
61.8185
20
-39.2287
11
61.5613
21
-38.9715
0
LINE
8
BLACK
6
CONTINUOUS
10
61.5613
20
-38.9715
11
61.2786
21
-38.7427
0
LINE
8
BLACK
6
CONTINUOUS
10
61.2786
20
-38.7427
11
60.9736
21
-38.5446
0
LINE
8
BLACK
6
CONTINUOUS
10
60.9736
20
-38.5446
11
60.6495
21
-38.3794
0
LINE
8
BLACK
6
CONTINUOUS
10
60.6495
20
-38.3794
11
60.31
21
-38.2491
0
LINE
8
BLACK
6
CONTINUOUS
10
60.31
20
-38.2491
11
59.9586
21
-38.155
0
LINE
8
BLACK
6
CONTINUOUS
10
59.9586
20
-38.155
11
59.5994
21
-38.0981
0
LINE
8
BLACK
6
CONTINUOUS
10
59.5994
20
-38.0981
11
59.2362
21
-38.079
0
LINE
8
BLACK
6
CONTINUOUS
10
59.2362
20
-38.079
11
58.873
21
-38.0981
0
LINE
8
BLACK
6
CONTINUOUS
10
58.873
20
-38.0981
11
58.5138
21
-38.155
0
LINE
8
BLACK
6
CONTINUOUS
10
58.5138
20
-38.155
11
58.1624
21
-38.2491
0
LINE
8
BLACK
6
CONTINUOUS
10
58.1624
20
-38.2491
11
57.8229
21
-38.3794
0
LINE
8
BLACK
6
CONTINUOUS
10
57.8229
20
-38.3794
11
57.4988
21
-38.5446
0
LINE
8
BLACK
6
CONTINUOUS
10
57.4988
20
-38.5446
11
57.1938
21
-38.7427
0
LINE
8
BLACK
6
CONTINUOUS
10
57.1938
20
-38.7427
11
56.9111
21
-38.9715
0
LINE
8
BLACK
6
CONTINUOUS
10
56.9111
20
-38.9715
11
56.654
21
-39.2287
0
LINE
8
BLACK
6
CONTINUOUS
10
56.654
20
-39.2287
11
56.4251
21
-39.5114
0
LINE
8
BLACK
6
CONTINUOUS
10
56.4251
20
-39.5114
11
56.227
21
-39.8164
0
LINE
8
BLACK
6
CONTINUOUS
10
56.227
20
-39.8164
11
56.0619
21
-40.1405
0
LINE
8
BLACK
6
CONTINUOUS
10
56.0619
20
-40.1405
11
55.9315
21
-40.48
0
LINE
8
BLACK
6
CONTINUOUS
10
55.9315
20
-40.48
11
55.8374
21
-40.8314
0
LINE
8
BLACK
6
CONTINUOUS
10
55.8374
20
-40.8314
11
55.7805
21
-41.1906
0
LINE
8
BLACK
6
CONTINUOUS
10
55.7805
20
-41.1906
11
55.7614
21
-41.5538
0
LINE
8
BLACK
6
CONTINUOUS
10
55.7614
20
-41.5538
11
55.7805
21
-41.917
0
LINE
8
BLACK
6
CONTINUOUS
10
53.1037
20
-44.9526
11
53.1213
21
-44.995
0
LINE
8
BLACK
6
CONTINUOUS
10
53.1213
20
-44.995
11
53.1037
21
-45.0374
0
LINE
8
BLACK
6
CONTINUOUS
10
53.1037
20
-45.0374
11
53.0613
21
-45.055
0
LINE
8
BLACK
6
CONTINUOUS
10
53.0613
20
-45.055
11
52.5387
21
-45.055
0
LINE
8
BLACK
6
CONTINUOUS
10
52.5387
20
-45.055
11
52.4963
21
-45.0374
0
LINE
8
BLACK
6
CONTINUOUS
10
52.4963
20
-45.0374
11
52.4787
21
-44.995
0
LINE
8
BLACK
6
CONTINUOUS
10
52.4787
20
-44.995
11
52.4963
21
-44.9526
0
LINE
8
BLACK
6
CONTINUOUS
10
52.4963
20
-44.9526
11
52.5387
21
-44.935
0
LINE
8
BLACK
6
CONTINUOUS
10
52.5387
20
-44.935
11
53.0613
21
-44.935
0
LINE
8
BLACK
6
CONTINUOUS
10
53.0613
20
-44.935
11
53.1037
21
-44.9526
0
LINE
8
BLACK
6
CONTINUOUS
10
53.1037
20
-43.4826
11
53.1213
21
-43.525
0
LINE
8
BLACK
6
CONTINUOUS
10
53.1213
20
-43.525
11
53.1037
21
-43.5674
0
LINE
8
BLACK
6
CONTINUOUS
10
53.1037
20
-43.5674
11
53.0613
21
-43.585
0
LINE
8
BLACK
6
CONTINUOUS
10
53.0613
20
-43.585
11
52.5387
21
-43.585
0
LINE
8
BLACK
6
CONTINUOUS
10
52.5387
20
-43.585
11
52.4963
21
-43.5674
0
LINE
8
BLACK
6
CONTINUOUS
10
52.4963
20
-43.5674
11
52.4787
21
-43.525
0
LINE
8
BLACK
6
CONTINUOUS
10
52.4787
20
-43.525
11
52.4963
21
-43.4826
0
LINE
8
BLACK
6
CONTINUOUS
10
52.4963
20
-43.4826
11
52.5387
21
-43.465
0
LINE
8
BLACK
6
CONTINUOUS
10
52.5387
20
-43.465
11
53.0613
21
-43.465
0
LINE
8
BLACK
6
CONTINUOUS
10
53.0613
20
-43.465
11
53.1037
21
-43.4826
0
LINE
8
BLACK
6
CONTINUOUS
10
80.6303
20
-42.0076
11
80.6478
21
-42.05
0
LINE
8
BLACK
6
CONTINUOUS
10
80.6478
20
-42.05
11
80.6303
21
-42.0924
0
LINE
8
BLACK
6
CONTINUOUS
10
80.6303
20
-42.0924
11
80.5878
21
-42.11
0
LINE
8
BLACK
6
CONTINUOUS
10
80.5878
20
-42.11
11
80.3722
21
-42.11
0
LINE
8
BLACK
6
CONTINUOUS
10
80.3722
20
-42.11
11
80.3297
21
-42.0924
0
LINE
8
BLACK
6
CONTINUOUS
10
80.3297
20
-42.0924
11
80.3122
21
-42.05
0
LINE
8
BLACK
6
CONTINUOUS
10
80.3122
20
-42.05
11
80.3297
21
-42.0076
0
LINE
8
BLACK
6
CONTINUOUS
10
80.3297
20
-42.0076
11
80.3722
21
-41.99
0
LINE
8
BLACK
6
CONTINUOUS
10
80.3722
20
-41.99
11
80.5878
21
-41.99
0
LINE
8
BLACK
6
CONTINUOUS
10
80.5878
20
-41.99
11
80.6303
21
-42.0076
0
LINE
8
BLACK
6
CONTINUOUS
10
53.1037
20
-41.9426
11
53.1213
21
-41.985
0
LINE
8
BLACK
6
CONTINUOUS
10
53.1213
20
-41.985
11
53.1037
21
-42.0274
0
LINE
8
BLACK
6
CONTINUOUS
10
53.1037
20
-42.0274
11
53.0613
21
-42.045
0
LINE
8
BLACK
6
CONTINUOUS
10
53.0613
20
-42.045
11
52.5387
21
-42.045
0
LINE
8
BLACK
6
CONTINUOUS
10
52.5387
20
-42.045
11
52.4963
21
-42.0274
0
LINE
8
BLACK
6
CONTINUOUS
10
52.4963
20
-42.0274
11
52.4787
21
-41.985
0
LINE
8
BLACK
6
CONTINUOUS
10
52.4787
20
-41.985
11
52.4963
21
-41.9426
0
LINE
8
BLACK
6
CONTINUOUS
10
52.4963
20
-41.9426
11
52.5387
21
-41.925
0
LINE
8
BLACK
6
CONTINUOUS
10
52.5387
20
-41.925
11
53.0613
21
-41.925
0
LINE
8
BLACK
6
CONTINUOUS
10
53.0613
20
-41.925
11
53.1037
21
-41.9426
0
LINE
8
BLACK
6
CONTINUOUS
10
77.1095
20
-41.8826
11
77.1271
21
-41.925
0
LINE
8
BLACK
6
CONTINUOUS
10
77.1271
20
-41.925
11
77.1095
21
-41.9674
0
LINE
8
BLACK
6
CONTINUOUS
10
77.1095
20
-41.9674
11
77.0671
21
-41.985
0
LINE
8
BLACK
6
CONTINUOUS
10
77.0671
20
-41.985
11
76.6129
21
-41.985
0
LINE
8
BLACK
6
CONTINUOUS
10
76.6129
20
-41.985
11
76.5705
21
-41.9674
0
LINE
8
BLACK
6
CONTINUOUS
10
76.5705
20
-41.9674
11
76.5529
21
-41.925
0
LINE
8
BLACK
6
CONTINUOUS
10
76.5529
20
-41.925
11
76.5705
21
-41.8826
0
LINE
8
BLACK
6
CONTINUOUS
10
76.5705
20
-41.8826
11
76.6129
21
-41.865
0
LINE
8
BLACK
6
CONTINUOUS
10
76.6129
20
-41.865
11
77.0671
21
-41.865
0
LINE
8
BLACK
6
CONTINUOUS
10
77.0671
20
-41.865
11
77.1095
21
-41.8826
0
LINE
8
BLACK
6
CONTINUOUS
10
80.6303
20
-41.2876
11
80.6478
21
-41.33
0
LINE
8
BLACK
6
CONTINUOUS
10
80.6478
20
-41.33
11
80.6303
21
-41.3724
0
LINE
8
BLACK
6
CONTINUOUS
10
80.6303
20
-41.3724
11
80.5878
21
-41.39
0
LINE
8
BLACK
6
CONTINUOUS
10
80.5878
20
-41.39
11
80.3722
21
-41.39
0
LINE
8
BLACK
6
CONTINUOUS
10
80.3722
20
-41.39
11
80.3297
21
-41.3724
0
LINE
8
BLACK
6
CONTINUOUS
10
80.3297
20
-41.3724
11
80.3122
21
-41.33
0
LINE
8
BLACK
6
CONTINUOUS
10
80.3122
20
-41.33
11
80.3297
21
-41.2876
0
LINE
8
BLACK
6
CONTINUOUS
10
80.3297
20
-41.2876
11
80.3722
21
-41.27
0
LINE
8
BLACK
6
CONTINUOUS
10
80.3722
20
-41.27
11
80.5878
21
-41.27
0
LINE
8
BLACK
6
CONTINUOUS
10
80.5878
20
-41.27
11
80.6303
21
-41.2876
0
LINE
8
BLACK
6
CONTINUOUS
10
87.4424
20
-40.0126
11
87.46
21
-40.055
0
LINE
8
BLACK
6
CONTINUOUS
10
87.46
20
-40.055
11
87.46
21
-40.47
0
LINE
8
BLACK
6
CONTINUOUS
10
87.46
20
-40.47
11
87.875
21
-40.47
0
LINE
8
BLACK
6
CONTINUOUS
10
87.875
20
-40.47
11
87.9174
21
-40.4876
0
LINE
8
BLACK
6
CONTINUOUS
10
87.9174
20
-40.4876
11
87.935
21
-40.53
0
LINE
8
BLACK
6
CONTINUOUS
10
87.935
20
-40.53
11
87.9174
21
-40.5724
0
LINE
8
BLACK
6
CONTINUOUS
10
87.9174
20
-40.5724
11
87.875
21
-40.59
0
LINE
8
BLACK
6
CONTINUOUS
10
87.875
20
-40.59
11
87.4
21
-40.59
0
LINE
8
BLACK
6
CONTINUOUS
10
87.4
20
-40.59
11
87.3576
21
-40.5724
0
LINE
8
BLACK
6
CONTINUOUS
10
87.3576
20
-40.5724
11
87.34
21
-40.53
0
LINE
8
BLACK
6
CONTINUOUS
10
87.34
20
-40.53
11
87.34
21
-40.055
0
LINE
8
BLACK
6
CONTINUOUS
10
87.34
20
-40.055
11
87.3576
21
-40.0126
0
LINE
8
BLACK
6
CONTINUOUS
10
87.3576
20
-40.0126
11
87.4
21
-39.995
0
LINE
8
BLACK
6
CONTINUOUS
10
87.4
20
-39.995
11
87.4424
21
-40.0126
0
LINE
8
BLACK
6
CONTINUOUS
10
90.6624
20
-40.0126
11
90.68
21
-40.055
0
LINE
8
BLACK
6
CONTINUOUS
10
90.68
20
-40.055
11
90.68
21
-40.53
0
LINE
8
BLACK
6
CONTINUOUS
10
90.68
20
-40.53
11
90.6624
21
-40.5724
0
LINE
8
BLACK
6
CONTINUOUS
10
90.6624
20
-40.5724
11
90.62
21
-40.59
0
LINE
8
BLACK
6
CONTINUOUS
10
90.62
20
-40.59
11
90.145
21
-40.59
0
LINE
8
BLACK
6
CONTINUOUS
10
90.145
20
-40.59
11
90.1026
21
-40.5724
0
LINE
8
BLACK
6
CONTINUOUS
10
90.1026
20
-40.5724
11
90.085
21
-40.53
0
LINE
8
BLACK
6
CONTINUOUS
10
90.085
20
-40.53
11
90.1026
21
-40.4876
0
LINE
8
BLACK
6
CONTINUOUS
10
90.1026
20
-40.4876
11
90.145
21
-40.47
0
LINE
8
BLACK
6
CONTINUOUS
10
90.145
20
-40.47
11
90.56
21
-40.47
0
LINE
8
BLACK
6
CONTINUOUS
10
90.56
20
-40.47
11
90.56
21
-40.055
0
LINE
8
BLACK
6
CONTINUOUS
10
90.56
20
-40.055
11
90.5776
21
-40.0126
0
LINE
8
BLACK
6
CONTINUOUS
10
90.5776
20
-40.0126
11
90.62
21
-39.995
0
LINE
8
BLACK
6
CONTINUOUS
10
90.62
20
-39.995
11
90.6624
21
-40.0126
0
LINE
8
BLACK
6
CONTINUOUS
10
53.1037
20
-40.4726
11
53.1213
21
-40.515
0
LINE
8
BLACK
6
CONTINUOUS
10
53.1213
20
-40.515
11
53.1037
21
-40.5574
0
LINE
8
BLACK
6
CONTINUOUS
10
53.1037
20
-40.5574
11
53.0613
21
-40.575
0
LINE
8
BLACK
6
CONTINUOUS
10
53.0613
20
-40.575
11
52.5387
21
-40.575
0
LINE
8
BLACK
6
CONTINUOUS
10
52.5387
20
-40.575
11
52.4963
21
-40.5574
0
LINE
8
BLACK
6
CONTINUOUS
10
52.4963
20
-40.5574
11
52.4787
21
-40.515
0
LINE
8
BLACK
6
CONTINUOUS
10
52.4787
20
-40.515
11
52.4963
21
-40.4726
0
LINE
8
BLACK
6
CONTINUOUS
10
52.4963
20
-40.4726
11
52.5387
21
-40.455
0
LINE
8
BLACK
6
CONTINUOUS
10
52.5387
20
-40.455
11
53.0613
21
-40.455
0
LINE
8
BLACK
6
CONTINUOUS
10
53.0613
20
-40.455
11
53.1037
21
-40.4726
0
LINE
8
BLACK
6
CONTINUOUS
10
77.1095
20
-40.4126
11
77.1271
21
-40.455
0
LINE
8
BLACK
6
CONTINUOUS
10
77.1271
20
-40.455
11
77.1095
21
-40.4974
0
LINE
8
BLACK
6
CONTINUOUS
10
77.1095
20
-40.4974
11
77.0671
21
-40.515
0
LINE
8
BLACK
6
CONTINUOUS
10
77.0671
20
-40.515
11
76.6129
21
-40.515
0
LINE
8
BLACK
6
CONTINUOUS
10
76.6129
20
-40.515
11
76.5705
21
-40.4974
0
LINE
8
BLACK
6
CONTINUOUS
10
76.5705
20
-40.4974
11
76.5529
21
-40.455
0
LINE
8
BLACK
6
CONTINUOUS
10
76.5529
20
-40.455
11
76.5705
21
-40.4126
0
LINE
8
BLACK
6
CONTINUOUS
10
76.5705
20
-40.4126
11
76.6129
21
-40.395
0
LINE
8
BLACK
6
CONTINUOUS
10
76.6129
20
-40.395
11
77.0671
21
-40.395
0
LINE
8
BLACK
6
CONTINUOUS
10
77.0671
20
-40.395
11
77.1095
21
-40.4126
0
LINE
8
BLACK
6
CONTINUOUS
10
80.6303
20
-40.0376
11
80.6478
21
-40.08
0
LINE
8
BLACK
6
CONTINUOUS
10
80.6478
20
-40.08
11
80.6303
21
-40.1224
0
LINE
8
BLACK
6
CONTINUOUS
10
80.6303
20
-40.1224
11
80.5878
21
-40.14
0
LINE
8
BLACK
6
CONTINUOUS
10
80.5878
20
-40.14
11
80.3722
21
-40.14
0
LINE
8
BLACK
6
CONTINUOUS
10
80.3722
20
-40.14
11
80.3297
21
-40.1224
0
LINE
8
BLACK
6
CONTINUOUS
10
80.3297
20
-40.1224
11
80.3122
21
-40.08
0
LINE
8
BLACK
6
CONTINUOUS
10
80.3122
20
-40.08
11
80.3297
21
-40.0376
0
LINE
8
BLACK
6
CONTINUOUS
10
80.3297
20
-40.0376
11
80.3722
21
-40.02
0
LINE
8
BLACK
6
CONTINUOUS
10
80.3722
20
-40.02
11
80.5878
21
-40.02
0
LINE
8
BLACK
6
CONTINUOUS
10
80.5878
20
-40.02
11
80.6303
21
-40.0376
0
LINE
8
BLACK
6
CONTINUOUS
10
80.6303
20
-39.3176
11
80.6478
21
-39.36
0
LINE
8
BLACK
6
CONTINUOUS
10
80.6478
20
-39.36
11
80.6303
21
-39.4024
0
LINE
8
BLACK
6
CONTINUOUS
10
80.6303
20
-39.4024
11
80.5878
21
-39.42
0
LINE
8
BLACK
6
CONTINUOUS
10
80.5878
20
-39.42
11
80.3722
21
-39.42
0
LINE
8
BLACK
6
CONTINUOUS
10
80.3722
20
-39.42
11
80.3297
21
-39.4024
0
LINE
8
BLACK
6
CONTINUOUS
10
80.3297
20
-39.4024
11
80.3122
21
-39.36
0
LINE
8
BLACK
6
CONTINUOUS
10
80.3122
20
-39.36
11
80.3297
21
-39.3176
0
LINE
8
BLACK
6
CONTINUOUS
10
80.3297
20
-39.3176
11
80.3722
21
-39.3
0
LINE
8
BLACK
6
CONTINUOUS
10
80.3722
20
-39.3
11
80.5878
21
-39.3
0
LINE
8
BLACK
6
CONTINUOUS
10
80.5878
20
-39.3
11
80.6303
21
-39.3176
0
LINE
8
BLACK
6
CONTINUOUS
10
53.1037
20
-38.9326
11
53.1213
21
-38.975
0
LINE
8
BLACK
6
CONTINUOUS
10
53.1213
20
-38.975
11
53.1037
21
-39.0174
0
LINE
8
BLACK
6
CONTINUOUS
10
53.1037
20
-39.0174
11
53.0613
21
-39.035
0
LINE
8
BLACK
6
CONTINUOUS
10
53.0613
20
-39.035
11
52.5387
21
-39.035
0
LINE
8
BLACK
6
CONTINUOUS
10
52.5387
20
-39.035
11
52.4963
21
-39.0174
0
LINE
8
BLACK
6
CONTINUOUS
10
52.4963
20
-39.0174
11
52.4787
21
-38.975
0
LINE
8
BLACK
6
CONTINUOUS
10
52.4787
20
-38.975
11
52.4963
21
-38.9326
0
LINE
8
BLACK
6
CONTINUOUS
10
52.4963
20
-38.9326
11
52.5387
21
-38.915
0
LINE
8
BLACK
6
CONTINUOUS
10
52.5387
20
-38.915
11
53.0613
21
-38.915
0
LINE
8
BLACK
6
CONTINUOUS
10
53.0613
20
-38.915
11
53.1037
21
-38.9326
0
LINE
8
BLACK
6
CONTINUOUS
10
77.1095
20
-38.9326
11
77.1271
21
-38.975
0
LINE
8
BLACK
6
CONTINUOUS
10
77.1271
20
-38.975
11
77.1095
21
-39.0174
0
LINE
8
BLACK
6
CONTINUOUS
10
77.1095
20
-39.0174
11
77.0671
21
-39.035
0
LINE
8
BLACK
6
CONTINUOUS
10
77.0671
20
-39.035
11
76.6129
21
-39.035
0
LINE
8
BLACK
6
CONTINUOUS
10
76.6129
20
-39.035
11
76.5705
21
-39.0174
0
LINE
8
BLACK
6
CONTINUOUS
10
76.5705
20
-39.0174
11
76.5529
21
-38.975
0
LINE
8
BLACK
6
CONTINUOUS
10
76.5529
20
-38.975
11
76.5705
21
-38.9326
0
LINE
8
BLACK
6
CONTINUOUS
10
76.5705
20
-38.9326
11
76.6129
21
-38.915
0
LINE
8
BLACK
6
CONTINUOUS
10
76.6129
20
-38.915
11
77.0671
21
-38.915
0
LINE
8
BLACK
6
CONTINUOUS
10
77.0671
20
-38.915
11
77.1095
21
-38.9326
0
LINE
8
BLACK
6
CONTINUOUS
10
84.4437
20
-38.4726
11
84.4613
21
-38.515
0
LINE
8
BLACK
6
CONTINUOUS
10
84.4613
20
-38.515
11
84.4437
21
-38.5574
0
LINE
8
BLACK
6
CONTINUOUS
10
84.4437
20
-38.5574
11
84.4013
21
-38.575
0
LINE
8
BLACK
6
CONTINUOUS
10
84.4013
20
-38.575
11
83.8787
21
-38.575
0
LINE
8
BLACK
6
CONTINUOUS
10
83.8787
20
-38.575
11
83.8363
21
-38.5574
0
LINE
8
BLACK
6
CONTINUOUS
10
83.8363
20
-38.5574
11
83.8187
21
-38.515
0
LINE
8
BLACK
6
CONTINUOUS
10
83.8187
20
-38.515
11
83.8363
21
-38.4726
0
LINE
8
BLACK
6
CONTINUOUS
10
83.8363
20
-38.4726
11
83.8787
21
-38.455
0
LINE
8
BLACK
6
CONTINUOUS
10
83.8787
20
-38.455
11
84.4013
21
-38.455
0
LINE
8
BLACK
6
CONTINUOUS
10
84.4013
20
-38.455
11
84.4437
21
-38.4726
0
LINE
8
BLACK
6
CONTINUOUS
10
80.6303
20
-38.0676
11
80.6478
21
-38.11
0
LINE
8
BLACK
6
CONTINUOUS
10
80.6478
20
-38.11
11
80.6303
21
-38.1524
0
LINE
8
BLACK
6
CONTINUOUS
10
80.6303
20
-38.1524
11
80.5878
21
-38.17
0
LINE
8
BLACK
6
CONTINUOUS
10
80.5878
20
-38.17
11
80.3722
21
-38.17
0
LINE
8
BLACK
6
CONTINUOUS
10
80.3722
20
-38.17
11
80.3297
21
-38.1524
0
LINE
8
BLACK
6
CONTINUOUS
10
80.3297
20
-38.1524
11
80.3122
21
-38.11
0
LINE
8
BLACK
6
CONTINUOUS
10
80.3122
20
-38.11
11
80.3297
21
-38.0676
0
LINE
8
BLACK
6
CONTINUOUS
10
80.3297
20
-38.0676
11
80.3722
21
-38.05
0
LINE
8
BLACK
6
CONTINUOUS
10
80.3722
20
-38.05
11
80.5878
21
-38.05
0
LINE
8
BLACK
6
CONTINUOUS
10
80.5878
20
-38.05
11
80.6303
21
-38.0676
0
LINE
8
BLACK
6
CONTINUOUS
10
87.9174
20
-37.2676
11
87.935
21
-37.31
0
LINE
8
BLACK
6
CONTINUOUS
10
87.935
20
-37.31
11
87.9174
21
-37.3524
0
LINE
8
BLACK
6
CONTINUOUS
10
87.9174
20
-37.3524
11
87.875
21
-37.37
0
LINE
8
BLACK
6
CONTINUOUS
10
87.875
20
-37.37
11
87.46
21
-37.37
0
LINE
8
BLACK
6
CONTINUOUS
10
87.46
20
-37.37
11
87.46
21
-37.785
0
LINE
8
BLACK
6
CONTINUOUS
10
87.46
20
-37.785
11
87.4424
21
-37.8274
0
LINE
8
BLACK
6
CONTINUOUS
10
87.4424
20
-37.8274
11
87.4
21
-37.845
0
LINE
8
BLACK
6
CONTINUOUS
10
87.4
20
-37.845
11
87.3576
21
-37.8274
0
LINE
8
BLACK
6
CONTINUOUS
10
87.3576
20
-37.8274
11
87.34
21
-37.785
0
LINE
8
BLACK
6
CONTINUOUS
10
87.34
20
-37.785
11
87.34
21
-37.31
0
LINE
8
BLACK
6
CONTINUOUS
10
87.34
20
-37.31
11
87.3576
21
-37.2676
0
LINE
8
BLACK
6
CONTINUOUS
10
87.3576
20
-37.2676
11
87.4
21
-37.25
0
LINE
8
BLACK
6
CONTINUOUS
10
87.4
20
-37.25
11
87.875
21
-37.25
0
LINE
8
BLACK
6
CONTINUOUS
10
87.875
20
-37.25
11
87.9174
21
-37.2676
0
LINE
8
BLACK
6
CONTINUOUS
10
53.1037
20
-37.4626
11
53.1213
21
-37.505
0
LINE
8
BLACK
6
CONTINUOUS
10
53.1213
20
-37.505
11
53.1037
21
-37.5474
0
LINE
8
BLACK
6
CONTINUOUS
10
53.1037
20
-37.5474
11
53.0613
21
-37.565
0
LINE
8
BLACK
6
CONTINUOUS
10
53.0613
20
-37.565
11
52.5387
21
-37.565
0
LINE
8
BLACK
6
CONTINUOUS
10
52.5387
20
-37.565
11
52.4963
21
-37.5474
0
LINE
8
BLACK
6
CONTINUOUS
10
52.4963
20
-37.5474
11
52.4787
21
-37.505
0
LINE
8
BLACK
6
CONTINUOUS
10
52.4787
20
-37.505
11
52.4963
21
-37.4626
0
LINE
8
BLACK
6
CONTINUOUS
10
52.4963
20
-37.4626
11
52.5387
21
-37.445
0
LINE
8
BLACK
6
CONTINUOUS
10
52.5387
20
-37.445
11
53.0613
21
-37.445
0
LINE
8
BLACK
6
CONTINUOUS
10
53.0613
20
-37.445
11
53.1037
21
-37.4626
0
LINE
8
BLACK
6
CONTINUOUS
10
77.1095
20
-37.4626
11
77.1271
21
-37.505
0
LINE
8
BLACK
6
CONTINUOUS
10
77.1271
20
-37.505
11
77.1095
21
-37.5474
0
LINE
8
BLACK
6
CONTINUOUS
10
77.1095
20
-37.5474
11
77.0671
21
-37.565
0
LINE
8
BLACK
6
CONTINUOUS
10
77.0671
20
-37.565
11
76.6129
21
-37.565
0
LINE
8
BLACK
6
CONTINUOUS
10
76.6129
20
-37.565
11
76.5705
21
-37.5474
0
LINE
8
BLACK
6
CONTINUOUS
10
76.5705
20
-37.5474
11
76.5529
21
-37.505
0
LINE
8
BLACK
6
CONTINUOUS
10
76.5529
20
-37.505
11
76.5705
21
-37.4626
0
LINE
8
BLACK
6
CONTINUOUS
10
76.5705
20
-37.4626
11
76.6129
21
-37.445
0
LINE
8
BLACK
6
CONTINUOUS
10
76.6129
20
-37.445
11
77.0671
21
-37.445
0
LINE
8
BLACK
6
CONTINUOUS
10
77.0671
20
-37.445
11
77.1095
21
-37.4626
0
LINE
8
BLACK
6
CONTINUOUS
10
80.6303
20
-37.3476
11
80.6478
21
-37.39
0
LINE
8
BLACK
6
CONTINUOUS
10
80.6478
20
-37.39
11
80.6303
21
-37.4324
0
LINE
8
BLACK
6
CONTINUOUS
10
80.6303
20
-37.4324
11
80.5878
21
-37.45
0
LINE
8
BLACK
6
CONTINUOUS
10
80.5878
20
-37.45
11
80.3722
21
-37.45
0
LINE
8
BLACK
6
CONTINUOUS
10
80.3722
20
-37.45
11
80.3297
21
-37.4324
0
LINE
8
BLACK
6
CONTINUOUS
10
80.3297
20
-37.4324
11
80.3122
21
-37.39
0
LINE
8
BLACK
6
CONTINUOUS
10
80.3122
20
-37.39
11
80.3297
21
-37.3476
0
LINE
8
BLACK
6
CONTINUOUS
10
80.3297
20
-37.3476
11
80.3722
21
-37.33
0
LINE
8
BLACK
6
CONTINUOUS
10
80.3722
20
-37.33
11
80.5878
21
-37.33
0
LINE
8
BLACK
6
CONTINUOUS
10
80.5878
20
-37.33
11
80.6303
21
-37.3476
0
LINE
8
BLACK
6
CONTINUOUS
10
90.6624
20
-37.2676
11
90.68
21
-37.31
0
LINE
8
BLACK
6
CONTINUOUS
10
90.68
20
-37.31
11
90.6624
21
-37.3524
0
LINE
8
BLACK
6
CONTINUOUS
10
90.6624
20
-37.3524
11
90.62
21
-37.37
0
LINE
8
BLACK
6
CONTINUOUS
10
90.62
20
-37.37
11
90.145
21
-37.37
0
LINE
8
BLACK
6
CONTINUOUS
10
90.145
20
-37.37
11
90.1026
21
-37.3524
0
LINE
8
BLACK
6
CONTINUOUS
10
90.1026
20
-37.3524
11
90.085
21
-37.31
0
LINE
8
BLACK
6
CONTINUOUS
10
90.085
20
-37.31
11
90.1026
21
-37.2676
0
LINE
8
BLACK
6
CONTINUOUS
10
90.1026
20
-37.2676
11
90.145
21
-37.25
0
LINE
8
BLACK
6
CONTINUOUS
10
90.145
20
-37.25
11
90.62
21
-37.25
0
LINE
8
BLACK
6
CONTINUOUS
10
90.62
20
-37.25
11
90.6624
21
-37.2676
0
LINE
8
BLACK
6
CONTINUOUS
10
84.4437
20
-37.0026
11
84.4613
21
-37.045
0
LINE
8
BLACK
6
CONTINUOUS
10
84.4613
20
-37.045
11
84.4437
21
-37.0874
0
LINE
8
BLACK
6
CONTINUOUS
10
84.4437
20
-37.0874
11
84.4013
21
-37.105
0
LINE
8
BLACK
6
CONTINUOUS
10
84.4013
20
-37.105
11
83.8787
21
-37.105
0
LINE
8
BLACK
6
CONTINUOUS
10
83.8787
20
-37.105
11
83.8363
21
-37.0874
0
LINE
8
BLACK
6
CONTINUOUS
10
83.8363
20
-37.0874
11
83.8187
21
-37.045
0
LINE
8
BLACK
6
CONTINUOUS
10
83.8187
20
-37.045
11
83.8363
21
-37.0026
0
LINE
8
BLACK
6
CONTINUOUS
10
83.8363
20
-37.0026
11
83.8787
21
-36.985
0
LINE
8
BLACK
6
CONTINUOUS
10
83.8787
20
-36.985
11
84.4013
21
-36.985
0
LINE
8
BLACK
6
CONTINUOUS
10
84.4013
20
-36.985
11
84.4437
21
-37.0026
0
LINE
8
BLACK
6
CONTINUOUS
10
57.47
20
-36.62
11
58.12
21
-36.62
0
LINE
8
BLACK
6
CONTINUOUS
10
58.12
20
-36.62
11
58.1624
21
-36.6376
0
LINE
8
BLACK
6
CONTINUOUS
10
58.1624
20
-36.6376
11
58.18
21
-36.68
0
LINE
8
BLACK
6
CONTINUOUS
10
58.18
20
-36.68
11
58.1624
21
-36.7224
0
LINE
8
BLACK
6
CONTINUOUS
10
58.1624
20
-36.7224
11
58.12
21
-36.74
0
LINE
8
BLACK
6
CONTINUOUS
10
58.12
20
-36.74
11
57.47
21
-36.74
0
LINE
8
BLACK
6
CONTINUOUS
10
57.47
20
-36.74
11
55.795
21
-36.74
0
LINE
8
BLACK
6
CONTINUOUS
10
55.795
20
-36.74
11
55.7526
21
-36.7224
0
LINE
8
BLACK
6
CONTINUOUS
10
55.7526
20
-36.7224
11
55.735
21
-36.68
0
LINE
8
BLACK
6
CONTINUOUS
10
55.735
20
-36.68
11
55.7526
21
-36.6376
0
LINE
8
BLACK
6
CONTINUOUS
10
55.7526
20
-36.6376
11
55.795
21
-36.62
0
LINE
8
BLACK
6
CONTINUOUS
10
55.795
20
-36.62
11
57.47
21
-36.62
0
LINE
8
BLACK
6
CONTINUOUS
10
62.49
20
-36.62
11
63.29
21
-36.62
0
LINE
8
BLACK
6
CONTINUOUS
10
63.29
20
-36.62
11
63.3324
21
-36.6376
0
LINE
8
BLACK
6
CONTINUOUS
10
63.3324
20
-36.6376
11
63.35
21
-36.68
0
LINE
8
BLACK
6
CONTINUOUS
10
63.35
20
-36.68
11
63.3324
21
-36.7224
0
LINE
8
BLACK
6
CONTINUOUS
10
63.3324
20
-36.7224
11
63.29
21
-36.74
0
LINE
8
BLACK
6
CONTINUOUS
10
63.29
20
-36.74
11
62.49
21
-36.74
0
LINE
8
BLACK
6
CONTINUOUS
10
62.49
20
-36.74
11
60.69
21
-36.74
0
LINE
8
BLACK
6
CONTINUOUS
10
60.69
20
-36.74
11
60.6476
21
-36.7224
0
LINE
8
BLACK
6
CONTINUOUS
10
60.6476
20
-36.7224
11
60.63
21
-36.68
0
LINE
8
BLACK
6
CONTINUOUS
10
60.63
20
-36.68
11
60.6476
21
-36.6376
0
LINE
8
BLACK
6
CONTINUOUS
10
60.6476
20
-36.6376
11
60.69
21
-36.62
0
LINE
8
BLACK
6
CONTINUOUS
10
60.69
20
-36.62
11
62.49
21
-36.62
0
LINE
8
BLACK
6
CONTINUOUS
10
83.1886
20
-35.4276
11
83.2061
21
-35.47
0
LINE
8
BLACK
6
CONTINUOUS
10
83.2061
20
-35.47
11
83.1886
21
-35.5124
0
LINE
8
BLACK
6
CONTINUOUS
10
83.1886
20
-35.5124
11
83.1461
21
-35.53
0
LINE
8
BLACK
6
CONTINUOUS
10
83.1461
20
-35.53
11
82.8389
21
-35.53
0
LINE
8
BLACK
6
CONTINUOUS
10
82.8389
20
-35.53
11
82.7964
21
-35.5124
0
LINE
8
BLACK
6
CONTINUOUS
10
82.7964
20
-35.5124
11
82.7789
21
-35.47
0
LINE
8
BLACK
6
CONTINUOUS
10
82.7789
20
-35.47
11
82.7964
21
-35.4276
0
LINE
8
BLACK
6
CONTINUOUS
10
82.7964
20
-35.4276
11
82.8389
21
-35.41
0
LINE
8
BLACK
6
CONTINUOUS
10
82.8389
20
-35.41
11
83.1461
21
-35.41
0
LINE
8
BLACK
6
CONTINUOUS
10
83.1461
20
-35.41
11
83.1886
21
-35.4276
0
LINE
8
BLACK
6
CONTINUOUS
10
83.1886
20
-34.6676
11
83.2061
21
-34.71
0
LINE
8
BLACK
6
CONTINUOUS
10
83.2061
20
-34.71
11
83.1886
21
-34.7524
0
LINE
8
BLACK
6
CONTINUOUS
10
83.1886
20
-34.7524
11
83.1461
21
-34.77
0
LINE
8
BLACK
6
CONTINUOUS
10
83.1461
20
-34.77
11
82.8389
21
-34.77
0
LINE
8
BLACK
6
CONTINUOUS
10
82.8389
20
-34.77
11
82.7964
21
-34.7524
0
LINE
8
BLACK
6
CONTINUOUS
10
82.7964
20
-34.7524
11
82.7789
21
-34.71
0
LINE
8
BLACK
6
CONTINUOUS
10
82.7789
20
-34.71
11
82.7964
21
-34.6676
0
LINE
8
BLACK
6
CONTINUOUS
10
82.7964
20
-34.6676
11
82.8389
21
-34.65
0
LINE
8
BLACK
6
CONTINUOUS
10
82.8389
20
-34.65
11
83.1461
21
-34.65
0
LINE
8
BLACK
6
CONTINUOUS
10
83.1461
20
-34.65
11
83.1886
21
-34.6676
0
LINE
8
BLACK
6
CONTINUOUS
10
79.8649
20
-32.5676
11
79.8825
21
-32.61
0
LINE
8
BLACK
6
CONTINUOUS
10
79.8825
20
-32.61
11
79.8825
21
-33.2456
0
LINE
8
BLACK
6
CONTINUOUS
10
79.8825
20
-33.2456
11
79.8701
21
-33.2756
0
LINE
8
BLACK
6
CONTINUOUS
10
79.8701
20
-33.2756
11
79.8649
21
-33.288
0
LINE
8
BLACK
6
CONTINUOUS
10
79.8649
20
-33.288
11
78.8005
21
-34.3524
0
LINE
8
BLACK
6
CONTINUOUS
10
78.8005
20
-34.3524
11
78.8005
21
-34.3524
0
LINE
8
BLACK
6
CONTINUOUS
10
78.8005
20
-34.3524
11
78.7581
21
-34.37
0
LINE
8
BLACK
6
CONTINUOUS
10
78.7581
20
-34.37
11
74.3025
21
-34.37
0
LINE
8
BLACK
6
CONTINUOUS
10
74.3025
20
-34.37
11
74.2601
21
-34.3524
0
LINE
8
BLACK
6
CONTINUOUS
10
74.2601
20
-34.3524
11
74.2425
21
-34.31
0
LINE
8
BLACK
6
CONTINUOUS
10
74.2425
20
-34.31
11
74.2425
21
-32.61
0
LINE
8
BLACK
6
CONTINUOUS
10
74.2425
20
-32.61
11
74.2601
21
-32.5676
0
LINE
8
BLACK
6
CONTINUOUS
10
74.2601
20
-32.5676
11
74.3025
21
-32.55
0
LINE
8
BLACK
6
CONTINUOUS
10
74.3025
20
-32.55
11
74.3449
21
-32.5676
0
LINE
8
BLACK
6
CONTINUOUS
10
74.3449
20
-32.5676
11
74.3625
21
-32.61
0
LINE
8
BLACK
6
CONTINUOUS
10
74.3625
20
-32.61
11
74.3625
21
-34.25
0
LINE
8
BLACK
6
CONTINUOUS
10
74.3625
20
-34.25
11
78.7332
21
-34.25
0
LINE
8
BLACK
6
CONTINUOUS
10
78.7332
20
-34.25
11
79.7625
21
-33.2207
0
LINE
8
BLACK
6
CONTINUOUS
10
79.7625
20
-33.2207
11
79.7625
21
-32.61
0
LINE
8
BLACK
6
CONTINUOUS
10
79.7625
20
-32.61
11
79.7801
21
-32.5676
0
LINE
8
BLACK
6
CONTINUOUS
10
79.7801
20
-32.5676
11
79.8225
21
-32.55
0
LINE
8
BLACK
6
CONTINUOUS
10
79.8225
20
-32.55
11
79.8649
21
-32.5676
0
LINE
8
BLACK
6
CONTINUOUS
10
52.1603
20
-34.0776
11
52.1778
21
-34.12
0
LINE
8
BLACK
6
CONTINUOUS
10
52.1778
20
-34.12
11
52.1603
21
-34.1624
0
LINE
8
BLACK
6
CONTINUOUS
10
52.1603
20
-34.1624
11
52.1178
21
-34.18
0
LINE
8
BLACK
6
CONTINUOUS
10
52.1178
20
-34.18
11
51.9022
21
-34.18
0
LINE
8
BLACK
6
CONTINUOUS
10
51.9022
20
-34.18
11
51.8597
21
-34.1624
0
LINE
8
BLACK
6
CONTINUOUS
10
51.8597
20
-34.1624
11
51.8422
21
-34.12
0
LINE
8
BLACK
6
CONTINUOUS
10
51.8422
20
-34.12
11
51.8597
21
-34.0776
0
LINE
8
BLACK
6
CONTINUOUS
10
51.8597
20
-34.0776
11
51.9022
21
-34.06
0
LINE
8
BLACK
6
CONTINUOUS
10
51.9022
20
-34.06
11
52.1178
21
-34.06
0
LINE
8
BLACK
6
CONTINUOUS
10
52.1178
20
-34.06
11
52.1603
21
-34.0776
0
LINE
8
BLACK
6
CONTINUOUS
10
57.47
20
-33.5
11
58.12
21
-33.5
0
LINE
8
BLACK
6
CONTINUOUS
10
58.12
20
-33.5
11
58.1624
21
-33.5176
0
LINE
8
BLACK
6
CONTINUOUS
10
58.1624
20
-33.5176
11
58.18
21
-33.56
0
LINE
8
BLACK
6
CONTINUOUS
10
58.18
20
-33.56
11
58.1624
21
-33.6024
0
LINE
8
BLACK
6
CONTINUOUS
10
58.1624
20
-33.6024
11
58.12
21
-33.62
0
LINE
8
BLACK
6
CONTINUOUS
10
58.12
20
-33.62
11
57.47
21
-33.62
0
LINE
8
BLACK
6
CONTINUOUS
10
57.47
20
-33.62
11
56.82
21
-33.62
0
LINE
8
BLACK
6
CONTINUOUS
10
56.82
20
-33.62
11
56.7776
21
-33.6024
0
LINE
8
BLACK
6
CONTINUOUS
10
56.7776
20
-33.6024
11
56.76
21
-33.56
0
LINE
8
BLACK
6
CONTINUOUS
10
56.76
20
-33.56
11
56.7776
21
-33.5176
0
LINE
8
BLACK
6
CONTINUOUS
10
56.7776
20
-33.5176
11
56.82
21
-33.5
0
LINE
8
BLACK
6
CONTINUOUS
10
56.82
20
-33.5
11
57.47
21
-33.5
0
LINE
8
BLACK
6
CONTINUOUS
10
62.49
20
-33.5
11
63.29
21
-33.5
0
LINE
8
BLACK
6
CONTINUOUS
10
63.29
20
-33.5
11
63.3324
21
-33.5176
0
LINE
8
BLACK
6
CONTINUOUS
10
63.3324
20
-33.5176
11
63.35
21
-33.56
0
LINE
8
BLACK
6
CONTINUOUS
10
63.35
20
-33.56
11
63.3324
21
-33.6024
0
LINE
8
BLACK
6
CONTINUOUS
10
63.3324
20
-33.6024
11
63.29
21
-33.62
0
LINE
8
BLACK
6
CONTINUOUS
10
63.29
20
-33.62
11
62.49
21
-33.62
0
LINE
8
BLACK
6
CONTINUOUS
10
62.49
20
-33.62
11
61.69
21
-33.62
0
LINE
8
BLACK
6
CONTINUOUS
10
61.69
20
-33.62
11
61.6476
21
-33.6024
0
LINE
8
BLACK
6
CONTINUOUS
10
61.6476
20
-33.6024
11
61.63
21
-33.56
0
LINE
8
BLACK
6
CONTINUOUS
10
61.63
20
-33.56
11
61.6476
21
-33.5176
0
LINE
8
BLACK
6
CONTINUOUS
10
61.6476
20
-33.5176
11
61.69
21
-33.5
0
LINE
8
BLACK
6
CONTINUOUS
10
61.69
20
-33.5
11
62.49
21
-33.5
0
LINE
8
BLACK
6
CONTINUOUS
10
83.1886
20
-33.4376
11
83.2061
21
-33.48
0
LINE
8
BLACK
6
CONTINUOUS
10
83.2061
20
-33.48
11
83.1886
21
-33.5224
0
LINE
8
BLACK
6
CONTINUOUS
10
83.1886
20
-33.5224
11
83.1461
21
-33.54
0
LINE
8
BLACK
6
CONTINUOUS
10
83.1461
20
-33.54
11
82.8389
21
-33.54
0
LINE
8
BLACK
6
CONTINUOUS
10
82.8389
20
-33.54
11
82.7964
21
-33.5224
0
LINE
8
BLACK
6
CONTINUOUS
10
82.7964
20
-33.5224
11
82.7789
21
-33.48
0
LINE
8
BLACK
6
CONTINUOUS
10
82.7789
20
-33.48
11
82.7964
21
-33.4376
0
LINE
8
BLACK
6
CONTINUOUS
10
82.7964
20
-33.4376
11
82.8389
21
-33.42
0
LINE
8
BLACK
6
CONTINUOUS
10
82.8389
20
-33.42
11
83.1461
21
-33.42
0
LINE
8
BLACK
6
CONTINUOUS
10
83.1461
20
-33.42
11
83.1886
21
-33.4376
0
LINE
8
BLACK
6
CONTINUOUS
10
52.1603
20
-33.3576
11
52.1778
21
-33.4
0
LINE
8
BLACK
6
CONTINUOUS
10
52.1778
20
-33.4
11
52.1603
21
-33.4424
0
LINE
8
BLACK
6
CONTINUOUS
10
52.1603
20
-33.4424
11
52.1178
21
-33.46
0
LINE
8
BLACK
6
CONTINUOUS
10
52.1178
20
-33.46
11
51.9022
21
-33.46
0
LINE
8
BLACK
6
CONTINUOUS
10
51.9022
20
-33.46
11
51.8597
21
-33.4424
0
LINE
8
BLACK
6
CONTINUOUS
10
51.8597
20
-33.4424
11
51.8422
21
-33.4
0
LINE
8
BLACK
6
CONTINUOUS
10
51.8422
20
-33.4
11
51.8597
21
-33.3576
0
LINE
8
BLACK
6
CONTINUOUS
10
51.8597
20
-33.3576
11
51.9022
21
-33.34
0
LINE
8
BLACK
6
CONTINUOUS
10
51.9022
20
-33.34
11
52.1178
21
-33.34
0
LINE
8
BLACK
6
CONTINUOUS
10
52.1178
20
-33.34
11
52.1603
21
-33.3576
0
LINE
8
BLACK
6
CONTINUOUS
10
83.1886
20
-32.6776
11
83.2061
21
-32.72
0
LINE
8
BLACK
6
CONTINUOUS
10
83.2061
20
-32.72
11
83.1886
21
-32.7624
0
LINE
8
BLACK
6
CONTINUOUS
10
83.1886
20
-32.7624
11
83.1461
21
-32.78
0
LINE
8
BLACK
6
CONTINUOUS
10
83.1461
20
-32.78
11
82.8389
21
-32.78
0
LINE
8
BLACK
6
CONTINUOUS
10
82.8389
20
-32.78
11
82.7964
21
-32.7624
0
LINE
8
BLACK
6
CONTINUOUS
10
82.7964
20
-32.7624
11
82.7789
21
-32.72
0
LINE
8
BLACK
6
CONTINUOUS
10
82.7789
20
-32.72
11
82.7964
21
-32.6776
0
LINE
8
BLACK
6
CONTINUOUS
10
82.7964
20
-32.6776
11
82.8389
21
-32.66
0
LINE
8
BLACK
6
CONTINUOUS
10
82.8389
20
-32.66
11
83.1461
21
-32.66
0
LINE
8
BLACK
6
CONTINUOUS
10
83.1461
20
-32.66
11
83.1886
21
-32.6776
0
LINE
8
BLACK
6
CONTINUOUS
10
83.1886
20
-31.4476
11
83.2061
21
-31.49
0
LINE
8
BLACK
6
CONTINUOUS
10
83.2061
20
-31.49
11
83.1886
21
-31.5324
0
LINE
8
BLACK
6
CONTINUOUS
10
83.1886
20
-31.5324
11
83.1461
21
-31.55
0
LINE
8
BLACK
6
CONTINUOUS
10
83.1461
20
-31.55
11
82.8389
21
-31.55
0
LINE
8
BLACK
6
CONTINUOUS
10
82.8389
20
-31.55
11
82.7964
21
-31.5324
0
LINE
8
BLACK
6
CONTINUOUS
10
82.7964
20
-31.5324
11
82.7789
21
-31.49
0
LINE
8
BLACK
6
CONTINUOUS
10
82.7789
20
-31.49
11
82.7964
21
-31.4476
0
LINE
8
BLACK
6
CONTINUOUS
10
82.7964
20
-31.4476
11
82.8389
21
-31.43
0
LINE
8
BLACK
6
CONTINUOUS
10
82.8389
20
-31.43
11
83.1461
21
-31.43
0
LINE
8
BLACK
6
CONTINUOUS
10
83.1461
20
-31.43
11
83.1886
21
-31.4476
0
LINE
8
BLACK
6
CONTINUOUS
10
83.1886
20
-30.6876
11
83.2061
21
-30.73
0
LINE
8
BLACK
6
CONTINUOUS
10
83.2061
20
-30.73
11
83.1886
21
-30.7724
0
LINE
8
BLACK
6
CONTINUOUS
10
83.1886
20
-30.7724
11
83.1461
21
-30.79
0
LINE
8
BLACK
6
CONTINUOUS
10
83.1461
20
-30.79
11
82.8389
21
-30.79
0
LINE
8
BLACK
6
CONTINUOUS
10
82.8389
20
-30.79
11
82.7964
21
-30.7724
0
LINE
8
BLACK
6
CONTINUOUS
10
82.7964
20
-30.7724
11
82.7789
21
-30.73
0
LINE
8
BLACK
6
CONTINUOUS
10
82.7789
20
-30.73
11
82.7964
21
-30.6876
0
LINE
8
BLACK
6
CONTINUOUS
10
82.7964
20
-30.6876
11
82.8389
21
-30.67
0
LINE
8
BLACK
6
CONTINUOUS
10
82.8389
20
-30.67
11
83.1461
21
-30.67
0
LINE
8
BLACK
6
CONTINUOUS
10
83.1461
20
-30.67
11
83.1886
21
-30.6876
0
LINE
8
BLACK
6
CONTINUOUS
10
78.8005
20
-28.7476
11
79.8649
21
-29.812
0
LINE
8
BLACK
6
CONTINUOUS
10
79.8649
20
-29.812
11
79.8701
21
-29.8244
0
LINE
8
BLACK
6
CONTINUOUS
10
79.8701
20
-29.8244
11
79.8825
21
-29.8544
0
LINE
8
BLACK
6
CONTINUOUS
10
79.8825
20
-29.8544
11
79.8825
21
-30.49
0
LINE
8
BLACK
6
CONTINUOUS
10
79.8825
20
-30.49
11
79.8649
21
-30.5324
0
LINE
8
BLACK
6
CONTINUOUS
10
79.8649
20
-30.5324
11
79.8225
21
-30.55
0
LINE
8
BLACK
6
CONTINUOUS
10
79.8225
20
-30.55
11
79.7801
21
-30.5324
0
LINE
8
BLACK
6
CONTINUOUS
10
79.7801
20
-30.5324
11
79.7625
21
-30.49
0
LINE
8
BLACK
6
CONTINUOUS
10
79.7625
20
-30.49
11
79.7625
21
-29.8793
0
LINE
8
BLACK
6
CONTINUOUS
10
79.7625
20
-29.8793
11
78.7332
21
-28.85
0
LINE
8
BLACK
6
CONTINUOUS
10
78.7332
20
-28.85
11
74.3625
21
-28.85
0
LINE
8
BLACK
6
CONTINUOUS
10
74.3625
20
-28.85
11
74.3625
21
-30.49
0
LINE
8
BLACK
6
CONTINUOUS
10
74.3625
20
-30.49
11
74.3449
21
-30.5324
0
LINE
8
BLACK
6
CONTINUOUS
10
74.3449
20
-30.5324
11
74.3025
21
-30.55
0
LINE
8
BLACK
6
CONTINUOUS
10
74.3025
20
-30.55
11
74.2601
21
-30.5324
0
LINE
8
BLACK
6
CONTINUOUS
10
74.2601
20
-30.5324
11
74.2425
21
-30.49
0
LINE
8
BLACK
6
CONTINUOUS
10
74.2425
20
-30.49
11
74.2425
21
-28.79
0
LINE
8
BLACK
6
CONTINUOUS
10
74.2425
20
-28.79
11
74.2601
21
-28.7476
0
LINE
8
BLACK
6
CONTINUOUS
10
74.2601
20
-28.7476
11
74.3025
21
-28.73
0
LINE
8
BLACK
6
CONTINUOUS
10
74.3025
20
-28.73
11
78.7581
21
-28.73
0
LINE
8
BLACK
6
CONTINUOUS
10
78.7581
20
-28.73
11
78.8005
21
-28.7476
0
LINE
8
BLACK
6
CONTINUOUS
10
80.4174
20
-29.5101
11
80.435
21
-29.5525
0
LINE
8
BLACK
6
CONTINUOUS
10
80.435
20
-29.5525
11
80.435
21
-29.805
0
LINE
8
BLACK
6
CONTINUOUS
10
80.435
20
-29.805
11
80.6875
21
-29.805
0
LINE
8
BLACK
6
CONTINUOUS
10
80.6875
20
-29.805
11
80.7299
21
-29.8226
0
LINE
8
BLACK
6
CONTINUOUS
10
80.7299
20
-29.8226
11
80.7475
21
-29.865
0
LINE
8
BLACK
6
CONTINUOUS
10
80.7475
20
-29.865
11
80.7299
21
-29.9074
0
LINE
8
BLACK
6
CONTINUOUS
10
80.7299
20
-29.9074
11
80.6875
21
-29.925
0
LINE
8
BLACK
6
CONTINUOUS
10
80.6875
20
-29.925
11
80.435
21
-29.925
0
LINE
8
BLACK
6
CONTINUOUS
10
80.435
20
-29.925
11
80.435
21
-30.1775
0
LINE
8
BLACK
6
CONTINUOUS
10
80.435
20
-30.1775
11
80.4174
21
-30.2199
0
LINE
8
BLACK
6
CONTINUOUS
10
80.4174
20
-30.2199
11
80.375
21
-30.2375
0
LINE
8
BLACK
6
CONTINUOUS
10
80.375
20
-30.2375
11
80.3326
21
-30.2199
0
LINE
8
BLACK
6
CONTINUOUS
10
80.3326
20
-30.2199
11
80.315
21
-30.1775
0
LINE
8
BLACK
6
CONTINUOUS
10
80.315
20
-30.1775
11
80.315
21
-29.925
0
LINE
8
BLACK
6
CONTINUOUS
10
80.315
20
-29.925
11
80.0625
21
-29.925
0
LINE
8
BLACK
6
CONTINUOUS
10
80.0625
20
-29.925
11
80.0201
21
-29.9074
0
LINE
8
BLACK
6
CONTINUOUS
10
80.0201
20
-29.9074
11
80.0025
21
-29.865
0
LINE
8
BLACK
6
CONTINUOUS
10
80.0025
20
-29.865
11
80.0201
21
-29.8226
0
LINE
8
BLACK
6
CONTINUOUS
10
80.0201
20
-29.8226
11
80.0625
21
-29.805
0
LINE
8
BLACK
6
CONTINUOUS
10
80.0625
20
-29.805
11
80.315
21
-29.805
0
LINE
8
BLACK
6
CONTINUOUS
10
80.315
20
-29.805
11
80.315
21
-29.5525
0
LINE
8
BLACK
6
CONTINUOUS
10
80.315
20
-29.5525
11
80.3326
21
-29.5101
0
LINE
8
BLACK
6
CONTINUOUS
10
80.3326
20
-29.5101
11
80.375
21
-29.4925
0
LINE
8
BLACK
6
CONTINUOUS
10
80.375
20
-29.4925
11
80.4174
21
-29.5101
0
LINE
8
BLACK
6
CONTINUOUS
10
83.1886
20
-29.4576
11
83.2061
21
-29.5
0
LINE
8
BLACK
6
CONTINUOUS
10
83.2061
20
-29.5
11
83.1886
21
-29.5424
0
LINE
8
BLACK
6
CONTINUOUS
10
83.1886
20
-29.5424
11
83.1461
21
-29.56
0
LINE
8
BLACK
6
CONTINUOUS
10
83.1461
20
-29.56
11
82.8389
21
-29.56
0
LINE
8
BLACK
6
CONTINUOUS
10
82.8389
20
-29.56
11
82.7964
21
-29.5424
0
LINE
8
BLACK
6
CONTINUOUS
10
82.7964
20
-29.5424
11
82.7789
21
-29.5
0
LINE
8
BLACK
6
CONTINUOUS
10
82.7789
20
-29.5
11
82.7964
21
-29.4576
0
LINE
8
BLACK
6
CONTINUOUS
10
82.7964
20
-29.4576
11
82.8389
21
-29.44
0
LINE
8
BLACK
6
CONTINUOUS
10
82.8389
20
-29.44
11
83.1461
21
-29.44
0
LINE
8
BLACK
6
CONTINUOUS
10
83.1461
20
-29.44
11
83.1886
21
-29.4576
0
LINE
8
BLACK
6
CONTINUOUS
10
83.1886
20
-28.6976
11
83.2061
21
-28.74
0
LINE
8
BLACK
6
CONTINUOUS
10
83.2061
20
-28.74
11
83.1886
21
-28.7824
0
LINE
8
BLACK
6
CONTINUOUS
10
83.1886
20
-28.7824
11
83.1461
21
-28.8
0
LINE
8
BLACK
6
CONTINUOUS
10
83.1461
20
-28.8
11
82.8389
21
-28.8
0
LINE
8
BLACK
6
CONTINUOUS
10
82.8389
20
-28.8
11
82.7964
21
-28.7824
0
LINE
8
BLACK
6
CONTINUOUS
10
82.7964
20
-28.7824
11
82.7789
21
-28.74
0
LINE
8
BLACK
6
CONTINUOUS
10
82.7789
20
-28.74
11
82.7964
21
-28.6976
0
LINE
8
BLACK
6
CONTINUOUS
10
82.7964
20
-28.6976
11
82.8389
21
-28.68
0
LINE
8
BLACK
6
CONTINUOUS
10
82.8389
20
-28.68
11
83.1461
21
-28.68
0
LINE
8
BLACK
6
CONTINUOUS
10
83.1461
20
-28.68
11
83.1886
21
-28.6976
  0
ENDSEC
  0
EOF
