  0
SECTION
  2
HEADER
  9
$ANGBASE
  50
0.0
  9
$ANGDIR
  70
1
  9
$MEASUREMENT
  70
1
  0
ENDSEC
  0
SECTION
  2
TABLES
  0
TABLE
  2
LTYPE
  70
4
  0
LTYPE
  5
40F
  2
CONTINUOUS
  70
0
  3
Solid line
  72
65
  73
0
  40
0.0
  0
LTYPE
  5
410
  2
DASHDOT
 70
0
  3
Dash Dot ____ _ ____ _
 72
65
 73
4
 40
2.0
 49
1.25
 49
-0.25
 49
0.25
 49
-0.25
  0
LTYPE
  5
411
  2
DASHED
 70
0
  3
Dashed __ __ __ __ __
 72
65
 73
2
 40
0.75
 49
0.5
 49
-0.25
  0
LTYPE
  5
43B
  2
DOTTED
 70
0
  3
Dotted .  .  .  .
 72
65
 73
2
 40
0.2
 49
0.0
 49
-0.2
  0
ENDTAB
  0
TABLE
  2
STYLE
  70
4
  0
STYLE
  2
KICAD
  70
0
  40
0
  41
1
  42
1
  50
0
  71
0
  3
isocp.shx
  0
STYLE
  2
KICADB
  70
0
  40
0
  41
1
  42
1
  50
0
  71
0
  3
isocp.shx
  0
STYLE
  2
KICADI
  70
0
  40
0
  41
1
  42
1
  50
15
  71
0
  3
isocp.shx
  0
STYLE
  2
KICADBI
  70
0
  40
0
  41
1
  42
1
  50
15
  71
0
  3
isocp.shx
  0
ENDTAB
  0
TABLE
  2
LAYER
  70
1
  0
LAYER
  2
BLACK
  70
0
  62
7
  6
CONTINUOUS
  0
ENDTAB
  0
ENDSEC
  0
SECTION
  2
ENTITIES
0
LINE
8
BLACK
6
CONTINUOUS
10
68.0458
20
-86.9703
11
68.4026
21
-87.0488
0
LINE
8
BLACK
6
CONTINUOUS
10
68.4026
20
-87.0488
11
68.7489
21
-87.1655
0
LINE
8
BLACK
6
CONTINUOUS
10
68.7489
20
-87.1655
11
69.0804
21
-87.3189
0
LINE
8
BLACK
6
CONTINUOUS
10
69.0804
20
-87.3189
11
69.3935
21
-87.5072
0
LINE
8
BLACK
6
CONTINUOUS
10
69.3935
20
-87.5072
11
69.6844
21
-87.7283
0
LINE
8
BLACK
6
CONTINUOUS
10
69.6844
20
-87.7283
11
69.9496
21
-87.9796
0
LINE
8
BLACK
6
CONTINUOUS
10
69.9496
20
-87.9796
11
70.1861
21
-88.258
0
LINE
8
BLACK
6
CONTINUOUS
10
70.1861
20
-88.258
11
70.3912
21
-88.5604
0
LINE
8
BLACK
6
CONTINUOUS
10
70.3912
20
-88.5604
11
70.5623
21
-88.8832
0
LINE
8
BLACK
6
CONTINUOUS
10
70.5623
20
-88.8832
11
70.6975
21
-89.2226
0
LINE
8
BLACK
6
CONTINUOUS
10
70.6975
20
-89.2226
11
70.7953
21
-89.5747
0
LINE
8
BLACK
6
CONTINUOUS
10
70.7953
20
-89.5747
11
70.8544
21
-89.9352
0
LINE
8
BLACK
6
CONTINUOUS
10
70.8544
20
-89.9352
11
70.8741
21
-90.3
0
LINE
8
BLACK
6
CONTINUOUS
10
70.8741
20
-90.3
11
70.8544
21
-90.6648
0
LINE
8
BLACK
6
CONTINUOUS
10
70.8544
20
-90.6648
11
70.7953
21
-91.0254
0
LINE
8
BLACK
6
CONTINUOUS
10
70.7953
20
-91.0254
11
70.6975
21
-91.3774
0
LINE
8
BLACK
6
CONTINUOUS
10
70.6975
20
-91.3774
11
70.5623
21
-91.7168
0
LINE
8
BLACK
6
CONTINUOUS
10
70.5623
20
-91.7168
11
70.3912
21
-92.0396
0
LINE
8
BLACK
6
CONTINUOUS
10
70.3912
20
-92.0396
11
70.1861
21
-92.342
0
LINE
8
BLACK
6
CONTINUOUS
10
70.1861
20
-92.342
11
69.9496
21
-92.6205
0
LINE
8
BLACK
6
CONTINUOUS
10
69.9496
20
-92.6205
11
69.6844
21
-92.8717
0
LINE
8
BLACK
6
CONTINUOUS
10
69.6844
20
-92.8717
11
69.3935
21
-93.0928
0
LINE
8
BLACK
6
CONTINUOUS
10
69.3935
20
-93.0928
11
69.0804
21
-93.2812
0
LINE
8
BLACK
6
CONTINUOUS
10
69.0804
20
-93.2812
11
68.7489
21
-93.4346
0
LINE
8
BLACK
6
CONTINUOUS
10
68.7489
20
-93.4346
11
68.4026
21
-93.5512
0
LINE
8
BLACK
6
CONTINUOUS
10
68.4026
20
-93.5512
11
68.0458
21
-93.6298
0
LINE
8
BLACK
6
CONTINUOUS
10
68.0458
20
-93.6298
11
67.6826
21
-93.6693
0
LINE
8
BLACK
6
CONTINUOUS
10
67.6826
20
-93.6693
11
67.3173
21
-93.6693
0
LINE
8
BLACK
6
CONTINUOUS
10
67.3173
20
-93.6693
11
66.9541
21
-93.6298
0
LINE
8
BLACK
6
CONTINUOUS
10
66.9541
20
-93.6298
11
66.5973
21
-93.5512
0
LINE
8
BLACK
6
CONTINUOUS
10
66.5973
20
-93.5512
11
66.251
21
-93.4346
0
LINE
8
BLACK
6
CONTINUOUS
10
66.251
20
-93.4346
11
65.9194
21
-93.2812
0
LINE
8
BLACK
6
CONTINUOUS
10
65.9194
20
-93.2812
11
65.6064
21
-93.0928
0
LINE
8
BLACK
6
CONTINUOUS
10
65.6064
20
-93.0928
11
65.3155
21
-92.8717
0
LINE
8
BLACK
6
CONTINUOUS
10
65.3155
20
-92.8717
11
65.0503
21
-92.6205
0
LINE
8
BLACK
6
CONTINUOUS
10
65.0503
20
-92.6205
11
64.8138
21
-92.342
0
LINE
8
BLACK
6
CONTINUOUS
10
64.8138
20
-92.342
11
64.6087
21
-92.0396
0
LINE
8
BLACK
6
CONTINUOUS
10
64.6087
20
-92.0396
11
64.4376
21
-91.7168
0
LINE
8
BLACK
6
CONTINUOUS
10
64.4376
20
-91.7168
11
64.3024
21
-91.3774
0
LINE
8
BLACK
6
CONTINUOUS
10
64.3024
20
-91.3774
11
64.2046
21
-91.0254
0
LINE
8
BLACK
6
CONTINUOUS
10
64.2046
20
-91.0254
11
64.1455
21
-90.6648
0
LINE
8
BLACK
6
CONTINUOUS
10
64.1455
20
-90.6648
11
64.1258
21
-90.3
0
LINE
8
BLACK
6
CONTINUOUS
10
64.1258
20
-90.3
11
64.1455
21
-89.9352
0
LINE
8
BLACK
6
CONTINUOUS
10
64.1455
20
-89.9352
11
64.2046
21
-89.5747
0
LINE
8
BLACK
6
CONTINUOUS
10
64.2046
20
-89.5747
11
64.3024
21
-89.2226
0
LINE
8
BLACK
6
CONTINUOUS
10
64.3024
20
-89.2226
11
64.4376
21
-88.8832
0
LINE
8
BLACK
6
CONTINUOUS
10
64.4376
20
-88.8832
11
64.6087
21
-88.5604
0
LINE
8
BLACK
6
CONTINUOUS
10
64.6087
20
-88.5604
11
64.8138
21
-88.258
0
LINE
8
BLACK
6
CONTINUOUS
10
64.8138
20
-88.258
11
65.0503
21
-87.9796
0
LINE
8
BLACK
6
CONTINUOUS
10
65.0503
20
-87.9796
11
65.3155
21
-87.7283
0
LINE
8
BLACK
6
CONTINUOUS
10
65.3155
20
-87.7283
11
65.6064
21
-87.5072
0
LINE
8
BLACK
6
CONTINUOUS
10
65.6064
20
-87.5072
11
65.9194
21
-87.3189
0
LINE
8
BLACK
6
CONTINUOUS
10
65.9194
20
-87.3189
11
66.251
21
-87.1655
0
LINE
8
BLACK
6
CONTINUOUS
10
66.251
20
-87.1655
11
66.5973
21
-87.0488
0
LINE
8
BLACK
6
CONTINUOUS
10
66.5973
20
-87.0488
11
66.9541
21
-86.9703
0
LINE
8
BLACK
6
CONTINUOUS
10
66.9541
20
-86.9703
11
67.3173
21
-86.9308
0
LINE
8
BLACK
6
CONTINUOUS
10
67.3173
20
-86.9308
11
67.6826
21
-86.9308
0
LINE
8
BLACK
6
CONTINUOUS
10
67.6826
20
-86.9308
11
68.0458
21
-86.9703
0
LINE
8
BLACK
6
CONTINUOUS
10
64.293
20
-90.6614
11
64.3536
21
-91.0182
0
LINE
8
BLACK
6
CONTINUOUS
10
64.3536
20
-91.0182
11
64.4538
21
-91.3659
0
LINE
8
BLACK
6
CONTINUOUS
10
64.4538
20
-91.3659
11
64.5923
21
-91.7003
0
LINE
8
BLACK
6
CONTINUOUS
10
64.5923
20
-91.7003
11
64.7673
21
-92.017
0
LINE
8
BLACK
6
CONTINUOUS
10
64.7673
20
-92.017
11
64.9768
21
-92.3122
0
LINE
8
BLACK
6
CONTINUOUS
10
64.9768
20
-92.3122
11
65.2179
21
-92.5821
0
LINE
8
BLACK
6
CONTINUOUS
10
65.2179
20
-92.5821
11
65.4878
21
-92.8232
0
LINE
8
BLACK
6
CONTINUOUS
10
65.4878
20
-92.8232
11
65.7829
21
-93.0326
0
LINE
8
BLACK
6
CONTINUOUS
10
65.7829
20
-93.0326
11
66.0997
21
-93.2077
0
LINE
8
BLACK
6
CONTINUOUS
10
66.0997
20
-93.2077
11
66.434
21
-93.3462
0
LINE
8
BLACK
6
CONTINUOUS
10
66.434
20
-93.3462
11
66.7818
21
-93.4464
0
LINE
8
BLACK
6
CONTINUOUS
10
66.7818
20
-93.4464
11
67.1386
21
-93.507
0
LINE
8
BLACK
6
CONTINUOUS
10
67.1386
20
-93.507
11
67.4999
21
-93.5273
0
LINE
8
BLACK
6
CONTINUOUS
10
67.4999
20
-93.5273
11
67.8613
21
-93.507
0
LINE
8
BLACK
6
CONTINUOUS
10
67.8613
20
-93.507
11
68.2181
21
-93.4464
0
LINE
8
BLACK
6
CONTINUOUS
10
68.2181
20
-93.4464
11
68.5659
21
-93.3462
0
LINE
8
BLACK
6
CONTINUOUS
10
68.5659
20
-93.3462
11
68.9002
21
-93.2077
0
LINE
8
BLACK
6
CONTINUOUS
10
68.9002
20
-93.2077
11
69.217
21
-93.0326
0
LINE
8
BLACK
6
CONTINUOUS
10
69.217
20
-93.0326
11
69.5121
21
-92.8232
0
LINE
8
BLACK
6
CONTINUOUS
10
69.5121
20
-92.8232
11
69.782
21
-92.5821
0
LINE
8
BLACK
6
CONTINUOUS
10
69.782
20
-92.5821
11
70.0231
21
-92.3122
0
LINE
8
BLACK
6
CONTINUOUS
10
70.0231
20
-92.3122
11
70.2326
21
-92.017
0
LINE
8
BLACK
6
CONTINUOUS
10
70.2326
20
-92.017
11
70.4076
21
-91.7003
0
LINE
8
BLACK
6
CONTINUOUS
10
70.4076
20
-91.7003
11
70.5461
21
-91.3659
0
LINE
8
BLACK
6
CONTINUOUS
10
70.5461
20
-91.3659
11
70.6463
21
-91.0182
0
LINE
8
BLACK
6
CONTINUOUS
10
70.6463
20
-91.0182
11
70.7069
21
-90.6614
0
LINE
8
BLACK
6
CONTINUOUS
10
70.7069
20
-90.6614
11
70.7272
21
-90.3
0
LINE
8
BLACK
6
CONTINUOUS
10
70.7272
20
-90.3
11
70.7069
21
-89.9387
0
LINE
8
BLACK
6
CONTINUOUS
10
70.7069
20
-89.9387
11
70.6463
21
-89.5819
0
LINE
8
BLACK
6
CONTINUOUS
10
70.6463
20
-89.5819
11
70.5461
21
-89.2341
0
LINE
8
BLACK
6
CONTINUOUS
10
70.5461
20
-89.2341
11
70.4076
21
-88.8998
0
LINE
8
BLACK
6
CONTINUOUS
10
70.4076
20
-88.8998
11
70.2326
21
-88.583
0
LINE
8
BLACK
6
CONTINUOUS
10
70.2326
20
-88.583
11
70.0231
21
-88.2879
0
LINE
8
BLACK
6
CONTINUOUS
10
70.0231
20
-88.2879
11
69.782
21
-88.018
0
LINE
8
BLACK
6
CONTINUOUS
10
69.782
20
-88.018
11
69.5121
21
-87.7768
0
LINE
8
BLACK
6
CONTINUOUS
10
69.5121
20
-87.7768
11
69.217
21
-87.5674
0
LINE
8
BLACK
6
CONTINUOUS
10
69.217
20
-87.5674
11
68.9002
21
-87.3923
0
LINE
8
BLACK
6
CONTINUOUS
10
68.9002
20
-87.3923
11
68.5659
21
-87.2539
0
LINE
8
BLACK
6
CONTINUOUS
10
68.5659
20
-87.2539
11
68.2181
21
-87.1537
0
LINE
8
BLACK
6
CONTINUOUS
10
68.2181
20
-87.1537
11
67.8613
21
-87.093
0
LINE
8
BLACK
6
CONTINUOUS
10
67.8613
20
-87.093
11
67.4999
21
-87.0727
0
LINE
8
BLACK
6
CONTINUOUS
10
67.4999
20
-87.0727
11
67.1386
21
-87.093
0
LINE
8
BLACK
6
CONTINUOUS
10
67.1386
20
-87.093
11
66.7818
21
-87.1537
0
LINE
8
BLACK
6
CONTINUOUS
10
66.7818
20
-87.1537
11
66.434
21
-87.2539
0
LINE
8
BLACK
6
CONTINUOUS
10
66.434
20
-87.2539
11
66.0997
21
-87.3923
0
LINE
8
BLACK
6
CONTINUOUS
10
66.0997
20
-87.3923
11
65.7829
21
-87.5674
0
LINE
8
BLACK
6
CONTINUOUS
10
65.7829
20
-87.5674
11
65.4878
21
-87.7768
0
LINE
8
BLACK
6
CONTINUOUS
10
65.4878
20
-87.7768
11
65.2179
21
-88.018
0
LINE
8
BLACK
6
CONTINUOUS
10
65.2179
20
-88.018
11
64.9768
21
-88.2879
0
LINE
8
BLACK
6
CONTINUOUS
10
64.9768
20
-88.2879
11
64.7673
21
-88.583
0
LINE
8
BLACK
6
CONTINUOUS
10
64.7673
20
-88.583
11
64.5923
21
-88.8998
0
LINE
8
BLACK
6
CONTINUOUS
10
64.5923
20
-88.8998
11
64.4538
21
-89.2341
0
LINE
8
BLACK
6
CONTINUOUS
10
64.4538
20
-89.2341
11
64.3536
21
-89.5819
0
LINE
8
BLACK
6
CONTINUOUS
10
64.3536
20
-89.5819
11
64.293
21
-89.9387
0
LINE
8
BLACK
6
CONTINUOUS
10
64.293
20
-89.9387
11
64.2727
21
-90.3
0
LINE
8
BLACK
6
CONTINUOUS
10
64.2727
20
-90.3
11
64.293
21
-90.6614
0
LINE
8
BLACK
6
CONTINUOUS
10
93.0458
20
-86.9703
11
93.4026
21
-87.0488
0
LINE
8
BLACK
6
CONTINUOUS
10
93.4026
20
-87.0488
11
93.7489
21
-87.1655
0
LINE
8
BLACK
6
CONTINUOUS
10
93.7489
20
-87.1655
11
94.0804
21
-87.3189
0
LINE
8
BLACK
6
CONTINUOUS
10
94.0804
20
-87.3189
11
94.3935
21
-87.5072
0
LINE
8
BLACK
6
CONTINUOUS
10
94.3935
20
-87.5072
11
94.6844
21
-87.7283
0
LINE
8
BLACK
6
CONTINUOUS
10
94.6844
20
-87.7283
11
94.9496
21
-87.9796
0
LINE
8
BLACK
6
CONTINUOUS
10
94.9496
20
-87.9796
11
95.1861
21
-88.258
0
LINE
8
BLACK
6
CONTINUOUS
10
95.1861
20
-88.258
11
95.3912
21
-88.5604
0
LINE
8
BLACK
6
CONTINUOUS
10
95.3912
20
-88.5604
11
95.5623
21
-88.8832
0
LINE
8
BLACK
6
CONTINUOUS
10
95.5623
20
-88.8832
11
95.6975
21
-89.2226
0
LINE
8
BLACK
6
CONTINUOUS
10
95.6975
20
-89.2226
11
95.7953
21
-89.5747
0
LINE
8
BLACK
6
CONTINUOUS
10
95.7953
20
-89.5747
11
95.8544
21
-89.9352
0
LINE
8
BLACK
6
CONTINUOUS
10
95.8544
20
-89.9352
11
95.8741
21
-90.3
0
LINE
8
BLACK
6
CONTINUOUS
10
95.8741
20
-90.3
11
95.8544
21
-90.6648
0
LINE
8
BLACK
6
CONTINUOUS
10
95.8544
20
-90.6648
11
95.7953
21
-91.0254
0
LINE
8
BLACK
6
CONTINUOUS
10
95.7953
20
-91.0254
11
95.6975
21
-91.3774
0
LINE
8
BLACK
6
CONTINUOUS
10
95.6975
20
-91.3774
11
95.5623
21
-91.7168
0
LINE
8
BLACK
6
CONTINUOUS
10
95.5623
20
-91.7168
11
95.3912
21
-92.0396
0
LINE
8
BLACK
6
CONTINUOUS
10
95.3912
20
-92.0396
11
95.1861
21
-92.342
0
LINE
8
BLACK
6
CONTINUOUS
10
95.1861
20
-92.342
11
94.9496
21
-92.6205
0
LINE
8
BLACK
6
CONTINUOUS
10
94.9496
20
-92.6205
11
94.6844
21
-92.8717
0
LINE
8
BLACK
6
CONTINUOUS
10
94.6844
20
-92.8717
11
94.3935
21
-93.0928
0
LINE
8
BLACK
6
CONTINUOUS
10
94.3935
20
-93.0928
11
94.0804
21
-93.2812
0
LINE
8
BLACK
6
CONTINUOUS
10
94.0804
20
-93.2812
11
93.7489
21
-93.4346
0
LINE
8
BLACK
6
CONTINUOUS
10
93.7489
20
-93.4346
11
93.4026
21
-93.5512
0
LINE
8
BLACK
6
CONTINUOUS
10
93.4026
20
-93.5512
11
93.0458
21
-93.6298
0
LINE
8
BLACK
6
CONTINUOUS
10
93.0458
20
-93.6298
11
92.6826
21
-93.6693
0
LINE
8
BLACK
6
CONTINUOUS
10
92.6826
20
-93.6693
11
92.3173
21
-93.6693
0
LINE
8
BLACK
6
CONTINUOUS
10
92.3173
20
-93.6693
11
91.9541
21
-93.6298
0
LINE
8
BLACK
6
CONTINUOUS
10
91.9541
20
-93.6298
11
91.5973
21
-93.5512
0
LINE
8
BLACK
6
CONTINUOUS
10
91.5973
20
-93.5512
11
91.251
21
-93.4346
0
LINE
8
BLACK
6
CONTINUOUS
10
91.251
20
-93.4346
11
90.9194
21
-93.2812
0
LINE
8
BLACK
6
CONTINUOUS
10
90.9194
20
-93.2812
11
90.6064
21
-93.0928
0
LINE
8
BLACK
6
CONTINUOUS
10
90.6064
20
-93.0928
11
90.3155
21
-92.8717
0
LINE
8
BLACK
6
CONTINUOUS
10
90.3155
20
-92.8717
11
90.0503
21
-92.6205
0
LINE
8
BLACK
6
CONTINUOUS
10
90.0503
20
-92.6205
11
89.8138
21
-92.342
0
LINE
8
BLACK
6
CONTINUOUS
10
89.8138
20
-92.342
11
89.6087
21
-92.0396
0
LINE
8
BLACK
6
CONTINUOUS
10
89.6087
20
-92.0396
11
89.4376
21
-91.7168
0
LINE
8
BLACK
6
CONTINUOUS
10
89.4376
20
-91.7168
11
89.3024
21
-91.3774
0
LINE
8
BLACK
6
CONTINUOUS
10
89.3024
20
-91.3774
11
89.2046
21
-91.0254
0
LINE
8
BLACK
6
CONTINUOUS
10
89.2046
20
-91.0254
11
89.1455
21
-90.6648
0
LINE
8
BLACK
6
CONTINUOUS
10
89.1455
20
-90.6648
11
89.1258
21
-90.3
0
LINE
8
BLACK
6
CONTINUOUS
10
89.1258
20
-90.3
11
89.1455
21
-89.9352
0
LINE
8
BLACK
6
CONTINUOUS
10
89.1455
20
-89.9352
11
89.2046
21
-89.5747
0
LINE
8
BLACK
6
CONTINUOUS
10
89.2046
20
-89.5747
11
89.3024
21
-89.2226
0
LINE
8
BLACK
6
CONTINUOUS
10
89.3024
20
-89.2226
11
89.4376
21
-88.8832
0
LINE
8
BLACK
6
CONTINUOUS
10
89.4376
20
-88.8832
11
89.6087
21
-88.5604
0
LINE
8
BLACK
6
CONTINUOUS
10
89.6087
20
-88.5604
11
89.8138
21
-88.258
0
LINE
8
BLACK
6
CONTINUOUS
10
89.8138
20
-88.258
11
90.0503
21
-87.9796
0
LINE
8
BLACK
6
CONTINUOUS
10
90.0503
20
-87.9796
11
90.3155
21
-87.7283
0
LINE
8
BLACK
6
CONTINUOUS
10
90.3155
20
-87.7283
11
90.6064
21
-87.5072
0
LINE
8
BLACK
6
CONTINUOUS
10
90.6064
20
-87.5072
11
90.9194
21
-87.3189
0
LINE
8
BLACK
6
CONTINUOUS
10
90.9194
20
-87.3189
11
91.251
21
-87.1655
0
LINE
8
BLACK
6
CONTINUOUS
10
91.251
20
-87.1655
11
91.5973
21
-87.0488
0
LINE
8
BLACK
6
CONTINUOUS
10
91.5973
20
-87.0488
11
91.9541
21
-86.9703
0
LINE
8
BLACK
6
CONTINUOUS
10
91.9541
20
-86.9703
11
92.3173
21
-86.9308
0
LINE
8
BLACK
6
CONTINUOUS
10
92.3173
20
-86.9308
11
92.6826
21
-86.9308
0
LINE
8
BLACK
6
CONTINUOUS
10
92.6826
20
-86.9308
11
93.0458
21
-86.9703
0
LINE
8
BLACK
6
CONTINUOUS
10
89.293
20
-90.6614
11
89.3536
21
-91.0182
0
LINE
8
BLACK
6
CONTINUOUS
10
89.3536
20
-91.0182
11
89.4538
21
-91.3659
0
LINE
8
BLACK
6
CONTINUOUS
10
89.4538
20
-91.3659
11
89.5923
21
-91.7003
0
LINE
8
BLACK
6
CONTINUOUS
10
89.5923
20
-91.7003
11
89.7673
21
-92.017
0
LINE
8
BLACK
6
CONTINUOUS
10
89.7673
20
-92.017
11
89.9768
21
-92.3122
0
LINE
8
BLACK
6
CONTINUOUS
10
89.9768
20
-92.3122
11
90.2179
21
-92.5821
0
LINE
8
BLACK
6
CONTINUOUS
10
90.2179
20
-92.5821
11
90.4878
21
-92.8232
0
LINE
8
BLACK
6
CONTINUOUS
10
90.4878
20
-92.8232
11
90.7829
21
-93.0326
0
LINE
8
BLACK
6
CONTINUOUS
10
90.7829
20
-93.0326
11
91.0997
21
-93.2077
0
LINE
8
BLACK
6
CONTINUOUS
10
91.0997
20
-93.2077
11
91.434
21
-93.3462
0
LINE
8
BLACK
6
CONTINUOUS
10
91.434
20
-93.3462
11
91.7818
21
-93.4464
0
LINE
8
BLACK
6
CONTINUOUS
10
91.7818
20
-93.4464
11
92.1386
21
-93.507
0
LINE
8
BLACK
6
CONTINUOUS
10
92.1386
20
-93.507
11
92.4999
21
-93.5273
0
LINE
8
BLACK
6
CONTINUOUS
10
92.4999
20
-93.5273
11
92.8613
21
-93.507
0
LINE
8
BLACK
6
CONTINUOUS
10
92.8613
20
-93.507
11
93.2181
21
-93.4464
0
LINE
8
BLACK
6
CONTINUOUS
10
93.2181
20
-93.4464
11
93.5659
21
-93.3462
0
LINE
8
BLACK
6
CONTINUOUS
10
93.5659
20
-93.3462
11
93.9002
21
-93.2077
0
LINE
8
BLACK
6
CONTINUOUS
10
93.9002
20
-93.2077
11
94.217
21
-93.0326
0
LINE
8
BLACK
6
CONTINUOUS
10
94.217
20
-93.0326
11
94.5121
21
-92.8232
0
LINE
8
BLACK
6
CONTINUOUS
10
94.5121
20
-92.8232
11
94.782
21
-92.5821
0
LINE
8
BLACK
6
CONTINUOUS
10
94.782
20
-92.5821
11
95.0231
21
-92.3122
0
LINE
8
BLACK
6
CONTINUOUS
10
95.0231
20
-92.3122
11
95.2326
21
-92.017
0
LINE
8
BLACK
6
CONTINUOUS
10
95.2326
20
-92.017
11
95.4076
21
-91.7003
0
LINE
8
BLACK
6
CONTINUOUS
10
95.4076
20
-91.7003
11
95.5461
21
-91.3659
0
LINE
8
BLACK
6
CONTINUOUS
10
95.5461
20
-91.3659
11
95.6463
21
-91.0182
0
LINE
8
BLACK
6
CONTINUOUS
10
95.6463
20
-91.0182
11
95.7069
21
-90.6614
0
LINE
8
BLACK
6
CONTINUOUS
10
95.7069
20
-90.6614
11
95.7272
21
-90.3
0
LINE
8
BLACK
6
CONTINUOUS
10
95.7272
20
-90.3
11
95.7069
21
-89.9387
0
LINE
8
BLACK
6
CONTINUOUS
10
95.7069
20
-89.9387
11
95.6463
21
-89.5819
0
LINE
8
BLACK
6
CONTINUOUS
10
95.6463
20
-89.5819
11
95.5461
21
-89.2341
0
LINE
8
BLACK
6
CONTINUOUS
10
95.5461
20
-89.2341
11
95.4076
21
-88.8998
0
LINE
8
BLACK
6
CONTINUOUS
10
95.4076
20
-88.8998
11
95.2326
21
-88.583
0
LINE
8
BLACK
6
CONTINUOUS
10
95.2326
20
-88.583
11
95.0231
21
-88.2879
0
LINE
8
BLACK
6
CONTINUOUS
10
95.0231
20
-88.2879
11
94.782
21
-88.018
0
LINE
8
BLACK
6
CONTINUOUS
10
94.782
20
-88.018
11
94.5121
21
-87.7768
0
LINE
8
BLACK
6
CONTINUOUS
10
94.5121
20
-87.7768
11
94.217
21
-87.5674
0
LINE
8
BLACK
6
CONTINUOUS
10
94.217
20
-87.5674
11
93.9002
21
-87.3923
0
LINE
8
BLACK
6
CONTINUOUS
10
93.9002
20
-87.3923
11
93.5659
21
-87.2539
0
LINE
8
BLACK
6
CONTINUOUS
10
93.5659
20
-87.2539
11
93.2181
21
-87.1537
0
LINE
8
BLACK
6
CONTINUOUS
10
93.2181
20
-87.1537
11
92.8613
21
-87.093
0
LINE
8
BLACK
6
CONTINUOUS
10
92.8613
20
-87.093
11
92.4999
21
-87.0727
0
LINE
8
BLACK
6
CONTINUOUS
10
92.4999
20
-87.0727
11
92.1386
21
-87.093
0
LINE
8
BLACK
6
CONTINUOUS
10
92.1386
20
-87.093
11
91.7818
21
-87.1537
0
LINE
8
BLACK
6
CONTINUOUS
10
91.7818
20
-87.1537
11
91.434
21
-87.2539
0
LINE
8
BLACK
6
CONTINUOUS
10
91.434
20
-87.2539
11
91.0997
21
-87.3923
0
LINE
8
BLACK
6
CONTINUOUS
10
91.0997
20
-87.3923
11
90.7829
21
-87.5674
0
LINE
8
BLACK
6
CONTINUOUS
10
90.7829
20
-87.5674
11
90.4878
21
-87.7768
0
LINE
8
BLACK
6
CONTINUOUS
10
90.4878
20
-87.7768
11
90.2179
21
-88.018
0
LINE
8
BLACK
6
CONTINUOUS
10
90.2179
20
-88.018
11
89.9768
21
-88.2879
0
LINE
8
BLACK
6
CONTINUOUS
10
89.9768
20
-88.2879
11
89.7673
21
-88.583
0
LINE
8
BLACK
6
CONTINUOUS
10
89.7673
20
-88.583
11
89.5923
21
-88.8998
0
LINE
8
BLACK
6
CONTINUOUS
10
89.5923
20
-88.8998
11
89.4538
21
-89.2341
0
LINE
8
BLACK
6
CONTINUOUS
10
89.4538
20
-89.2341
11
89.3536
21
-89.5819
0
LINE
8
BLACK
6
CONTINUOUS
10
89.3536
20
-89.5819
11
89.293
21
-89.9387
0
LINE
8
BLACK
6
CONTINUOUS
10
89.293
20
-89.9387
11
89.2727
21
-90.3
0
LINE
8
BLACK
6
CONTINUOUS
10
89.2727
20
-90.3
11
89.293
21
-90.6614
0
LINE
8
BLACK
6
CONTINUOUS
10
55.5458
20
-56.6703
11
55.9026
21
-56.7488
0
LINE
8
BLACK
6
CONTINUOUS
10
55.9026
20
-56.7488
11
56.2489
21
-56.8655
0
LINE
8
BLACK
6
CONTINUOUS
10
56.2489
20
-56.8655
11
56.5804
21
-57.0189
0
LINE
8
BLACK
6
CONTINUOUS
10
56.5804
20
-57.0189
11
56.8935
21
-57.2072
0
LINE
8
BLACK
6
CONTINUOUS
10
56.8935
20
-57.2072
11
57.1844
21
-57.4283
0
LINE
8
BLACK
6
CONTINUOUS
10
57.1844
20
-57.4283
11
57.4496
21
-57.6796
0
LINE
8
BLACK
6
CONTINUOUS
10
57.4496
20
-57.6796
11
57.6861
21
-57.9581
0
LINE
8
BLACK
6
CONTINUOUS
10
57.6861
20
-57.9581
11
57.8912
21
-58.2604
0
LINE
8
BLACK
6
CONTINUOUS
10
57.8912
20
-58.2604
11
58.0623
21
-58.5832
0
LINE
8
BLACK
6
CONTINUOUS
10
58.0623
20
-58.5832
11
58.1975
21
-58.9226
0
LINE
8
BLACK
6
CONTINUOUS
10
58.1975
20
-58.9226
11
58.2953
21
-59.2747
0
LINE
8
BLACK
6
CONTINUOUS
10
58.2953
20
-59.2747
11
58.3544
21
-59.6352
0
LINE
8
BLACK
6
CONTINUOUS
10
58.3544
20
-59.6352
11
58.3741
21
-60
0
LINE
8
BLACK
6
CONTINUOUS
10
58.3741
20
-60
11
58.3544
21
-60.3648
0
LINE
8
BLACK
6
CONTINUOUS
10
58.3544
20
-60.3648
11
58.2953
21
-60.7254
0
LINE
8
BLACK
6
CONTINUOUS
10
58.2953
20
-60.7254
11
58.1975
21
-61.0774
0
LINE
8
BLACK
6
CONTINUOUS
10
58.1975
20
-61.0774
11
58.0623
21
-61.4168
0
LINE
8
BLACK
6
CONTINUOUS
10
58.0623
20
-61.4168
11
57.8912
21
-61.7396
0
LINE
8
BLACK
6
CONTINUOUS
10
57.8912
20
-61.7396
11
57.6861
21
-62.042
0
LINE
8
BLACK
6
CONTINUOUS
10
57.6861
20
-62.042
11
57.4496
21
-62.3205
0
LINE
8
BLACK
6
CONTINUOUS
10
57.4496
20
-62.3205
11
57.1844
21
-62.5717
0
LINE
8
BLACK
6
CONTINUOUS
10
57.1844
20
-62.5717
11
56.8935
21
-62.7928
0
LINE
8
BLACK
6
CONTINUOUS
10
56.8935
20
-62.7928
11
56.5804
21
-62.9812
0
LINE
8
BLACK
6
CONTINUOUS
10
56.5804
20
-62.9812
11
56.2489
21
-63.1346
0
LINE
8
BLACK
6
CONTINUOUS
10
56.2489
20
-63.1346
11
55.9026
21
-63.2512
0
LINE
8
BLACK
6
CONTINUOUS
10
55.9026
20
-63.2512
11
55.5458
21
-63.3298
0
LINE
8
BLACK
6
CONTINUOUS
10
55.5458
20
-63.3298
11
55.1826
21
-63.3693
0
LINE
8
BLACK
6
CONTINUOUS
10
55.1826
20
-63.3693
11
54.8173
21
-63.3693
0
LINE
8
BLACK
6
CONTINUOUS
10
54.8173
20
-63.3693
11
54.4541
21
-63.3298
0
LINE
8
BLACK
6
CONTINUOUS
10
54.4541
20
-63.3298
11
54.0973
21
-63.2512
0
LINE
8
BLACK
6
CONTINUOUS
10
54.0973
20
-63.2512
11
53.751
21
-63.1346
0
LINE
8
BLACK
6
CONTINUOUS
10
53.751
20
-63.1346
11
53.4194
21
-62.9812
0
LINE
8
BLACK
6
CONTINUOUS
10
53.4194
20
-62.9812
11
53.1064
21
-62.7928
0
LINE
8
BLACK
6
CONTINUOUS
10
53.1064
20
-62.7928
11
52.8155
21
-62.5717
0
LINE
8
BLACK
6
CONTINUOUS
10
52.8155
20
-62.5717
11
52.5503
21
-62.3205
0
LINE
8
BLACK
6
CONTINUOUS
10
52.5503
20
-62.3205
11
52.3138
21
-62.042
0
LINE
8
BLACK
6
CONTINUOUS
10
52.3138
20
-62.042
11
52.1087
21
-61.7396
0
LINE
8
BLACK
6
CONTINUOUS
10
52.1087
20
-61.7396
11
51.9376
21
-61.4168
0
LINE
8
BLACK
6
CONTINUOUS
10
51.9376
20
-61.4168
11
51.8024
21
-61.0774
0
LINE
8
BLACK
6
CONTINUOUS
10
51.8024
20
-61.0774
11
51.7046
21
-60.7254
0
LINE
8
BLACK
6
CONTINUOUS
10
51.7046
20
-60.7254
11
51.6455
21
-60.3648
0
LINE
8
BLACK
6
CONTINUOUS
10
51.6455
20
-60.3648
11
51.6258
21
-60
0
LINE
8
BLACK
6
CONTINUOUS
10
51.6258
20
-60
11
51.6455
21
-59.6352
0
LINE
8
BLACK
6
CONTINUOUS
10
51.6455
20
-59.6352
11
51.7046
21
-59.2747
0
LINE
8
BLACK
6
CONTINUOUS
10
51.7046
20
-59.2747
11
51.8024
21
-58.9226
0
LINE
8
BLACK
6
CONTINUOUS
10
51.8024
20
-58.9226
11
51.9376
21
-58.5832
0
LINE
8
BLACK
6
CONTINUOUS
10
51.9376
20
-58.5832
11
52.1087
21
-58.2604
0
LINE
8
BLACK
6
CONTINUOUS
10
52.1087
20
-58.2604
11
52.3138
21
-57.9581
0
LINE
8
BLACK
6
CONTINUOUS
10
52.3138
20
-57.9581
11
52.5503
21
-57.6796
0
LINE
8
BLACK
6
CONTINUOUS
10
52.5503
20
-57.6796
11
52.8155
21
-57.4283
0
LINE
8
BLACK
6
CONTINUOUS
10
52.8155
20
-57.4283
11
53.1064
21
-57.2072
0
LINE
8
BLACK
6
CONTINUOUS
10
53.1064
20
-57.2072
11
53.4194
21
-57.0189
0
LINE
8
BLACK
6
CONTINUOUS
10
53.4194
20
-57.0189
11
53.751
21
-56.8655
0
LINE
8
BLACK
6
CONTINUOUS
10
53.751
20
-56.8655
11
54.0973
21
-56.7488
0
LINE
8
BLACK
6
CONTINUOUS
10
54.0973
20
-56.7488
11
54.4541
21
-56.6703
0
LINE
8
BLACK
6
CONTINUOUS
10
54.4541
20
-56.6703
11
54.8173
21
-56.6308
0
LINE
8
BLACK
6
CONTINUOUS
10
54.8173
20
-56.6308
11
55.1826
21
-56.6308
0
LINE
8
BLACK
6
CONTINUOUS
10
55.1826
20
-56.6308
11
55.5458
21
-56.6703
0
LINE
8
BLACK
6
CONTINUOUS
10
51.793
20
-60.3614
11
51.8536
21
-60.7182
0
LINE
8
BLACK
6
CONTINUOUS
10
51.8536
20
-60.7182
11
51.9538
21
-61.0659
0
LINE
8
BLACK
6
CONTINUOUS
10
51.9538
20
-61.0659
11
52.0923
21
-61.4003
0
LINE
8
BLACK
6
CONTINUOUS
10
52.0923
20
-61.4003
11
52.2673
21
-61.717
0
LINE
8
BLACK
6
CONTINUOUS
10
52.2673
20
-61.717
11
52.4768
21
-62.0122
0
LINE
8
BLACK
6
CONTINUOUS
10
52.4768
20
-62.0122
11
52.7179
21
-62.2821
0
LINE
8
BLACK
6
CONTINUOUS
10
52.7179
20
-62.2821
11
52.9878
21
-62.5232
0
LINE
8
BLACK
6
CONTINUOUS
10
52.9878
20
-62.5232
11
53.2829
21
-62.7326
0
LINE
8
BLACK
6
CONTINUOUS
10
53.2829
20
-62.7326
11
53.5997
21
-62.9077
0
LINE
8
BLACK
6
CONTINUOUS
10
53.5997
20
-62.9077
11
53.934
21
-63.0462
0
LINE
8
BLACK
6
CONTINUOUS
10
53.934
20
-63.0462
11
54.2818
21
-63.1464
0
LINE
8
BLACK
6
CONTINUOUS
10
54.2818
20
-63.1464
11
54.6386
21
-63.207
0
LINE
8
BLACK
6
CONTINUOUS
10
54.6386
20
-63.207
11
54.9999
21
-63.2273
0
LINE
8
BLACK
6
CONTINUOUS
10
54.9999
20
-63.2273
11
55.3613
21
-63.207
0
LINE
8
BLACK
6
CONTINUOUS
10
55.3613
20
-63.207
11
55.7181
21
-63.1464
0
LINE
8
BLACK
6
CONTINUOUS
10
55.7181
20
-63.1464
11
56.0659
21
-63.0462
0
LINE
8
BLACK
6
CONTINUOUS
10
56.0659
20
-63.0462
11
56.4002
21
-62.9077
0
LINE
8
BLACK
6
CONTINUOUS
10
56.4002
20
-62.9077
11
56.717
21
-62.7326
0
LINE
8
BLACK
6
CONTINUOUS
10
56.717
20
-62.7326
11
57.0121
21
-62.5232
0
LINE
8
BLACK
6
CONTINUOUS
10
57.0121
20
-62.5232
11
57.282
21
-62.2821
0
LINE
8
BLACK
6
CONTINUOUS
10
57.282
20
-62.2821
11
57.5231
21
-62.0122
0
LINE
8
BLACK
6
CONTINUOUS
10
57.5231
20
-62.0122
11
57.7326
21
-61.717
0
LINE
8
BLACK
6
CONTINUOUS
10
57.7326
20
-61.717
11
57.9076
21
-61.4003
0
LINE
8
BLACK
6
CONTINUOUS
10
57.9076
20
-61.4003
11
58.0461
21
-61.0659
0
LINE
8
BLACK
6
CONTINUOUS
10
58.0461
20
-61.0659
11
58.1463
21
-60.7182
0
LINE
8
BLACK
6
CONTINUOUS
10
58.1463
20
-60.7182
11
58.2069
21
-60.3614
0
LINE
8
BLACK
6
CONTINUOUS
10
58.2069
20
-60.3614
11
58.2272
21
-60
0
LINE
8
BLACK
6
CONTINUOUS
10
58.2272
20
-60
11
58.2069
21
-59.6387
0
LINE
8
BLACK
6
CONTINUOUS
10
58.2069
20
-59.6387
11
58.1463
21
-59.2819
0
LINE
8
BLACK
6
CONTINUOUS
10
58.1463
20
-59.2819
11
58.0461
21
-58.9341
0
LINE
8
BLACK
6
CONTINUOUS
10
58.0461
20
-58.9341
11
57.9076
21
-58.5998
0
LINE
8
BLACK
6
CONTINUOUS
10
57.9076
20
-58.5998
11
57.7326
21
-58.283
0
LINE
8
BLACK
6
CONTINUOUS
10
57.7326
20
-58.283
11
57.5231
21
-57.9879
0
LINE
8
BLACK
6
CONTINUOUS
10
57.5231
20
-57.9879
11
57.282
21
-57.718
0
LINE
8
BLACK
6
CONTINUOUS
10
57.282
20
-57.718
11
57.0121
21
-57.4768
0
LINE
8
BLACK
6
CONTINUOUS
10
57.0121
20
-57.4768
11
56.717
21
-57.2674
0
LINE
8
BLACK
6
CONTINUOUS
10
56.717
20
-57.2674
11
56.4002
21
-57.0923
0
LINE
8
BLACK
6
CONTINUOUS
10
56.4002
20
-57.0923
11
56.0659
21
-56.9539
0
LINE
8
BLACK
6
CONTINUOUS
10
56.0659
20
-56.9539
11
55.7181
21
-56.8537
0
LINE
8
BLACK
6
CONTINUOUS
10
55.7181
20
-56.8537
11
55.3613
21
-56.793
0
LINE
8
BLACK
6
CONTINUOUS
10
55.3613
20
-56.793
11
54.9999
21
-56.7727
0
LINE
8
BLACK
6
CONTINUOUS
10
54.9999
20
-56.7727
11
54.6386
21
-56.793
0
LINE
8
BLACK
6
CONTINUOUS
10
54.6386
20
-56.793
11
54.2818
21
-56.8537
0
LINE
8
BLACK
6
CONTINUOUS
10
54.2818
20
-56.8537
11
53.934
21
-56.9539
0
LINE
8
BLACK
6
CONTINUOUS
10
53.934
20
-56.9539
11
53.5997
21
-57.0923
0
LINE
8
BLACK
6
CONTINUOUS
10
53.5997
20
-57.0923
11
53.2829
21
-57.2674
0
LINE
8
BLACK
6
CONTINUOUS
10
53.2829
20
-57.2674
11
52.9878
21
-57.4768
0
LINE
8
BLACK
6
CONTINUOUS
10
52.9878
20
-57.4768
11
52.7179
21
-57.718
0
LINE
8
BLACK
6
CONTINUOUS
10
52.7179
20
-57.718
11
52.4768
21
-57.9879
0
LINE
8
BLACK
6
CONTINUOUS
10
52.4768
20
-57.9879
11
52.2673
21
-58.283
0
LINE
8
BLACK
6
CONTINUOUS
10
52.2673
20
-58.283
11
52.0923
21
-58.5998
0
LINE
8
BLACK
6
CONTINUOUS
10
52.0923
20
-58.5998
11
51.9538
21
-58.9341
0
LINE
8
BLACK
6
CONTINUOUS
10
51.9538
20
-58.9341
11
51.8536
21
-59.2819
0
LINE
8
BLACK
6
CONTINUOUS
10
51.8536
20
-59.2819
11
51.793
21
-59.6387
0
LINE
8
BLACK
6
CONTINUOUS
10
51.793
20
-59.6387
11
51.7727
21
-60
0
LINE
8
BLACK
6
CONTINUOUS
10
51.7727
20
-60
11
51.793
21
-60.3614
0
LINE
8
BLACK
6
CONTINUOUS
10
105.546
20
-56.6703
11
105.903
21
-56.7488
0
LINE
8
BLACK
6
CONTINUOUS
10
105.903
20
-56.7488
11
106.249
21
-56.8655
0
LINE
8
BLACK
6
CONTINUOUS
10
106.249
20
-56.8655
11
106.58
21
-57.0189
0
LINE
8
BLACK
6
CONTINUOUS
10
106.58
20
-57.0189
11
106.894
21
-57.2072
0
LINE
8
BLACK
6
CONTINUOUS
10
106.894
20
-57.2072
11
107.184
21
-57.4283
0
LINE
8
BLACK
6
CONTINUOUS
10
107.184
20
-57.4283
11
107.45
21
-57.6796
0
LINE
8
BLACK
6
CONTINUOUS
10
107.45
20
-57.6796
11
107.686
21
-57.9581
0
LINE
8
BLACK
6
CONTINUOUS
10
107.686
20
-57.9581
11
107.891
21
-58.2604
0
LINE
8
BLACK
6
CONTINUOUS
10
107.891
20
-58.2604
11
108.062
21
-58.5832
0
LINE
8
BLACK
6
CONTINUOUS
10
108.062
20
-58.5832
11
108.198
21
-58.9226
0
LINE
8
BLACK
6
CONTINUOUS
10
108.198
20
-58.9226
11
108.295
21
-59.2747
0
LINE
8
BLACK
6
CONTINUOUS
10
108.295
20
-59.2747
11
108.354
21
-59.6352
0
LINE
8
BLACK
6
CONTINUOUS
10
108.354
20
-59.6352
11
108.374
21
-60
0
LINE
8
BLACK
6
CONTINUOUS
10
108.374
20
-60
11
108.354
21
-60.3648
0
LINE
8
BLACK
6
CONTINUOUS
10
108.354
20
-60.3648
11
108.295
21
-60.7254
0
LINE
8
BLACK
6
CONTINUOUS
10
108.295
20
-60.7254
11
108.198
21
-61.0774
0
LINE
8
BLACK
6
CONTINUOUS
10
108.198
20
-61.0774
11
108.062
21
-61.4168
0
LINE
8
BLACK
6
CONTINUOUS
10
108.062
20
-61.4168
11
107.891
21
-61.7396
0
LINE
8
BLACK
6
CONTINUOUS
10
107.891
20
-61.7396
11
107.686
21
-62.042
0
LINE
8
BLACK
6
CONTINUOUS
10
107.686
20
-62.042
11
107.45
21
-62.3205
0
LINE
8
BLACK
6
CONTINUOUS
10
107.45
20
-62.3205
11
107.184
21
-62.5717
0
LINE
8
BLACK
6
CONTINUOUS
10
107.184
20
-62.5717
11
106.894
21
-62.7928
0
LINE
8
BLACK
6
CONTINUOUS
10
106.894
20
-62.7928
11
106.58
21
-62.9812
0
LINE
8
BLACK
6
CONTINUOUS
10
106.58
20
-62.9812
11
106.249
21
-63.1346
0
LINE
8
BLACK
6
CONTINUOUS
10
106.249
20
-63.1346
11
105.903
21
-63.2512
0
LINE
8
BLACK
6
CONTINUOUS
10
105.903
20
-63.2512
11
105.546
21
-63.3298
0
LINE
8
BLACK
6
CONTINUOUS
10
105.546
20
-63.3298
11
105.183
21
-63.3693
0
LINE
8
BLACK
6
CONTINUOUS
10
105.183
20
-63.3693
11
104.817
21
-63.3693
0
LINE
8
BLACK
6
CONTINUOUS
10
104.817
20
-63.3693
11
104.454
21
-63.3298
0
LINE
8
BLACK
6
CONTINUOUS
10
104.454
20
-63.3298
11
104.097
21
-63.2512
0
LINE
8
BLACK
6
CONTINUOUS
10
104.097
20
-63.2512
11
103.751
21
-63.1346
0
LINE
8
BLACK
6
CONTINUOUS
10
103.751
20
-63.1346
11
103.419
21
-62.9812
0
LINE
8
BLACK
6
CONTINUOUS
10
103.419
20
-62.9812
11
103.106
21
-62.7928
0
LINE
8
BLACK
6
CONTINUOUS
10
103.106
20
-62.7928
11
102.816
21
-62.5717
0
LINE
8
BLACK
6
CONTINUOUS
10
102.816
20
-62.5717
11
102.55
21
-62.3205
0
LINE
8
BLACK
6
CONTINUOUS
10
102.55
20
-62.3205
11
102.314
21
-62.042
0
LINE
8
BLACK
6
CONTINUOUS
10
102.314
20
-62.042
11
102.109
21
-61.7396
0
LINE
8
BLACK
6
CONTINUOUS
10
102.109
20
-61.7396
11
101.938
21
-61.4168
0
LINE
8
BLACK
6
CONTINUOUS
10
101.938
20
-61.4168
11
101.802
21
-61.0774
0
LINE
8
BLACK
6
CONTINUOUS
10
101.802
20
-61.0774
11
101.705
21
-60.7254
0
LINE
8
BLACK
6
CONTINUOUS
10
101.705
20
-60.7254
11
101.646
21
-60.3648
0
LINE
8
BLACK
6
CONTINUOUS
10
101.646
20
-60.3648
11
101.626
21
-60
0
LINE
8
BLACK
6
CONTINUOUS
10
101.626
20
-60
11
101.646
21
-59.6352
0
LINE
8
BLACK
6
CONTINUOUS
10
101.646
20
-59.6352
11
101.705
21
-59.2747
0
LINE
8
BLACK
6
CONTINUOUS
10
101.705
20
-59.2747
11
101.802
21
-58.9226
0
LINE
8
BLACK
6
CONTINUOUS
10
101.802
20
-58.9226
11
101.938
21
-58.5832
0
LINE
8
BLACK
6
CONTINUOUS
10
101.938
20
-58.5832
11
102.109
21
-58.2604
0
LINE
8
BLACK
6
CONTINUOUS
10
102.109
20
-58.2604
11
102.314
21
-57.9581
0
LINE
8
BLACK
6
CONTINUOUS
10
102.314
20
-57.9581
11
102.55
21
-57.6796
0
LINE
8
BLACK
6
CONTINUOUS
10
102.55
20
-57.6796
11
102.816
21
-57.4283
0
LINE
8
BLACK
6
CONTINUOUS
10
102.816
20
-57.4283
11
103.106
21
-57.2072
0
LINE
8
BLACK
6
CONTINUOUS
10
103.106
20
-57.2072
11
103.419
21
-57.0189
0
LINE
8
BLACK
6
CONTINUOUS
10
103.419
20
-57.0189
11
103.751
21
-56.8655
0
LINE
8
BLACK
6
CONTINUOUS
10
103.751
20
-56.8655
11
104.097
21
-56.7488
0
LINE
8
BLACK
6
CONTINUOUS
10
104.097
20
-56.7488
11
104.454
21
-56.6703
0
LINE
8
BLACK
6
CONTINUOUS
10
104.454
20
-56.6703
11
104.817
21
-56.6308
0
LINE
8
BLACK
6
CONTINUOUS
10
104.817
20
-56.6308
11
105.183
21
-56.6308
0
LINE
8
BLACK
6
CONTINUOUS
10
105.183
20
-56.6308
11
105.546
21
-56.6703
0
LINE
8
BLACK
6
CONTINUOUS
10
101.793
20
-60.3614
11
101.854
21
-60.7182
0
LINE
8
BLACK
6
CONTINUOUS
10
101.854
20
-60.7182
11
101.954
21
-61.0659
0
LINE
8
BLACK
6
CONTINUOUS
10
101.954
20
-61.0659
11
102.092
21
-61.4003
0
LINE
8
BLACK
6
CONTINUOUS
10
102.092
20
-61.4003
11
102.267
21
-61.717
0
LINE
8
BLACK
6
CONTINUOUS
10
102.267
20
-61.717
11
102.477
21
-62.0122
0
LINE
8
BLACK
6
CONTINUOUS
10
102.477
20
-62.0122
11
102.718
21
-62.2821
0
LINE
8
BLACK
6
CONTINUOUS
10
102.718
20
-62.2821
11
102.988
21
-62.5232
0
LINE
8
BLACK
6
CONTINUOUS
10
102.988
20
-62.5232
11
103.283
21
-62.7326
0
LINE
8
BLACK
6
CONTINUOUS
10
103.283
20
-62.7326
11
103.6
21
-62.9077
0
LINE
8
BLACK
6
CONTINUOUS
10
103.6
20
-62.9077
11
103.934
21
-63.0462
0
LINE
8
BLACK
6
CONTINUOUS
10
103.934
20
-63.0462
11
104.282
21
-63.1464
0
LINE
8
BLACK
6
CONTINUOUS
10
104.282
20
-63.1464
11
104.639
21
-63.207
0
LINE
8
BLACK
6
CONTINUOUS
10
104.639
20
-63.207
11
105
21
-63.2273
0
LINE
8
BLACK
6
CONTINUOUS
10
105
20
-63.2273
11
105.361
21
-63.207
0
LINE
8
BLACK
6
CONTINUOUS
10
105.361
20
-63.207
11
105.718
21
-63.1464
0
LINE
8
BLACK
6
CONTINUOUS
10
105.718
20
-63.1464
11
106.066
21
-63.0462
0
LINE
8
BLACK
6
CONTINUOUS
10
106.066
20
-63.0462
11
106.4
21
-62.9077
0
LINE
8
BLACK
6
CONTINUOUS
10
106.4
20
-62.9077
11
106.717
21
-62.7326
0
LINE
8
BLACK
6
CONTINUOUS
10
106.717
20
-62.7326
11
107.012
21
-62.5232
0
LINE
8
BLACK
6
CONTINUOUS
10
107.012
20
-62.5232
11
107.282
21
-62.2821
0
LINE
8
BLACK
6
CONTINUOUS
10
107.282
20
-62.2821
11
107.523
21
-62.0122
0
LINE
8
BLACK
6
CONTINUOUS
10
107.523
20
-62.0122
11
107.733
21
-61.717
0
LINE
8
BLACK
6
CONTINUOUS
10
107.733
20
-61.717
11
107.908
21
-61.4003
0
LINE
8
BLACK
6
CONTINUOUS
10
107.908
20
-61.4003
11
108.046
21
-61.0659
0
LINE
8
BLACK
6
CONTINUOUS
10
108.046
20
-61.0659
11
108.146
21
-60.7182
0
LINE
8
BLACK
6
CONTINUOUS
10
108.146
20
-60.7182
11
108.207
21
-60.3614
0
LINE
8
BLACK
6
CONTINUOUS
10
108.207
20
-60.3614
11
108.227
21
-60
0
LINE
8
BLACK
6
CONTINUOUS
10
108.227
20
-60
11
108.207
21
-59.6387
0
LINE
8
BLACK
6
CONTINUOUS
10
108.207
20
-59.6387
11
108.146
21
-59.2819
0
LINE
8
BLACK
6
CONTINUOUS
10
108.146
20
-59.2819
11
108.046
21
-58.9341
0
LINE
8
BLACK
6
CONTINUOUS
10
108.046
20
-58.9341
11
107.908
21
-58.5998
0
LINE
8
BLACK
6
CONTINUOUS
10
107.908
20
-58.5998
11
107.733
21
-58.283
0
LINE
8
BLACK
6
CONTINUOUS
10
107.733
20
-58.283
11
107.523
21
-57.9879
0
LINE
8
BLACK
6
CONTINUOUS
10
107.523
20
-57.9879
11
107.282
21
-57.718
0
LINE
8
BLACK
6
CONTINUOUS
10
107.282
20
-57.718
11
107.012
21
-57.4768
0
LINE
8
BLACK
6
CONTINUOUS
10
107.012
20
-57.4768
11
106.717
21
-57.2674
0
LINE
8
BLACK
6
CONTINUOUS
10
106.717
20
-57.2674
11
106.4
21
-57.0923
0
LINE
8
BLACK
6
CONTINUOUS
10
106.4
20
-57.0923
11
106.066
21
-56.9539
0
LINE
8
BLACK
6
CONTINUOUS
10
106.066
20
-56.9539
11
105.718
21
-56.8537
0
LINE
8
BLACK
6
CONTINUOUS
10
105.718
20
-56.8537
11
105.361
21
-56.793
0
LINE
8
BLACK
6
CONTINUOUS
10
105.361
20
-56.793
11
105
21
-56.7727
0
LINE
8
BLACK
6
CONTINUOUS
10
105
20
-56.7727
11
104.639
21
-56.793
0
LINE
8
BLACK
6
CONTINUOUS
10
104.639
20
-56.793
11
104.282
21
-56.8537
0
LINE
8
BLACK
6
CONTINUOUS
10
104.282
20
-56.8537
11
103.934
21
-56.9539
0
LINE
8
BLACK
6
CONTINUOUS
10
103.934
20
-56.9539
11
103.6
21
-57.0923
0
LINE
8
BLACK
6
CONTINUOUS
10
103.6
20
-57.0923
11
103.283
21
-57.2674
0
LINE
8
BLACK
6
CONTINUOUS
10
103.283
20
-57.2674
11
102.988
21
-57.4768
0
LINE
8
BLACK
6
CONTINUOUS
10
102.988
20
-57.4768
11
102.718
21
-57.718
0
LINE
8
BLACK
6
CONTINUOUS
10
102.718
20
-57.718
11
102.477
21
-57.9879
0
LINE
8
BLACK
6
CONTINUOUS
10
102.477
20
-57.9879
11
102.267
21
-58.283
0
LINE
8
BLACK
6
CONTINUOUS
10
102.267
20
-58.283
11
102.092
21
-58.5998
0
LINE
8
BLACK
6
CONTINUOUS
10
102.092
20
-58.5998
11
101.954
21
-58.9341
0
LINE
8
BLACK
6
CONTINUOUS
10
101.954
20
-58.9341
11
101.854
21
-59.2819
0
LINE
8
BLACK
6
CONTINUOUS
10
101.854
20
-59.2819
11
101.793
21
-59.6387
0
LINE
8
BLACK
6
CONTINUOUS
10
101.793
20
-59.6387
11
101.773
21
-60
0
LINE
8
BLACK
6
CONTINUOUS
10
101.773
20
-60
11
101.793
21
-60.3614
0
LINE
8
BLACK
6
CONTINUOUS
10
68.0458
20
-26.3703
11
68.4026
21
-26.4488
0
LINE
8
BLACK
6
CONTINUOUS
10
68.4026
20
-26.4488
11
68.7489
21
-26.5655
0
LINE
8
BLACK
6
CONTINUOUS
10
68.7489
20
-26.5655
11
69.0804
21
-26.7189
0
LINE
8
BLACK
6
CONTINUOUS
10
69.0804
20
-26.7189
11
69.3935
21
-26.9072
0
LINE
8
BLACK
6
CONTINUOUS
10
69.3935
20
-26.9072
11
69.6844
21
-27.1283
0
LINE
8
BLACK
6
CONTINUOUS
10
69.6844
20
-27.1283
11
69.9496
21
-27.3796
0
LINE
8
BLACK
6
CONTINUOUS
10
69.9496
20
-27.3796
11
70.1861
21
-27.658
0
LINE
8
BLACK
6
CONTINUOUS
10
70.1861
20
-27.658
11
70.3912
21
-27.9604
0
LINE
8
BLACK
6
CONTINUOUS
10
70.3912
20
-27.9604
11
70.5623
21
-28.2832
0
LINE
8
BLACK
6
CONTINUOUS
10
70.5623
20
-28.2832
11
70.6975
21
-28.6226
0
LINE
8
BLACK
6
CONTINUOUS
10
70.6975
20
-28.6226
11
70.7953
21
-28.9747
0
LINE
8
BLACK
6
CONTINUOUS
10
70.7953
20
-28.9747
11
70.8544
21
-29.3352
0
LINE
8
BLACK
6
CONTINUOUS
10
70.8544
20
-29.3352
11
70.8741
21
-29.7
0
LINE
8
BLACK
6
CONTINUOUS
10
70.8741
20
-29.7
11
70.8544
21
-30.0648
0
LINE
8
BLACK
6
CONTINUOUS
10
70.8544
20
-30.0648
11
70.7953
21
-30.4254
0
LINE
8
BLACK
6
CONTINUOUS
10
70.7953
20
-30.4254
11
70.6975
21
-30.7774
0
LINE
8
BLACK
6
CONTINUOUS
10
70.6975
20
-30.7774
11
70.5623
21
-31.1168
0
LINE
8
BLACK
6
CONTINUOUS
10
70.5623
20
-31.1168
11
70.3912
21
-31.4396
0
LINE
8
BLACK
6
CONTINUOUS
10
70.3912
20
-31.4396
11
70.1861
21
-31.742
0
LINE
8
BLACK
6
CONTINUOUS
10
70.1861
20
-31.742
11
69.9496
21
-32.0205
0
LINE
8
BLACK
6
CONTINUOUS
10
69.9496
20
-32.0205
11
69.6844
21
-32.2717
0
LINE
8
BLACK
6
CONTINUOUS
10
69.6844
20
-32.2717
11
69.3935
21
-32.4928
0
LINE
8
BLACK
6
CONTINUOUS
10
69.3935
20
-32.4928
11
69.0804
21
-32.6812
0
LINE
8
BLACK
6
CONTINUOUS
10
69.0804
20
-32.6812
11
68.7489
21
-32.8346
0
LINE
8
BLACK
6
CONTINUOUS
10
68.7489
20
-32.8346
11
68.4026
21
-32.9512
0
LINE
8
BLACK
6
CONTINUOUS
10
68.4026
20
-32.9512
11
68.0458
21
-33.0298
0
LINE
8
BLACK
6
CONTINUOUS
10
68.0458
20
-33.0298
11
67.6826
21
-33.0693
0
LINE
8
BLACK
6
CONTINUOUS
10
67.6826
20
-33.0693
11
67.3173
21
-33.0693
0
LINE
8
BLACK
6
CONTINUOUS
10
67.3173
20
-33.0693
11
66.9541
21
-33.0298
0
LINE
8
BLACK
6
CONTINUOUS
10
66.9541
20
-33.0298
11
66.5973
21
-32.9512
0
LINE
8
BLACK
6
CONTINUOUS
10
66.5973
20
-32.9512
11
66.251
21
-32.8346
0
LINE
8
BLACK
6
CONTINUOUS
10
66.251
20
-32.8346
11
65.9194
21
-32.6812
0
LINE
8
BLACK
6
CONTINUOUS
10
65.9194
20
-32.6812
11
65.6064
21
-32.4928
0
LINE
8
BLACK
6
CONTINUOUS
10
65.6064
20
-32.4928
11
65.3155
21
-32.2717
0
LINE
8
BLACK
6
CONTINUOUS
10
65.3155
20
-32.2717
11
65.0503
21
-32.0205
0
LINE
8
BLACK
6
CONTINUOUS
10
65.0503
20
-32.0205
11
64.8138
21
-31.742
0
LINE
8
BLACK
6
CONTINUOUS
10
64.8138
20
-31.742
11
64.6087
21
-31.4396
0
LINE
8
BLACK
6
CONTINUOUS
10
64.6087
20
-31.4396
11
64.4376
21
-31.1168
0
LINE
8
BLACK
6
CONTINUOUS
10
64.4376
20
-31.1168
11
64.3024
21
-30.7774
0
LINE
8
BLACK
6
CONTINUOUS
10
64.3024
20
-30.7774
11
64.2046
21
-30.4254
0
LINE
8
BLACK
6
CONTINUOUS
10
64.2046
20
-30.4254
11
64.1455
21
-30.0648
0
LINE
8
BLACK
6
CONTINUOUS
10
64.1455
20
-30.0648
11
64.1258
21
-29.7
0
LINE
8
BLACK
6
CONTINUOUS
10
64.1258
20
-29.7
11
64.1455
21
-29.3352
0
LINE
8
BLACK
6
CONTINUOUS
10
64.1455
20
-29.3352
11
64.2046
21
-28.9747
0
LINE
8
BLACK
6
CONTINUOUS
10
64.2046
20
-28.9747
11
64.3024
21
-28.6226
0
LINE
8
BLACK
6
CONTINUOUS
10
64.3024
20
-28.6226
11
64.4376
21
-28.2832
0
LINE
8
BLACK
6
CONTINUOUS
10
64.4376
20
-28.2832
11
64.6087
21
-27.9604
0
LINE
8
BLACK
6
CONTINUOUS
10
64.6087
20
-27.9604
11
64.8138
21
-27.658
0
LINE
8
BLACK
6
CONTINUOUS
10
64.8138
20
-27.658
11
65.0503
21
-27.3796
0
LINE
8
BLACK
6
CONTINUOUS
10
65.0503
20
-27.3796
11
65.3155
21
-27.1283
0
LINE
8
BLACK
6
CONTINUOUS
10
65.3155
20
-27.1283
11
65.6064
21
-26.9072
0
LINE
8
BLACK
6
CONTINUOUS
10
65.6064
20
-26.9072
11
65.9194
21
-26.7189
0
LINE
8
BLACK
6
CONTINUOUS
10
65.9194
20
-26.7189
11
66.251
21
-26.5655
0
LINE
8
BLACK
6
CONTINUOUS
10
66.251
20
-26.5655
11
66.5973
21
-26.4488
0
LINE
8
BLACK
6
CONTINUOUS
10
66.5973
20
-26.4488
11
66.9541
21
-26.3703
0
LINE
8
BLACK
6
CONTINUOUS
10
66.9541
20
-26.3703
11
67.3173
21
-26.3308
0
LINE
8
BLACK
6
CONTINUOUS
10
67.3173
20
-26.3308
11
67.6826
21
-26.3308
0
LINE
8
BLACK
6
CONTINUOUS
10
67.6826
20
-26.3308
11
68.0458
21
-26.3703
0
LINE
8
BLACK
6
CONTINUOUS
10
64.293
20
-30.0614
11
64.3536
21
-30.4182
0
LINE
8
BLACK
6
CONTINUOUS
10
64.3536
20
-30.4182
11
64.4538
21
-30.7659
0
LINE
8
BLACK
6
CONTINUOUS
10
64.4538
20
-30.7659
11
64.5923
21
-31.1003
0
LINE
8
BLACK
6
CONTINUOUS
10
64.5923
20
-31.1003
11
64.7673
21
-31.417
0
LINE
8
BLACK
6
CONTINUOUS
10
64.7673
20
-31.417
11
64.9768
21
-31.7122
0
LINE
8
BLACK
6
CONTINUOUS
10
64.9768
20
-31.7122
11
65.2179
21
-31.9821
0
LINE
8
BLACK
6
CONTINUOUS
10
65.2179
20
-31.9821
11
65.4878
21
-32.2232
0
LINE
8
BLACK
6
CONTINUOUS
10
65.4878
20
-32.2232
11
65.7829
21
-32.4326
0
LINE
8
BLACK
6
CONTINUOUS
10
65.7829
20
-32.4326
11
66.0997
21
-32.6077
0
LINE
8
BLACK
6
CONTINUOUS
10
66.0997
20
-32.6077
11
66.434
21
-32.7462
0
LINE
8
BLACK
6
CONTINUOUS
10
66.434
20
-32.7462
11
66.7818
21
-32.8464
0
LINE
8
BLACK
6
CONTINUOUS
10
66.7818
20
-32.8464
11
67.1386
21
-32.907
0
LINE
8
BLACK
6
CONTINUOUS
10
67.1386
20
-32.907
11
67.4999
21
-32.9273
0
LINE
8
BLACK
6
CONTINUOUS
10
67.4999
20
-32.9273
11
67.8613
21
-32.907
0
LINE
8
BLACK
6
CONTINUOUS
10
67.8613
20
-32.907
11
68.2181
21
-32.8464
0
LINE
8
BLACK
6
CONTINUOUS
10
68.2181
20
-32.8464
11
68.5659
21
-32.7462
0
LINE
8
BLACK
6
CONTINUOUS
10
68.5659
20
-32.7462
11
68.9002
21
-32.6077
0
LINE
8
BLACK
6
CONTINUOUS
10
68.9002
20
-32.6077
11
69.217
21
-32.4326
0
LINE
8
BLACK
6
CONTINUOUS
10
69.217
20
-32.4326
11
69.5121
21
-32.2232
0
LINE
8
BLACK
6
CONTINUOUS
10
69.5121
20
-32.2232
11
69.782
21
-31.9821
0
LINE
8
BLACK
6
CONTINUOUS
10
69.782
20
-31.9821
11
70.0231
21
-31.7122
0
LINE
8
BLACK
6
CONTINUOUS
10
70.0231
20
-31.7122
11
70.2326
21
-31.417
0
LINE
8
BLACK
6
CONTINUOUS
10
70.2326
20
-31.417
11
70.4076
21
-31.1003
0
LINE
8
BLACK
6
CONTINUOUS
10
70.4076
20
-31.1003
11
70.5461
21
-30.7659
0
LINE
8
BLACK
6
CONTINUOUS
10
70.5461
20
-30.7659
11
70.6463
21
-30.4182
0
LINE
8
BLACK
6
CONTINUOUS
10
70.6463
20
-30.4182
11
70.7069
21
-30.0614
0
LINE
8
BLACK
6
CONTINUOUS
10
70.7069
20
-30.0614
11
70.7272
21
-29.7
0
LINE
8
BLACK
6
CONTINUOUS
10
70.7272
20
-29.7
11
70.7069
21
-29.3387
0
LINE
8
BLACK
6
CONTINUOUS
10
70.7069
20
-29.3387
11
70.6463
21
-28.9819
0
LINE
8
BLACK
6
CONTINUOUS
10
70.6463
20
-28.9819
11
70.5461
21
-28.6341
0
LINE
8
BLACK
6
CONTINUOUS
10
70.5461
20
-28.6341
11
70.4076
21
-28.2998
0
LINE
8
BLACK
6
CONTINUOUS
10
70.4076
20
-28.2998
11
70.2326
21
-27.983
0
LINE
8
BLACK
6
CONTINUOUS
10
70.2326
20
-27.983
11
70.0231
21
-27.6879
0
LINE
8
BLACK
6
CONTINUOUS
10
70.0231
20
-27.6879
11
69.782
21
-27.418
0
LINE
8
BLACK
6
CONTINUOUS
10
69.782
20
-27.418
11
69.5121
21
-27.1768
0
LINE
8
BLACK
6
CONTINUOUS
10
69.5121
20
-27.1768
11
69.217
21
-26.9674
0
LINE
8
BLACK
6
CONTINUOUS
10
69.217
20
-26.9674
11
68.9002
21
-26.7923
0
LINE
8
BLACK
6
CONTINUOUS
10
68.9002
20
-26.7923
11
68.5659
21
-26.6539
0
LINE
8
BLACK
6
CONTINUOUS
10
68.5659
20
-26.6539
11
68.2181
21
-26.5537
0
LINE
8
BLACK
6
CONTINUOUS
10
68.2181
20
-26.5537
11
67.8613
21
-26.493
0
LINE
8
BLACK
6
CONTINUOUS
10
67.8613
20
-26.493
11
67.4999
21
-26.4727
0
LINE
8
BLACK
6
CONTINUOUS
10
67.4999
20
-26.4727
11
67.1386
21
-26.493
0
LINE
8
BLACK
6
CONTINUOUS
10
67.1386
20
-26.493
11
66.7818
21
-26.5537
0
LINE
8
BLACK
6
CONTINUOUS
10
66.7818
20
-26.5537
11
66.434
21
-26.6539
0
LINE
8
BLACK
6
CONTINUOUS
10
66.434
20
-26.6539
11
66.0997
21
-26.7923
0
LINE
8
BLACK
6
CONTINUOUS
10
66.0997
20
-26.7923
11
65.7829
21
-26.9674
0
LINE
8
BLACK
6
CONTINUOUS
10
65.7829
20
-26.9674
11
65.4878
21
-27.1768
0
LINE
8
BLACK
6
CONTINUOUS
10
65.4878
20
-27.1768
11
65.2179
21
-27.418
0
LINE
8
BLACK
6
CONTINUOUS
10
65.2179
20
-27.418
11
64.9768
21
-27.6879
0
LINE
8
BLACK
6
CONTINUOUS
10
64.9768
20
-27.6879
11
64.7673
21
-27.983
0
LINE
8
BLACK
6
CONTINUOUS
10
64.7673
20
-27.983
11
64.5923
21
-28.2998
0
LINE
8
BLACK
6
CONTINUOUS
10
64.5923
20
-28.2998
11
64.4538
21
-28.6341
0
LINE
8
BLACK
6
CONTINUOUS
10
64.4538
20
-28.6341
11
64.3536
21
-28.9819
0
LINE
8
BLACK
6
CONTINUOUS
10
64.3536
20
-28.9819
11
64.293
21
-29.3387
0
LINE
8
BLACK
6
CONTINUOUS
10
64.293
20
-29.3387
11
64.2727
21
-29.7
0
LINE
8
BLACK
6
CONTINUOUS
10
64.2727
20
-29.7
11
64.293
21
-30.0614
0
LINE
8
BLACK
6
CONTINUOUS
10
93.0458
20
-26.3703
11
93.4026
21
-26.4488
0
LINE
8
BLACK
6
CONTINUOUS
10
93.4026
20
-26.4488
11
93.7489
21
-26.5655
0
LINE
8
BLACK
6
CONTINUOUS
10
93.7489
20
-26.5655
11
94.0804
21
-26.7189
0
LINE
8
BLACK
6
CONTINUOUS
10
94.0804
20
-26.7189
11
94.3935
21
-26.9072
0
LINE
8
BLACK
6
CONTINUOUS
10
94.3935
20
-26.9072
11
94.6844
21
-27.1283
0
LINE
8
BLACK
6
CONTINUOUS
10
94.6844
20
-27.1283
11
94.9496
21
-27.3796
0
LINE
8
BLACK
6
CONTINUOUS
10
94.9496
20
-27.3796
11
95.1861
21
-27.658
0
LINE
8
BLACK
6
CONTINUOUS
10
95.1861
20
-27.658
11
95.3912
21
-27.9604
0
LINE
8
BLACK
6
CONTINUOUS
10
95.3912
20
-27.9604
11
95.5623
21
-28.2832
0
LINE
8
BLACK
6
CONTINUOUS
10
95.5623
20
-28.2832
11
95.6975
21
-28.6226
0
LINE
8
BLACK
6
CONTINUOUS
10
95.6975
20
-28.6226
11
95.7953
21
-28.9747
0
LINE
8
BLACK
6
CONTINUOUS
10
95.7953
20
-28.9747
11
95.8544
21
-29.3352
0
LINE
8
BLACK
6
CONTINUOUS
10
95.8544
20
-29.3352
11
95.8741
21
-29.7
0
LINE
8
BLACK
6
CONTINUOUS
10
95.8741
20
-29.7
11
95.8544
21
-30.0648
0
LINE
8
BLACK
6
CONTINUOUS
10
95.8544
20
-30.0648
11
95.7953
21
-30.4254
0
LINE
8
BLACK
6
CONTINUOUS
10
95.7953
20
-30.4254
11
95.6975
21
-30.7774
0
LINE
8
BLACK
6
CONTINUOUS
10
95.6975
20
-30.7774
11
95.5623
21
-31.1168
0
LINE
8
BLACK
6
CONTINUOUS
10
95.5623
20
-31.1168
11
95.3912
21
-31.4396
0
LINE
8
BLACK
6
CONTINUOUS
10
95.3912
20
-31.4396
11
95.1861
21
-31.742
0
LINE
8
BLACK
6
CONTINUOUS
10
95.1861
20
-31.742
11
94.9496
21
-32.0205
0
LINE
8
BLACK
6
CONTINUOUS
10
94.9496
20
-32.0205
11
94.6844
21
-32.2717
0
LINE
8
BLACK
6
CONTINUOUS
10
94.6844
20
-32.2717
11
94.3935
21
-32.4928
0
LINE
8
BLACK
6
CONTINUOUS
10
94.3935
20
-32.4928
11
94.0804
21
-32.6812
0
LINE
8
BLACK
6
CONTINUOUS
10
94.0804
20
-32.6812
11
93.7489
21
-32.8346
0
LINE
8
BLACK
6
CONTINUOUS
10
93.7489
20
-32.8346
11
93.4026
21
-32.9512
0
LINE
8
BLACK
6
CONTINUOUS
10
93.4026
20
-32.9512
11
93.0458
21
-33.0298
0
LINE
8
BLACK
6
CONTINUOUS
10
93.0458
20
-33.0298
11
92.6826
21
-33.0693
0
LINE
8
BLACK
6
CONTINUOUS
10
92.6826
20
-33.0693
11
92.3173
21
-33.0693
0
LINE
8
BLACK
6
CONTINUOUS
10
92.3173
20
-33.0693
11
91.9541
21
-33.0298
0
LINE
8
BLACK
6
CONTINUOUS
10
91.9541
20
-33.0298
11
91.5973
21
-32.9512
0
LINE
8
BLACK
6
CONTINUOUS
10
91.5973
20
-32.9512
11
91.251
21
-32.8346
0
LINE
8
BLACK
6
CONTINUOUS
10
91.251
20
-32.8346
11
90.9194
21
-32.6812
0
LINE
8
BLACK
6
CONTINUOUS
10
90.9194
20
-32.6812
11
90.6064
21
-32.4928
0
LINE
8
BLACK
6
CONTINUOUS
10
90.6064
20
-32.4928
11
90.3155
21
-32.2717
0
LINE
8
BLACK
6
CONTINUOUS
10
90.3155
20
-32.2717
11
90.0503
21
-32.0205
0
LINE
8
BLACK
6
CONTINUOUS
10
90.0503
20
-32.0205
11
89.8138
21
-31.742
0
LINE
8
BLACK
6
CONTINUOUS
10
89.8138
20
-31.742
11
89.6087
21
-31.4396
0
LINE
8
BLACK
6
CONTINUOUS
10
89.6087
20
-31.4396
11
89.4376
21
-31.1168
0
LINE
8
BLACK
6
CONTINUOUS
10
89.4376
20
-31.1168
11
89.3024
21
-30.7774
0
LINE
8
BLACK
6
CONTINUOUS
10
89.3024
20
-30.7774
11
89.2046
21
-30.4254
0
LINE
8
BLACK
6
CONTINUOUS
10
89.2046
20
-30.4254
11
89.1455
21
-30.0648
0
LINE
8
BLACK
6
CONTINUOUS
10
89.1455
20
-30.0648
11
89.1258
21
-29.7
0
LINE
8
BLACK
6
CONTINUOUS
10
89.1258
20
-29.7
11
89.1455
21
-29.3352
0
LINE
8
BLACK
6
CONTINUOUS
10
89.1455
20
-29.3352
11
89.2046
21
-28.9747
0
LINE
8
BLACK
6
CONTINUOUS
10
89.2046
20
-28.9747
11
89.3024
21
-28.6226
0
LINE
8
BLACK
6
CONTINUOUS
10
89.3024
20
-28.6226
11
89.4376
21
-28.2832
0
LINE
8
BLACK
6
CONTINUOUS
10
89.4376
20
-28.2832
11
89.6087
21
-27.9604
0
LINE
8
BLACK
6
CONTINUOUS
10
89.6087
20
-27.9604
11
89.8138
21
-27.658
0
LINE
8
BLACK
6
CONTINUOUS
10
89.8138
20
-27.658
11
90.0503
21
-27.3796
0
LINE
8
BLACK
6
CONTINUOUS
10
90.0503
20
-27.3796
11
90.3155
21
-27.1283
0
LINE
8
BLACK
6
CONTINUOUS
10
90.3155
20
-27.1283
11
90.6064
21
-26.9072
0
LINE
8
BLACK
6
CONTINUOUS
10
90.6064
20
-26.9072
11
90.9194
21
-26.7189
0
LINE
8
BLACK
6
CONTINUOUS
10
90.9194
20
-26.7189
11
91.251
21
-26.5655
0
LINE
8
BLACK
6
CONTINUOUS
10
91.251
20
-26.5655
11
91.5973
21
-26.4488
0
LINE
8
BLACK
6
CONTINUOUS
10
91.5973
20
-26.4488
11
91.9541
21
-26.3703
0
LINE
8
BLACK
6
CONTINUOUS
10
91.9541
20
-26.3703
11
92.3173
21
-26.3308
0
LINE
8
BLACK
6
CONTINUOUS
10
92.3173
20
-26.3308
11
92.6826
21
-26.3308
0
LINE
8
BLACK
6
CONTINUOUS
10
92.6826
20
-26.3308
11
93.0458
21
-26.3703
0
LINE
8
BLACK
6
CONTINUOUS
10
89.293
20
-30.0614
11
89.3536
21
-30.4182
0
LINE
8
BLACK
6
CONTINUOUS
10
89.3536
20
-30.4182
11
89.4538
21
-30.7659
0
LINE
8
BLACK
6
CONTINUOUS
10
89.4538
20
-30.7659
11
89.5923
21
-31.1003
0
LINE
8
BLACK
6
CONTINUOUS
10
89.5923
20
-31.1003
11
89.7673
21
-31.417
0
LINE
8
BLACK
6
CONTINUOUS
10
89.7673
20
-31.417
11
89.9768
21
-31.7122
0
LINE
8
BLACK
6
CONTINUOUS
10
89.9768
20
-31.7122
11
90.2179
21
-31.9821
0
LINE
8
BLACK
6
CONTINUOUS
10
90.2179
20
-31.9821
11
90.4878
21
-32.2232
0
LINE
8
BLACK
6
CONTINUOUS
10
90.4878
20
-32.2232
11
90.7829
21
-32.4326
0
LINE
8
BLACK
6
CONTINUOUS
10
90.7829
20
-32.4326
11
91.0997
21
-32.6077
0
LINE
8
BLACK
6
CONTINUOUS
10
91.0997
20
-32.6077
11
91.434
21
-32.7462
0
LINE
8
BLACK
6
CONTINUOUS
10
91.434
20
-32.7462
11
91.7818
21
-32.8464
0
LINE
8
BLACK
6
CONTINUOUS
10
91.7818
20
-32.8464
11
92.1386
21
-32.907
0
LINE
8
BLACK
6
CONTINUOUS
10
92.1386
20
-32.907
11
92.4999
21
-32.9273
0
LINE
8
BLACK
6
CONTINUOUS
10
92.4999
20
-32.9273
11
92.8613
21
-32.907
0
LINE
8
BLACK
6
CONTINUOUS
10
92.8613
20
-32.907
11
93.2181
21
-32.8464
0
LINE
8
BLACK
6
CONTINUOUS
10
93.2181
20
-32.8464
11
93.5659
21
-32.7462
0
LINE
8
BLACK
6
CONTINUOUS
10
93.5659
20
-32.7462
11
93.9002
21
-32.6077
0
LINE
8
BLACK
6
CONTINUOUS
10
93.9002
20
-32.6077
11
94.217
21
-32.4326
0
LINE
8
BLACK
6
CONTINUOUS
10
94.217
20
-32.4326
11
94.5121
21
-32.2232
0
LINE
8
BLACK
6
CONTINUOUS
10
94.5121
20
-32.2232
11
94.782
21
-31.9821
0
LINE
8
BLACK
6
CONTINUOUS
10
94.782
20
-31.9821
11
95.0231
21
-31.7122
0
LINE
8
BLACK
6
CONTINUOUS
10
95.0231
20
-31.7122
11
95.2326
21
-31.417
0
LINE
8
BLACK
6
CONTINUOUS
10
95.2326
20
-31.417
11
95.4076
21
-31.1003
0
LINE
8
BLACK
6
CONTINUOUS
10
95.4076
20
-31.1003
11
95.5461
21
-30.7659
0
LINE
8
BLACK
6
CONTINUOUS
10
95.5461
20
-30.7659
11
95.6463
21
-30.4182
0
LINE
8
BLACK
6
CONTINUOUS
10
95.6463
20
-30.4182
11
95.7069
21
-30.0614
0
LINE
8
BLACK
6
CONTINUOUS
10
95.7069
20
-30.0614
11
95.7272
21
-29.7
0
LINE
8
BLACK
6
CONTINUOUS
10
95.7272
20
-29.7
11
95.7069
21
-29.3387
0
LINE
8
BLACK
6
CONTINUOUS
10
95.7069
20
-29.3387
11
95.6463
21
-28.9819
0
LINE
8
BLACK
6
CONTINUOUS
10
95.6463
20
-28.9819
11
95.5461
21
-28.6341
0
LINE
8
BLACK
6
CONTINUOUS
10
95.5461
20
-28.6341
11
95.4076
21
-28.2998
0
LINE
8
BLACK
6
CONTINUOUS
10
95.4076
20
-28.2998
11
95.2326
21
-27.983
0
LINE
8
BLACK
6
CONTINUOUS
10
95.2326
20
-27.983
11
95.0231
21
-27.6879
0
LINE
8
BLACK
6
CONTINUOUS
10
95.0231
20
-27.6879
11
94.782
21
-27.418
0
LINE
8
BLACK
6
CONTINUOUS
10
94.782
20
-27.418
11
94.5121
21
-27.1768
0
LINE
8
BLACK
6
CONTINUOUS
10
94.5121
20
-27.1768
11
94.217
21
-26.9674
0
LINE
8
BLACK
6
CONTINUOUS
10
94.217
20
-26.9674
11
93.9002
21
-26.7923
0
LINE
8
BLACK
6
CONTINUOUS
10
93.9002
20
-26.7923
11
93.5659
21
-26.6539
0
LINE
8
BLACK
6
CONTINUOUS
10
93.5659
20
-26.6539
11
93.2181
21
-26.5537
0
LINE
8
BLACK
6
CONTINUOUS
10
93.2181
20
-26.5537
11
92.8613
21
-26.493
0
LINE
8
BLACK
6
CONTINUOUS
10
92.8613
20
-26.493
11
92.4999
21
-26.4727
0
LINE
8
BLACK
6
CONTINUOUS
10
92.4999
20
-26.4727
11
92.1386
21
-26.493
0
LINE
8
BLACK
6
CONTINUOUS
10
92.1386
20
-26.493
11
91.7818
21
-26.5537
0
LINE
8
BLACK
6
CONTINUOUS
10
91.7818
20
-26.5537
11
91.434
21
-26.6539
0
LINE
8
BLACK
6
CONTINUOUS
10
91.434
20
-26.6539
11
91.0997
21
-26.7923
0
LINE
8
BLACK
6
CONTINUOUS
10
91.0997
20
-26.7923
11
90.7829
21
-26.9674
0
LINE
8
BLACK
6
CONTINUOUS
10
90.7829
20
-26.9674
11
90.4878
21
-27.1768
0
LINE
8
BLACK
6
CONTINUOUS
10
90.4878
20
-27.1768
11
90.2179
21
-27.418
0
LINE
8
BLACK
6
CONTINUOUS
10
90.2179
20
-27.418
11
89.9768
21
-27.6879
0
LINE
8
BLACK
6
CONTINUOUS
10
89.9768
20
-27.6879
11
89.7673
21
-27.983
0
LINE
8
BLACK
6
CONTINUOUS
10
89.7673
20
-27.983
11
89.5923
21
-28.2998
0
LINE
8
BLACK
6
CONTINUOUS
10
89.5923
20
-28.2998
11
89.4538
21
-28.6341
0
LINE
8
BLACK
6
CONTINUOUS
10
89.4538
20
-28.6341
11
89.3536
21
-28.9819
0
LINE
8
BLACK
6
CONTINUOUS
10
89.3536
20
-28.9819
11
89.293
21
-29.3387
0
LINE
8
BLACK
6
CONTINUOUS
10
89.293
20
-29.3387
11
89.2727
21
-29.7
0
LINE
8
BLACK
6
CONTINUOUS
10
89.2727
20
-29.7
11
89.293
21
-30.0614
  0
ENDSEC
  0
EOF
